<?xml version="1.0" encoding="utf-8"?>
<!-- Generator: Adobe Illustrator 26.5.0, SVG Export Plug-In . SVG Version: 6.00 Build 0)  -->
<svg version="1.1" id="Layer_1" xmlns:serif="http://www.serif.com/"
	 xmlns="http://www.w3.org/2000/svg" xmlns:xlink="http://www.w3.org/1999/xlink" x="0px" y="0px" viewBox="0 0 1366 768"
	 style="enable-background:new 0 0 1366 768;" xml:space="preserve">
<style type="text/css">
	.st0{fill:none;}
	.st1{clip-path:url(#SVGID_00000017480704837964476250000016534799970403277473_);}
	.st2{fill:#FFFFFF;}
</style>
<g transform="matrix(1,0,0,1,-854,-9)">
	<g id="icon-crane" transform="matrix(1,0,0,1,-75.8113,-0.307716)">
		<rect x="1162.1" y="9.3" class="st0" width="903.7" height="762"/>
		<g>
			<defs>
				<rect id="SVGID_1_" x="1162.1" y="9.3" width="903.7" height="762"/>
			</defs>
			<clipPath id="SVGID_00000112599853301718639520000011661485898494070671_">
				<use xlink:href="#SVGID_1_"  style="overflow:visible;"/>
			</clipPath>
			<g style="clip-path:url(#SVGID_00000112599853301718639520000011661485898494070671_);">
				<g transform="matrix(0.194987,0,0,0.194987,274.187,-48.5257)">
					<path class="st2" d="M8816.4,3845.1c-0.1,2.5-0.4,4.9-0.7,7.3c-0.3,2.9-0.7,5.8-1.2,8.6c-0.4,2.8-0.9,5.7-1.5,8.5
						s-1.2,5.4-1.9,8.2c-0.8,4.1-2,8.1-3.2,11.9c-0.7,2.3-1.3,4.5-2.1,6.6c-2.5,7.8-5.6,15.5-9,22.8c-0.9,2.1-2,4.1-3,6.2
						c-1.5,2.9-2.9,5.7-4.5,8.5c-2.4,4.5-5.2,8.9-8.1,13.1c-1.9,3-4,6.1-6.2,9c-2.4,3.3-4.9,6.6-7.5,9.8c-0.9,1.2-1.9,2.4-3,3.4
						c-2.6,3.2-5.4,6.2-8.3,9.1c-2.4,2.6-4.9,5.3-7.7,7.7c-2.4,2.3-4.8,4.5-7.3,6.5c-10.9,9.5-22.8,17.7-35.4,24.8
						c-2.4,1.5-4.9,2.8-7.4,4c-2.1,1.2-4.2,2.3-6.5,3.2c-2.8,1.5-5.7,2.6-8.6,3.8c-3.6,1.5-7.2,2.8-10.7,4.1c-2,0.8-3.8,1.5-5.8,2
						c-1.6,0.5-3.2,1.1-4.8,1.5c-5.6,1.7-11.3,3.2-17,4.4c-1.1,0.3-2,0.4-2.9,0.7c-2.1,0.4-4.2,0.8-6.4,1.1c-2,0.4-3.8,0.7-5.8,0.9
						c-3.3,0.5-6.6,0.9-9.9,1.2c-6.6,0.7-13.4,0.9-20.1,0.9c-120.1,0-217.4-97.3-217.4-217.4c0-120.1,97.3-217.4,217.4-217.4
						c6.8,0,13.5,0.3,20.1,0.9c3.3,0.3,6.6,0.7,9.9,1.2c2,0.3,3.8,0.5,5.8,0.9c2.1,0.3,4.2,0.7,6.4,1.1c0.9,0.3,1.9,0.4,2.9,0.7
						c5.7,1.2,11.4,2.6,17,4.4c1.6,0.4,3.2,0.9,4.8,1.5c6.4,2,12.4,4.2,18.5,6.9c3,1.2,5.8,2.5,8.7,4c6.4,3,12.4,6.4,18.5,10.1
						c2.9,1.7,5.8,3.6,8.7,5.7c3.2,2.1,6.4,4.4,9.4,6.8c0.3,0.1,0.5,0.3,0.8,0.5c2.2,1.6,4.5,3.3,6.5,5.2c2.6,2.1,5.3,4.4,7.9,6.9
						c5.2,4.6,10.1,9.5,14.7,14.7c2.5,2.6,4.8,5.3,6.9,7.9c8.3,10.1,15.8,20.9,22.1,32.4c0.8,1.3,1.5,2.6,2.3,4
						c3,5.6,5.7,11.4,8.2,17.2c1.3,3.2,2.5,6.4,3.7,9.7c0.8,1.9,1.5,3.7,2,5.7c0.8,2.4,1.6,4.8,2.2,7.2c1.6,4.8,2.8,9.7,3.8,14.7
						c0.4,1.5,0.7,3,1.1,4.6c0.7,3,1.2,6.2,1.6,9.3c0.5,2.8,0.9,5.6,1.2,8.5c0.3,2.5,0.5,4.9,0.7,7.3c0.5,5.8,0.8,11.8,0.8,17.7
						C8817.2,3833.4,8816.9,3839.3,8816.4,3845.1z M6382,3827.4c0,6-0.3,11.9-0.8,17.7c-0.1,2.5-0.4,4.9-0.7,7.3
						c-0.3,2.9-0.7,5.8-1.2,8.6c-0.4,2.8-0.9,5.7-1.5,8.5c-0.7,2.8-1.2,5.4-1.9,8.2c-0.8,4.1-2,8.1-3.2,11.9
						c-0.7,2.3-1.3,4.5-2.1,6.6c-0.5,2-1.2,4-2,5.8c-0.9,2.6-1.9,5-2.9,7.5v0.1c-0.9,2.4-2,4.6-3,6.9c-1.2,2.9-2.6,5.8-4.1,8.6
						c-1.5,2.9-2.9,5.7-4.5,8.5c-8.3,15-18.4,28.7-29.9,41.2c-1.5,1.6-3,3.2-4.6,4.8c-5.4,5.7-11.4,11.1-17.6,16
						c-2.4,2.1-4.9,4.1-7.4,6c-11.8,8.9-24.6,16.6-38.1,22.8c-2.4,1.2-4.8,2.3-7.3,3.3c-2.8,1.2-5.6,2.3-8.5,3.3
						c-8.7,3.3-17.6,6-26.7,8.1c-2.6,0.7-5,1.2-7.7,1.7c-1.9,0.4-3.8,0.7-5.8,0.9c-1.9,0.4-3.8,0.7-5.8,0.9
						c-3.3,0.5-6.6,0.9-9.9,1.2c-3.3,0.3-6.6,0.5-10.1,0.7c-3.3,0.1-6.8,0.3-10.1,0.3c-120.1,0-217.4-97.3-217.4-217.4
						c0-120.1,97.3-217.4,217.4-217.4c3.3,0,6.8,0.1,10.1,0.3c3.4,0.1,6.8,0.4,10.1,0.7c3.3,0.3,6.6,0.7,9.9,1.2
						c2,0.3,4,0.5,5.8,0.9c2,0.3,4,0.5,5.8,0.9c2.6,0.5,5,1.1,7.7,1.7c9.1,2.1,18,4.8,26.7,8.1c2.9,1.1,5.7,2.1,8.5,3.3
						c2.5,1.1,4.9,2.1,7.3,3.3c7.5,3.4,14.8,7.4,22,11.8c2.6,1.6,5.2,3.2,7.7,5c3.2,2.1,6.4,4.4,9.4,6.8c2.5,1.7,5,3.6,7.3,5.7
						c2.6,2.1,5.3,4.4,7.9,6.9c5.2,4.6,10.1,9.5,14.7,14.7c2.5,2.6,4.8,5.3,6.9,7.9c2.4,2.6,4.5,5.4,6.5,8.2
						c4.2,5.6,8.1,11.3,11.7,17.3c11.4,18.5,20,38.9,25.2,60.8c0.8,3,1.5,6,2.1,9.1c0.7,3,1.2,6.2,1.6,9.3c0.5,2.8,0.9,5.6,1.2,8.5
						c0.3,2.5,0.5,4.9,0.7,7.3C6381.7,3815.5,6382,3821.4,6382,3827.4z M7597.9,3827.4c0,3.6-0.1,7-0.3,10.5
						c-0.1,2.5-0.3,4.9-0.5,7.3c-0.1,2.5-0.4,4.9-0.7,7.3c-0.3,2.9-0.7,5.8-1.2,8.6c-0.4,2.8-0.9,5.7-1.5,8.5s-1.2,5.4-1.9,8.2
						c-0.8,4.1-2,8.1-3.2,11.9c-0.7,2.3-1.3,4.5-2.1,6.6c-3.2,10.1-7.3,19.7-12,29c-1.5,2.9-2.9,5.7-4.5,8.5
						c-2.9,5.3-6,10.3-9.4,15.2c-1.5,2.3-3,4.5-4.6,6.6c-5.8,7.9-12.2,15.6-19.2,22.6c-1.5,1.7-3.2,3.4-4.9,5
						c-1.9,2-3.8,3.7-5.8,5.6c-2.3,2-4.6,4.1-7,6.1c-8.1,6.8-16.8,12.8-26,18.4c-1.2,0.8-2.4,1.5-3.6,2.1c-0.1,0.1-0.3,0.3-0.5,0.3
						c-2.2,1.3-4.5,2.6-6.9,3.8c-5.7,3-11.5,5.8-17.5,8.3c-3.2,1.3-6.2,2.5-9.5,3.7c-0.3,0.1-0.7,0.3-1.1,0.4
						c-2.4,0.9-4.9,1.7-7.4,2.5c-1.7,0.7-3.4,1.2-5.3,1.6c-2.1,0.8-4.2,1.3-6.4,1.9c-4.8,1.2-9.7,2.3-14.7,3.2
						c-3.3,0.7-6.5,1.2-9.8,1.6c-3.3,0.5-6.6,0.9-9.9,1.2c-6.6,0.7-13.4,0.9-20.1,0.9c-120.1,0-217.4-97.3-217.4-217.4
						c0-120.1,97.3-217.4,217.4-217.4c6.8,0,13.5,0.3,20.1,0.9c3.3,0.3,6.6,0.7,9.9,1.2c4.1,0.5,8.1,1.2,12,2
						c1.1,0.3,2.1,0.4,3.3,0.7c3,0.7,6.2,1.3,9.1,2.1c2.1,0.5,4.2,1.1,6.4,1.9c1.9,0.4,3.6,0.9,5.3,1.6c2.5,0.8,5,1.6,7.4,2.5
						c13.8,4.9,26.9,11.1,39.1,18.7c3,1.7,6,3.7,8.9,5.7c3.2,2.1,6.4,4.2,9.3,6.6c2.5,1.9,5,3.8,7.4,5.8c4.6,3.7,9,7.7,13.2,11.9
						c1.7,1.6,3.4,3.3,4.9,5c6.5,6.5,12.4,13.4,17.9,20.8c1.5,1.9,2.8,3.8,4.1,5.8c4.2,5.8,8.1,12,11.5,18.4
						c1.5,2.6,2.9,5.3,4.2,7.9c4.8,9.1,8.7,18.7,11.9,28.6c0.8,2.4,1.6,4.8,2.3,7.2c1.1,3.3,2,6.8,2.8,10.2c0.5,1.5,0.8,3,1.1,4.5
						c0.4,1.5,0.7,3,1.1,4.6c0.7,3,1.2,6.2,1.6,9.3c0.5,2.8,0.9,5.6,1.2,8.5c0.3,2.5,0.5,4.9,0.7,7.3c0.3,2.4,0.4,4.8,0.5,7.3
						C7597.8,3820.4,7597.9,3823.8,7597.9,3827.4z M6683.6,2308h567.1v768.1h-567.1V2308z M9161.1,2603.8h-268.7
						c0.1-6.9,0.1-13.9-0.1-20.8c-0.1-3.1-0.2-6.1-0.3-9.2c-0.1-2-0.3-3.9-0.5-5.8c-0.3-3.1-0.6-6.2-1-9.3c-0.2-1.9-0.5-3.7-0.7-5.5
						c-0.6-3.8-1.4-7.5-2.3-11.1c-0.3-0.9-0.3-1.9-0.6-2.8c-3-11.4-7.6-22.2-13.4-32.2c-15.8-28-41.1-50.1-71.1-61.9
						c-9.8-3.9-20.1-6.7-30.7-8.2c-44-6.2-91-1.7-135.2-1.7c-124.3,0-249.2-3.7-373.4,0c-3.3,0.1-6.5,0.6-9.7,0.9
						c-52.2,4.7-98.4,34.7-119.6,84c-0.3,0.7-0.5,1.4-0.7,2.2c-1,2.3-1.9,4.7-2.6,7c-0.2,0.6-0.3,1.2-0.5,1.8
						c-0.9,2.8-1.7,5.7-2.4,8.5c-0.1,0.3-0.2,0.6-0.3,0.9c-0.1,0.6-0.2,1.1-0.4,1.7c-1.3,5.6-2.3,11.3-3,17
						c-0.1,0.8-0.3,1.6-0.3,2.4c-0.3,2.7-0.5,5.3-0.7,8c-0.2,1.9-0.3,3.9-0.5,5.9c-0.1,2.4-0.3,4.8-0.3,7.2
						c-0.1,2.5-0.1,4.9-0.2,7.4c0,2-0.1,3.9-0.1,5.9v7.8h-234v-478.9c0-18.8-16-34.8-35-34.8h-322.4
						c-82.4-142.5-164.7-285.2-247-427.8c-33.1-57.2-66.1-114.4-99.2-171.6c-23.8-41.4-45.8-87.5-79.6-121.8
						c-32.6-33.2-72.3-50.8-113.7-69.1c-50.2-22.2-100.5-44.4-150.8-66.6c-146.1-64.5-292.1-129-438.3-193.5
						c-225-99.3-450.1-198.6-675-298.1c-94.4-41.6-188.8-83.3-283.2-125c-18-7.9-35.9-16-54-23.8c-1.1-0.4-2.1-0.9-3.2-1.2v-0.6
						c0.1-2.6,0.1-5.1,0.1-7.7c0-2-0.1-4.1-0.2-6.1c0-2.4-0.1-4.8-0.2-7.2v-1.1c-0.2-4-0.5-7.9-0.9-11.9c-0.1-1.6-0.2-3.2-0.3-4.7
						c-0.7-5.8-1.5-11.7-2.5-17.5c0-0.2-0.1-0.3-0.1-0.5c-0.3-1.8-0.7-3.7-1.1-5.5c-0.4-2-0.7-4.1-1.1-6.1c-0.4-1.9-0.9-3.8-1.3-5.7
						c-0.5-2.4-1.1-4.8-1.7-7.2c-1.1-4.6-2.4-9.1-3.6-13.6c-0.2-0.6-0.5-1.3-0.7-1.9c-2.5-8-5.3-15.9-8.4-23.7
						c-0.3-0.8-0.5-1.6-0.9-2.4c-1.1-2.7-2.3-5.2-3.4-7.8c-1.1-2.5-2.2-5.1-3.4-7.6c-0.4-0.9-0.8-1.8-1.2-2.7
						c-1.3-2.6-2.7-5.2-4-7.7c-1.3-2.5-2.6-5-4-7.5c-2.1-3.9-4.5-7.7-6.8-11.5c-1.1-1.7-2.1-3.5-3.2-5.2c-0.5-0.8-1.1-1.7-1.6-2.6
						c-1-1.5-2.1-2.8-3.1-4.2c-3.8-5.5-7.7-10.8-11.9-16c-0.9-1.1-1.7-2.4-2.6-3.5c-0.8-0.9-1.6-1.8-2.4-2.7c-2-2.3-4-4.6-6.1-6.8
						c-1.6-1.7-3-3.5-4.6-5.2c-0.9-1-1.9-1.8-2.8-2.7c-2.1-2.1-4.2-4.1-6.4-6.2c-1.7-1.5-3.2-3.2-4.8-4.6c-1.4-1.2-2.8-2.3-4.2-3.5
						c-1.2-1-2.5-2.1-3.7-3.1c-0.9-0.7-1.7-1.5-2.6-2.2c-2-1.6-4.1-3.2-6.2-4.8c-1.7-1.2-3.4-2.4-5-3.6c-0.2-0.1-0.4-0.3-0.6-0.4
						c-0.5-0.3-0.9-0.7-1.4-1c-4.6-3-9.3-6-14-8.7c-0.1,0-0.1-0.1-0.1-0.1c-1.2-0.7-2.4-1.3-3.6-2c-1.3-0.7-2.6-1.5-4-2.2
						c-3.7-2-7.5-3.8-11.3-5.6c-0.1-0.1-0.3-0.2-0.5-0.2c-67.2-30.3-135.2-22.2-191.6,10.1c-49.8,28.5-90.4,75.9-113.5,132.4
						c-19.9,49-24.6,99.6-21.3,151.3c7.5,114.5,15,228.9,22.4,343.5c8.1,124.6,16.3,249.3,24.4,373.9c3.9,59.4,7.7,118.8,11.7,178.2
						c3,47.6,6.2,95.2,9.3,142.8c8.6,132.4,17.3,264.9,25.8,397.4c2,29.4,3.9,58.9,5.8,88.3c0.7,10.2,1.3,20.3,2,30.5
						c-0.1,0-0.1,0-0.1,0c0,0,0,0,0,0c-0.2,0-0.3,0.1-0.5,0.1c-31.8,4.9-63,12.1-93.4,21.9c-3.5,1.1-7,2.3-10.6,3.5
						c-0.7,0.2-1.3,0.5-1.9,0.7c-3,1-5.9,2-8.8,3.1c-5.6,2-11.3,4.2-16.9,6.4c-1.2,0.5-2.4,0.9-3.6,1.4c-1,0.4-2,0.8-3,1.2
						c-5.5,2.4-10.9,4.7-16.3,7.2c-2.1,0.9-4.2,1.9-6.2,2.9c-2.4,1.1-4.9,2.3-7.3,3.4c-2.4,1.1-4.7,2.4-7,3.6
						c-2.1,1-4.1,2.1-6.2,3.1c-5.5,2.9-10.9,5.8-16.2,8.9c-1.6,0.9-3.2,1.8-4.8,2.7c-0.3,0.2-0.6,0.3-0.9,0.5
						c-5.2,3-10.5,6.2-15.6,9.5c-0.5,0.3-1.1,0.7-1.6,1c-1.9,1.2-3.6,2.4-5.4,3.5c-2.4,1.6-5,3.2-7.4,4.8c-2.8,1.9-5.6,3.9-8.3,5.9
						c-1.1,0.7-2.1,1.5-3.1,2.2c-6.6,4.7-13.1,9.5-19.5,14.6c-127.8,101.2-200.5,261.9-178.9,425c19.8,149.2,115.3,277.9,244,352.4
						c13.5,7.8,27.3,15.3,41.6,21.9c41.9,19.4,84.8,32.2,128.4,40.6c51.4,9.9,103.8,13.7,157.4,13.7h603.9
						c56.9,0,113.9,0.4,170.9,0.8c117.8,0.9,235.6,1.8,353.2-0.7c2.3,0,4.5,0,6.8-0.1c1.9-0.1,3.6,0,5.4,0h0.4c0.1,0,0.3,0,0.4,0
						c1.2,0.2,2.4,0.3,3.6,0.3c0.7,0,1.3,0,2.1,0c4.6-0.1,8.7-1.1,12.4-3c0.5-0.2,0.9-0.3,1.3-0.6c0.2-0.1,0.4-0.3,0.6-0.4
						c0.7-0.4,1.3-0.8,1.9-1.2c0.2-0.1,0.4-0.3,0.6-0.4c0.4-0.3,0.8-0.7,1.2-1c1.2-1,2.4-2.1,3.4-3.3c0.1-0.1,0.3-0.3,0.4-0.4
						c0.1-0.1,0.1-0.1,0.1-0.2c0.6-0.6,1.2-1.3,1.7-2c0.1-0.2,0.3-0.3,0.4-0.5c0.1-0.1,0.1-0.2,0.2-0.3v0c0.1-0.1,0.1-0.2,0.2-0.3
						c0,0,0,0,0.1-0.1c6.2-8.8,8.1-20.5,5.5-31.1c-0.1-0.6-0.2-1.3-0.4-1.9c-0.1-0.3-0.2-0.5-0.3-0.8c-0.1-0.4-0.3-0.9-0.5-1.3
						c-0.1-0.2-0.1-0.4-0.2-0.6c-0.3-0.9-0.7-1.7-1.1-2.5c-0.2-0.5-0.5-1-0.8-1.5c-0.1-0.3-0.3-0.7-0.5-1v0
						c-0.7-1.2-1.3-2.4-2.3-3.4c-0.3-0.4-0.6-0.8-1-1.2c-0.1-0.2-0.3-0.4-0.5-0.6c-0.7-0.7-1.3-1.5-2-2.1c-0.7-0.7-1.5-1.4-2.4-2
						c-0.1-0.1-0.3-0.2-0.4-0.3c-1.3-1-2.7-2-4.2-2.6c-0.3-0.2-0.5-0.2-0.8-0.4c-0.3-0.1-0.6-0.3-0.9-0.4c-0.1,0-0.2-0.1-0.3-0.1
						c-0.5-0.3-0.9-0.5-1.3-0.5c-0.4-0.1-0.9-0.4-1.5-0.5c-1.1-0.4-2-0.7-3-0.8c-0.1-0.1-0.3-0.1-0.3-0.1c-0.1,0-0.4,0-0.5-0.1
						c-5.8-1.9-11.6-3.9-17.3-5.9c-2.9-1-5.8-1.9-8.7-3c-7-2.5-14.2-5.2-21.2-7.9c-4.2-1.6-8.3-3.2-12.4-4.9
						c-7.3-2.9-14.6-5.9-21.8-9c-6.6-2.8-13-5.8-19.5-8.7c-2.6-1.2-5.2-2.3-7.7-3.5c-3.9-1.8-7.7-3.8-11.6-5.7
						c-22.2-10.8-44.1-22.4-65.3-35c-8.5-4.9-16.8-9.9-25-15.2c-8.3-5.2-16.4-10.5-24.5-16c-8.1-5.4-16.2-11-24-16.8
						c-2.8-2-5.5-4.1-8.3-6.1c-4.4-3.3-8.9-6.6-13.4-10c-1.4-1.1-2.8-2.2-4.2-3.3c-1.3-0.9-2.5-1.9-3.7-2.9
						c-5.7-4.4-11.3-8.9-16.7-13.4c-2.2-1.8-4.3-3.7-6.5-5.5c-11-9.3-21.8-18.8-32.3-28.6c-1.6-1.5-3.3-3-4.9-4.5
						c-5.3-5-10.4-10-15.6-15.1c-1.5-1.5-3-3-4.6-4.5c-1.3-1.3-2.6-2.6-3.8-4c-4-4-7.9-8.1-11.7-12.2c-3.8-3.9-7.5-8-11.2-12.1
						c-2-2.2-4-4.4-6-6.6c-0.9-1-1.9-2.1-2.7-3.1c-7.5-8.5-14.8-17.1-21.9-25.9c-0.9-1.1-1.8-2.1-2.6-3.2
						c-6.8-8.5-13.5-17.2-20-26.1c-3.9-5.3-7.7-10.6-11.5-16c-0.7-1-1.4-1.9-2.1-2.9c-0.1-0.1-0.3-0.3-0.3-0.4
						c-5.4-7.8-10.7-15.8-15.9-23.8c-6-9.2-11.7-18.6-17.2-28.1c-1.3-2.3-2.6-4.6-3.9-6.9c-4.6-8.1-9.1-16.2-13.4-24.4
						c-1.2-2.3-2.4-4.6-3.6-6.9c-6.2-12.1-12.2-24.3-17.7-36.8c-0.3-0.7-0.7-1.5-1-2.3c-5-11.3-9.7-22.8-14.1-34.4
						c-1.1-2.8-2.2-5.7-3.2-8.5c-1.3-3.7-2.7-7.3-4-11c-2-5.4-3.8-10.9-5.6-16.3c-1.6-4.8-3.2-9.6-4.6-14.3
						c-0.8-2.6-1.5-5.3-2.3-7.9c-1.5-4.9-2.8-9.8-4.2-14.8c-1.6-6-3-11.9-4.5-17.9c-2.7-10.9-5.1-21.9-7.3-33
						c-0.1-0.7-0.3-1.4-0.4-2.2c-2.3-11.4-4.2-22.9-5.9-34.6c-2.1-14.7-3.7-29.4-4.9-44.2c-4.4-54.5-2.9-109.6,4.2-163.6
						c0.3-2.3,0.3-4.6-0.1-6.9c-0.3-1.6-0.9-3.2-1.5-4.8c-4.9-13.3-20.1-23.2-33.4-23.2h-377.2c0.1-1.9,0.3-3.8,0.4-5.7v0
						c11-167.9,21.8-335.8,32.8-503.7c12.3-189.9,24.6-379.6,37.1-569.5c0.8-12.2,1.6-24.4,2.3-36.6c1.2-17.4,2.3-34.7,3.4-52.1
						c0,0,0.1,0.1,0.1,0.1c24.8,13,49.7,26,74.4,38.9c227.1,118.8,454.2,237.6,681.3,356.3c190.1,99.4,380.3,198.9,570.6,298.3
						c51.8,27.1,100.2,49.1,131.8,102.8c50.8,87,100.6,174.5,151.1,261.8c6.4,11.1,12.8,22.2,19.2,33.4h-269.9
						c-18.8,0-34.8,16-34.8,34.8v113.3h-147c-18.8,0-34.8,16-34.8,35V3111c0,18.8,15.9,35,34.8,35h147v113.2c0,18.9,16,35,34.8,35
						H6980v145.5h-434.2c-153.1,0-306.1-0.4-459.2,0c-75.4,0.2-147.5,23.2-207.7,63.3c-71.9,47.9-126.7,120.5-148.8,209.2
						c-20.5,82.1-18.6,188.3,11.7,267.3c37.6,98.4,114.4,175.4,212.9,212.9c38.6,14.7,77.7,19.8,117.3,21.6c25.4,1.2,50.9,1,76.7,1
						H8681c108.3-1.3,212.3-49.1,280.5-134c62.6-78.1,80.5-167.2,80.5-264.8c0-49.3-7.8-97.2-24-141.9
						c-17.3-47.5-44.1-91.4-81.7-129c-22.8-22.8-48.3-42-75.8-57.6c-54.4-30.9-116.3-47.6-179.7-48.2c-132.8-1.3-265.8,0-398.6,0
						h-447.7v-145.5h1326.7c0.7,0,1.2-0.2,1.9-0.2c4.4-0.2,8.3-1,11.8-2.4v0c0.9-0.4,1.8-0.8,2.6-1.2c0.1,0,0.1,0,0.2-0.1
						c0.9-0.4,1.9-0.9,2.6-1.6v0c1.5-1,2.9-2.2,4.2-3.4c0.1-0.1,0.1-0.1,0.2-0.1c0.1-0.1,0.4-0.3,0.7-0.5c0.1-0.1,0.1-0.2,0.2-0.3
						c0.2-0.2,0.3-0.4,0.5-0.5c0.1-0.1,0.1-0.1,0.2-0.2c0.1-0.1,0.2-0.2,0.3-0.2c0.2-0.2,0.3-0.4,0.5-0.6c1.7-1.8,3.2-3.8,4.6-6
						c0.1-0.3,0.4-0.5,0.5-0.8c0.1-0.1,0.1-0.2,0.1-0.3c0.5-1,1-2.1,1.5-3.2c0.1-0.1,0.1-0.2,0.1-0.3c0.5-1.2,0.9-2.4,1.2-3.6
						c0.1-0.2,0.1-0.4,0.1-0.6c0.1-0.7,0.3-1.4,0.4-2.1c0-0.3,0.1-0.5,0.1-0.8c0.4-1.9,0.5-3.8,0.5-6v-620.5
						C9196,2619.8,9180,2603.8,9161.1,2603.8z"/>
				</g>
			</g>
		</g>
	</g>
</g>
</svg>
