<?xml version="1.0" encoding="utf-8"?>
<!-- Generator: Adobe Illustrator 26.5.0, SVG Export Plug-In . SVG Version: 6.00 Build 0)  -->
<svg version="1.1" id="Layer_1" xmlns:serif="http://www.serif.com/"
	 xmlns="http://www.w3.org/2000/svg" xmlns:xlink="http://www.w3.org/1999/xlink" x="0px" y="0px" viewBox="0 0 1366 768"
	 style="enable-background:new 0 0 1366 768;" xml:space="preserve">
<style type="text/css">
	.st0{fill:none;}
	.st1{clip-path:url(#SVGID_00000067930361713634173700000015393517545343382169_);}
	.st2{fill:#FFFFFF;}
</style>
<g transform="matrix(1,0,0,1,-447,-10)">
	<g id="icon-engineering" transform="matrix(1,0,0,1,-111,9.74216)">
		<rect x="626.2" y="0.3" class="st0" width="1226.1" height="762.3"/>
		<g>
			<defs>
				<rect id="SVGID_1_" x="626.2" y="0.3" width="1226.1" height="762.3"/>
			</defs>
			<clipPath id="SVGID_00000059299274274534555980000011942917307600713116_">
				<use xlink:href="#SVGID_1_"  style="overflow:visible;"/>
			</clipPath>
			<g style="clip-path:url(#SVGID_00000059299274274534555980000011942917307600713116_);">
				<g transform="matrix(1,0,0,1,-1047.6,0.515674)">
					<g>
						<g transform="matrix(1,0,0,1,1662.33,24.9038)">
							<path class="st2" d="M387.4,572.5c-118.7,0-214.8-96.2-214.8-214.8c0-118.6,96.2-214.8,214.8-214.8
								c118.6,0,214.8,96.2,214.8,214.8C602.2,476.4,506,572.5,387.4,572.5 M760.5,435.7l-73.1-50.1c1.7-18.6,1.8-37.4,0-55.7l73-50
								l-1-4.6c-2.7-12-5.9-23.8-9.6-35.2c-3.7-11.4-8-22.9-12.9-34.1l-1.9-4.4l-88.5,2.4c-9.4-15.9-20.4-31-32.8-45.1l29.8-83.5
								l-3.6-3.1c-18.2-16.1-38.1-30.5-59-42.8l-4.1-2.4l-70.2,54c-16.9-7.3-34.7-13.1-52.9-17.2l-25-85.1l-4.7-0.5
								C399.7-24,375.2-24,351-21.6l-4.7,0.5l-25.1,85c-9.2,2-18.2,4.5-26.9,7.4c-8.7,2.8-17.5,6.1-26.1,9.8l-70.2-54.1l-4.1,2.4
								c-20.9,12.3-40.8,26.7-59,42.8l-3.5,3.1l29.7,83.5c-12.3,14.1-23.3,29.2-32.8,45l-88.5-2.4l-1.9,4.3
								c-9.7,22.3-17.3,45.6-22.6,69.3l-1,4.7l73.1,50.1c-1.7,18.6-1.7,37.3,0,55.7l-73.1,50l1,4.7c2.6,11.9,5.9,23.7,9.6,35.2
								c3.7,11.4,8.1,22.9,12.9,34.1l1.9,4.4l88.5-2.5c9.4,15.9,20.4,31.1,32.8,45.1L131.3,640l3.6,3.2c18.2,16.1,38,30.5,59,42.8
								l4.1,2.4l70.2-54c16.9,7.3,34.7,13.1,52.9,17.2l25.1,85.1l4.7,0.4c24.2,2.3,48.7,2.3,72.9,0l4.7-0.4l25.1-85
								c9.1-2.1,18.2-4.5,26.9-7.3c8.7-2.8,17.5-6.2,26.1-9.8l70.2,54l4.1-2.4c20.9-12.3,40.8-26.7,59-42.8l3.6-3.2l-29.7-83.5
								c12.4-14.1,23.3-29.2,32.8-45l88.5,2.5l1.9-4.4c9.7-22.3,17.3-45.6,22.6-69.3L760.5,435.7z"/>
						</g>
						<g transform="matrix(1,0,0,1,1662.33,40.8426)">
							<path class="st2" d="M387.4,450.2c-59.9,0-108.4-48.5-108.4-108.4c0-59.9,48.5-108.4,108.4-108.4
								c59.9,0,108.4,48.5,108.4,108.4C495.8,401.6,447.3,450.2,387.4,450.2 M387.4,166.8c-96.6,0-175,78.3-175,175
								c0,96.6,78.3,175,175,175c96.6,0,175-78.3,175-175C562.4,245.1,484,166.8,387.4,166.8"/>
						</g>
						<g transform="matrix(1,0,0,1,1752.68,50.9632)">
							<path class="st2" d="M900.4,608.2c-87.5,0-158.7-71.2-158.7-158.7c0-87.5,71.2-158.7,158.7-158.7
								c87.5,0,158.7,71.2,158.7,158.7C1059.1,537,987.9,608.2,900.4,608.2 M1110.9,482.8c1.7-10.9,2.6-22,2.6-33.3
								s-0.9-22.5-2.6-33.3l36.6-38.2c3.4-3.5,3.5-10.7,0.3-16.1l-0.9-1.6l-45.9-79.6l-0.9-1.6c-3.1-5.4-9.4-8.9-14.1-7.8
								l-51.5,12.6c-17.2-13.9-36.6-25.3-57.6-33.3l-14.9-50.8c-1.4-4.7-7.5-8.3-13.8-8.3h-95.5c-6.3,0-12.4,3.6-13.8,8.3L824,250.6
								c-21,8.1-40.4,19.4-57.6,33.3l-51.5-12.6c-4.7-1.2-11,2.3-14.1,7.8l-0.9,1.6L654,360.3l-0.9,1.6c-3.1,5.4-3,12.6,0.3,16.1
								l36.6,38.2c-1.7,10.9-2.6,22-2.6,33.3s0.9,22.5,2.6,33.3l-36.6,38.3c-3.4,3.5-3.5,10.7-0.3,16.1l0.9,1.6l45.9,79.6l0.9,1.6
								c3.1,5.4,9.3,8.9,14.1,7.8l51.5-12.6c17.2,13.9,36.6,25.3,57.6,33.3l14.9,50.8c1.4,4.7,7.5,8.3,13.8,8.3h95.5
								c6.3,0,12.4-3.6,13.8-8.3l14.9-50.8c21-8.1,40.4-19.4,57.6-33.3l51.5,12.6c4.7,1.2,11-2.3,14.1-7.8l0.9-1.6l45.9-79.6
								l0.9-1.6c3.1-5.4,3.1-12.6-0.3-16.1L1110.9,482.8z"/>
						</g>
						<g transform="matrix(-1,0,0,1,1752.68,90.9529)">
							<path class="st2" d="M-900.4,301.1c59.9,0,108.4,48.5,108.4,108.4c0,59.9-48.5,108.4-108.4,108.4
								c-59.9,0-108.4-48.5-108.4-108.4C-1008.8,349.7-960.3,301.1-900.4,301.1"/>
						</g>
						<g transform="matrix(1,0,0,1,1758.54,56.697)">
							<path class="st2" d="M933.7,564.2c-66.4,21.6-137.9-14.9-159.5-81.3c-21.6-66.4,14.9-137.9,81.3-159.5
								c66.4-21.5,137.9,14.9,159.5,81.3C1036.6,471.1,1000.1,542.6,933.7,564.2 M980.3,339.8c-5-4.1-10.3-7.9-15.8-11.3
								c-3.7-2.3-7.5-4.3-11.4-6.2c-2-0.9-4-1.8-6-2.7c-16.1-6.8-33.8-10.6-52.4-10.6c-16.3,0-31.9,2.9-46.3,8.2
								c-24.8,9.1-46.1,25.2-61.6,45.9c-2.6,3.5-5,7-7.3,10.8c-2.3,3.7-4.3,7.5-6.2,11.4c-2.8,5.9-5.3,12-7.2,18.3
								c-3.9,12.7-6.1,26.1-6.1,40.1c0,14,2.1,27.4,6.1,40.1c2,6.3,4.4,12.5,7.2,18.4c1.9,3.9,4,7.7,6.2,11.4
								c2.3,3.7,4.7,7.3,7.3,10.8c15.5,20.7,36.9,36.9,61.6,45.9c14.4,5.3,30.1,8.2,46.3,8.2c18.6,0,36.3-3.8,52.4-10.6
								c2-0.9,4-1.8,6-2.7c3.9-1.9,7.7-4,11.4-6.2c5.6-3.4,10.9-7.1,15.8-11.3c5-4.1,9.7-8.6,14-13.4c21.7-23.9,35-55.7,35-90.6
								c0-34.9-13.2-66.7-35-90.6C990,348.4,985.3,343.9,980.3,339.8"/>
						</g>
					</g>
				</g>
			</g>
		</g>
	</g>
</g>
</svg>
