<?xml version="1.0" encoding="utf-8"?>
<!-- Generator: Adobe Illustrator 26.5.0, SVG Export Plug-In . SVG Version: 6.00 Build 0)  -->
<svg version="1.1" id="Layer_1" xmlns:serif="http://www.serif.com/"
	 xmlns="http://www.w3.org/2000/svg" xmlns:xlink="http://www.w3.org/1999/xlink" x="0px" y="0px" viewBox="0 0 1366 768"
	 style="enable-background:new 0 0 1366 768;" xml:space="preserve">
<style type="text/css">
	.st0{fill:none;}
	.st1{clip-path:url(#SVGID_00000182513239547092232340000003996208067009051578_);}
	.st2{fill:#FFFFFF;}
</style>
<g transform="matrix(1,0,0,1,-677,0)">
	<g id="icon-brazil" transform="matrix(1,0,0,1,-97.2925,9.36031)">
		<rect x="1076.2" y="-9.4" class="st0" width="759" height="764.7"/>
		<g>
			<defs>
				<rect id="SVGID_1_" x="1076.2" y="-9.4" width="759" height="764.7"/>
			</defs>
			<clipPath id="SVGID_00000057841913636719028370000006019526264842999997_">
				<use xlink:href="#SVGID_1_"  style="overflow:visible;"/>
			</clipPath>
			<g style="clip-path:url(#SVGID_00000057841913636719028370000006019526264842999997_);">
				<g transform="matrix(0.61315,0,0,0.61315,523.795,-10.5634)">
					<g>
						<g transform="matrix(1.01387,0,0,1.01387,535.395,206.459)">
							<path class="st2" d="M1083,943.7c0-0.4,0-0.7,0-1.1c0.1-3.3,0.2-7.4,2.5-9.8c-0.7,0-1.4,0-1.8,0.2c-1.5,0.9-7.2,8.9-12.6,21
								c-0.2,0.4-0.4,0.7-0.7,0.9l-9.1,8.4c-1.9,1.7-3.9,2.5-5.5,3c-2,0.7-2.8,1.1-3.5,2.5l-0.3,0.8c-0.6,1.5-1.1,2.9-2.6,4.5
								c0.2,0,0.4-0.1,0.6-0.1c3-0.5,6.8-1.2,7.6-2.7c1.6-2.4,3.9-5.3,8.1-7c1.1-0.4,1.4-1.1,2-3.6c0.2-0.9,0.4-1.8,0.7-2.6
								c0.1-0.3,0.3-0.6,0.5-0.8C1073.7,951.3,1078.1,947.1,1083,943.7"/>
						</g>
						<g transform="matrix(1.01387,0,0,1.01387,540.562,207.043)">
							<path class="st2" d="M1107.3,902.6c-0.2-0.5-0.3-1.1-0.2-1.7c-0.2,0.2-0.5,0.4-0.8,0.6c-0.2,0.2-0.4,0.3-0.7,0.4
								c-1.6,0.6-6,2.4-8.4-0.3c-2.8-3.1-0.1-8.2,2.7-13.6c0.6-1.2,1.2-2.3,1.6-3.1c0.4-3.2,3-5.7,5.4-7.6c-1.4-0.7-3.2-1.7-5.4-2.9
								c-6.7-1.4-12.4-4.8-17.6-9c-2.5-1.3-5.2-2.6-8-4c-0.2-0.1-0.4-0.2-0.5-0.3l-15.4-12.4c-19.8-6.8-43.6-13.7-71-13.8
								c-0.8,0.3-1.6,0.4-2.5,0.3c-0.5-0.1-1-0.2-1.5-0.5c-12.5,2.1-24.6,10.5-36.3,18.5c-6,4.2-12.2,8.5-18.4,11.8
								c-0.9,6.1-2.5,8-6.4,8.4c-1.3,0.1-2.6,0.3-5,4l-14.8,18c-0.1,0.1-0.1,0.2-0.2,0.2c-13.6,13.1-24.1,23.2-29,28.2
								c0.6,0.1,1.2,0.3,1.9,0.4c0.2-1,0.6-1.9,1.4-2.8c3.6-4,14.9-4,18.8-1.8c0.4,0.2,0.8,0.6,1,1c2.9,4.8,6.5,7.4,10.3,10.2
								c5.5,4,11.1,8.2,13.2,18.3c1.2-0.5,2.3-1.4,3.7-2.6c1.9-1.7,4.1-3.7,7.3-3.2c3,0.5,5.6,3.2,8.9,9.1c1.1,0.6,1.9,1.7,2.4,3
								c0.3,1,0.3,1.3,3.3,1.7c0.7,0.1,1.4,0.2,2.1,0.3h0.2c3.8,0,6,1.9,7.7,3.3c1.1,0.9,1.9,1.5,2.8,1.8c4.9,0.1,7.2,4,8.8,6.9
								c0.7,1.2,1.5,2.6,2.2,3.1c2.9,0.3,5.1,2.7,6.5,4.5c0.1,0,0.2,0,0.3,0c1.5-0.2,3.6-0.5,5.8,0.7c6.9,3.2,8.4,9.2,9.7,14.1
								l0.2,0.8c0.5,3.1,3.3,4.2,7.9,5.5c3,0.9,6,1.8,8,3.9c0.8,0.8,1,2,0.5,3c-0.6,1.6-1.8,2.7-3.3,3.3c-3.3,1.3-7.8-0.4-11.3-2
								c0.7,8.3,1.9,15.2,2.5,16.5c0.1,0.3,0.2,0.6,0.2,0.9l0.2,2c0,0.2,0,0.4,0,0.6c-0.4,3.1,0.6,4.9,2.2,7.6
								c10.6-5.2,21.9-17.9,23.5-32.8c0-0.3,0.1-0.6,0.2-0.9c0.7-1.5,1.8-2.4,2.6-3.2c0.4-0.3,0.9-0.8,1-1c-0.7-3.2,1.4-6.2,4.1-8.4
								c-2-3.1-2.7-7.4-2.2-10.8c0.6-4.6,3.1-7.8,6.7-8.9c1-0.4,1.8-1,2.4-3.3c2.5-5.2,5.7-6.5,8.2-7.5c1.3-0.5,2.4-0.9,3.5-1.8
								c2.7-2.3,3.9-7.9,4.9-12.4l0.4-1.8c2.3-8.2,9.9-15.7,18.2-15c10.2-7,15.6-4.5,18-2.3c1.2,1.1,2,2.5,2.5,3.9
								c1.1-1.6,1.3-3.3,1.5-5.5c0.2-1.8,0.5-3.9,1.3-6.1c0.1-0.2,0.2-0.4,0.3-0.6c1.5-2.3,3.3-4.2,5.1-6
								C1104.4,907.3,1106.4,905.3,1107.3,902.6"/>
						</g>
						<g transform="matrix(1.01387,0,0,1.01387,547.137,183.535)">
							<path class="st2" d="M1138.3,880c-0.6-4.7,0-9.4,0.7-13.9c0.4-2.7,0.7-5.3,0.8-7.9c-4.5-13.1-5.4-26.5-2.6-37
								c-0.2-0.2-0.3-0.5-0.4-0.7c-3.7-0.4-7,1.3-10.7,3.3c-2.8,1.5-5.8,3-9.1,3.7c-4.8,0.7-8.6-1-11.8-2.4c-2.7-1.2-5-2.2-7.5-1.9
								c-2.6,3.6-7.6,2.2-10.4,1.4c-0.9-0.3-1.9-0.6-2.5-0.6c-2.1-0.2-2.9,0.5-4.5,1.7c-1.6,1.2-3.5,2.7-6.9,3.3
								c-2.2,0.3-4.4,0.5-6.5,0.7l-0.4,0c-0.7,5.4-3.7,11.5-8.2,13.8c-2,1-6,2.1-10.7-1.5c-0.2-0.1-0.3-0.3-0.4-0.4
								c-0.9-1-2.8-1.2-5-1.4c-3-0.6-5.6-1.2-8.3-1.8c-7.3-1.7-14.9-3.4-22.5-3.6c-4.1,0-7.9-1.3-11.5-2.4c-4.2-1.4-8.2-2.7-12.7-2
								l-3.1,4.8c2.3,6.2,21,16,49.1,19.3c0.2,0,0.4,0.1,0.6,0.1l24,8.6c0.3,0.1,0.5,0.2,0.7,0.4c4.4,3.3,8.5,7.3,12.4,11.2
								c3.2,3.1,6.3,6.1,9.5,8.8c5,4.2,10.4,7.4,16.6,8.5c2.6,0.5,5.3,0.6,8.2,0.3c4.1-0.9,5.5,3.2,6,4.6c0.1,0.3,0.2,0.7,0.4,0.9
								c0.2,0.3,0.3,0.7,0.3,1c0.6,5.4-3,7.4-5,8.5c-0.3,0.2-0.7,0.4-1,0.6c-1.3,1.5-2,3.3-2.9,5.4c0,0.1-0.1,0.2-0.1,0.3
								c0.1,0,0.3,0,0.4,0.1c0.9,0.1,2,0.5,3.2,1.3c3.9-4.8,9.4-8.6,14.7-12.3C1130.4,896.3,1139.1,890.3,1138.3,880"/>
						</g>
						<g transform="matrix(1.01387,0,0,1.01387,549.528,166.141)">
							<path class="st2" d="M1149.5,810.2c-0.1-0.1-0.2-0.2-0.3-0.4c-1.2-0.1-2.3-0.1-3.3-0.2c-4.7-0.2-8.4-0.3-9.8-3.4
								c-1-2.2-0.1-4.6,2-7.7c-1.8-0.1-3.9,0.1-6,0.2c-6.1,0.3-12.4,0.7-16-3c-1.9-1.9-2.7-4.6-2.5-8c0.3-2.3-0.8-3.8-2.8-6.2
								c-1-1.2-2-2.4-2.8-3.8c-0.1-0.2-0.2-0.5-0.3-0.8c-0.9-3.5-1.3-6.9-1.7-10.2c-0.8-6.7-1.4-12.4-6-18c-0.2-0.3-0.4-0.6-0.5-1
								c-2-6.7-8.6-6.9-17.8-6.3c-9.2,1.3-17.7-1.7-26-4.5c-4.3-1.5-8.7-3-13.1-3.9c-6.7-1.3-13.4-1-20.4-0.8
								c-6.9,0.2-14,0.5-21.3-0.8c-2.8,0.3-5,2.5-7.5,5l-1.4,1.4c-2,1.5-3.8,2.2-5.3,2.8c-3,1.2-4.2,1.7-4.3,4.6
								c-0.4,4.8-3.3,8.2-5.9,11.3c-0.5,0.6-1,1.2-1.4,1.7l-1.1,6.5c-0.1,0.4-0.2,0.8-0.4,1.1c-4.2,6.6-8.9,25.6-10.4,41.5
								c0,0.3-0.1,0.6-0.2,0.8l-3.5,8.6c1,0.1,2.1,0.2,3.3,0.2c5.5,0.2,13.8,0.5,14.9,10.7c0.1,1,0.3,1.3,1.6,2.3
								c1,0.8,2.1,1.8,3,3.4c0.8,1.7,0.8,3.2,0.8,4.5c6.1-1,11.3,0.6,16.4,2.2c3.4,1,6.5,2,9.9,2.2c9,0.4,17.7,2.4,26.1,4.3l4.9,1.1
								c0.1,0,0.1,0,0.2,0c3,0,5.8,1.3,8.2,2.4c1.2,0.6,3.3,1.6,3.9,1.4c0,0,0.7-0.6,1.2-4.1c-0.6-9.8,7.7-10.4,13.2-10.8
								c0.6,0,1.2-0.1,1.8-0.1c5.3-3.2,11.9-6.8,20.3-4.1c5.2-4,11.1-1.6,16,0.4c2.8,1.1,5.4,2.3,7.6,2.1c2.1-0.7,4.2-1.7,6.4-2.8
								c4.9-2.4,10.5-5.1,16.8-4.2c0.9-1,1.9-2,2.9-2.9c0.4-0.4,1-0.9,1.5-1.4c-1.7-1.9-1.6-3.8-1.5-4.7c0.6-2.9,3.6-4.9,7.9-5.3
								c1.1-0.1,2.5-0.7,4-1.9C1150.4,811.4,1149.9,810.8,1149.5,810.2"/>
						</g>
						<g transform="matrix(1.01387,0,0,1.01387,568.471,156.446)">
							<path class="st2" d="M1238.7,739.1c-0.5-0.2-0.9-0.4-1.3-0.8c-4.6,1.5-9.7,3.1-13.5,5.2c-3.3,2.4-6.3,3.4-9.1,2.9
								c-0.7,1.5-1.7,2.9-3.1,3.8c-1.5,1.1-3.3,1.4-5,0.9c-1.8,0.2-3.4,0.6-5.1,1.1c-3,0.8-6.4,1.8-10.8,1.1
								c-3.5-0.9-3.9-3.9-4.2-5.3c-0.1-0.4-0.1-0.9-0.2-1.1c-1.6-1-2.3-2-2.5-3.2c-0.3-1.9,0.7-3.3,1.4-4.2c0.1-0.1,0.1-0.2,0.2-0.3
								c-0.3-0.5-0.8-0.7-2.1-1.1c-3.4-1-6.7-2.7-7.5-10.6c-0.1-0.7,0.1-1.3,0.5-1.9c1.6-2.4,1.6-5.1,1.5-8.3
								c-0.1-3.7-0.2-8.3,3.3-12.5c-0.9-0.6-2.7-1.3-3.9-1.8c-5.4-2.1-14.2-5.6-14.1-15.5v0c-0.4-0.6-1.7-2.4,0.7-9.2l0-0.5
								c-4.3-1.9-4.7-6.2-4.9-9.3c-0.3-3.4-0.6-6.4-4-8.5c-1.6,0.4-3.3,0.3-4.8,0.1c-0.7-0.1-2-0.2-2.4-0.1
								c-7.2,3.9-16.5,3.9-24.9,3.8c-1,0-2,0-3,0c-0.5,6.5-3.6,9.3-6.5,9.6c-3,0.4-5.9-1.7-7.5-5.2c-0.9,0.2-1.8,0.1-2.7-0.1
								c-2.5-0.6-4.6-2.4-5.7-5c-0.2-0.4-0.2-0.8-0.2-1.2c0.1-3-0.5-5-1.8-6.2c-2.6-2.5-8.9-1.9-14.9-1.4
								c-6.9,0.6-13.9,1.2-19.2-1.8c-1.2,0.6-2.6,1.2-3.9,1.7c-2.2,0.9-5.3,2.1-5.7,3.3c0.1-0.1,0.2,0.3,0.3,0.7
								c0.3,1.3,0.8,3.4-0.6,5.3c-0.2,0.3-0.4,0.5-0.7,0.7c-1.6,1.1-3.4,2.1-5.2,3c-3.8,1.9-7.4,3.8-8.8,7.2c-0.2,0.4-0.4,0.7-0.7,1
								c-0.9,0.9-1.9,1.6-2.9,2.3c-2.7,2.1-4,3.2-4.1,5.9c0,0.3-0.1,0.6-0.2,0.9c-1.4,3.7-4,5.1-5.9,6.2c-0.7,0.4-1.3,0.7-1.8,1.1
								c-0.1,0.8,0.1,2,0.3,3.2c0.4,2.9,1,6.6-1.5,9.6c-0.6,1-1.5,1.6-2.2,1.9c-0.4,9.6-10.2,16.2-18.9,22c-1.9,1.3-3.8,2.6-5.5,3.8
								c4.2,0.3,8.4,0.1,12.7-0.2c7.5-0.5,15.4-0.9,23.6,1.9c3.9,0.8,7.7,2.2,11.5,3.5c6.9,2.5,13.5,4.8,21.1,3.7
								c1.6,0,2.8-0.1,4-0.1c5.2-0.2,11.1-0.4,16.5,3.3c11.3,10.2,13.6,23.9,15.1,38.2c0.5,0.6,1,1.3,1.5,1.9
								c2.6,3.3,5.8,7.5,5.1,13.1c0.9,1.4,7.1,1.2,10.4,1.1c7-0.2,13.7-0.4,15.8,3.9c1.1,2.1,0.6,4.5-0.5,6.7c3,0.3,6.3,1.3,8.5,4.2
								c0.5-5.4,5.8-7.6,9.6-9.2c1.4-0.6,2.9-1.2,3.9-1.8c1.2-5.5,6.5-7.7,10.7-9.4c3.1-1.3,6-2.5,7.4-4.6c0.1-0.2,0.3-0.4,0.5-0.6
								c0.9-0.7,1.8-1.5,2.7-2.3c4.9-4.4,11.1-9.9,18.2-9.9h0.2c2.2,0.4,2.8-0.2,4.5-2.1c1.2-1.3,2.6-2.9,4.8-3.9
								c0.2-0.1,0.5-0.2,0.8-0.2c0.6-0.1,12.4-1.9,18.6,1.7c0.1-0.3,0.1-0.6,0.3-0.9c3.2-8.2,9.8-11.1,15.9-12.7
								c-0.1-0.6-0.2-1.4-0.2-2.1c-1.4-6.9,4.8-10.4,9-12.7c0.9-0.5,1.8-1,2.6-1.5c-3,0-5.5-0.4-7.5-2.1
								C1239.9,739.4,1239.3,739.3,1238.7,739.1"/>
						</g>
						<g transform="matrix(1.01387,0,0,1.01387,514.156,129.865)">
							<path class="st2" d="M983,798.2c4.9,0.5,9.8,2.7,13.4,6c1.4-2.3,2.2-5,3.1-7.7c1.5-4.7,3-9.5,7.3-13.3c0.6-1.1,0.9-2.5,1.3-4
								c0.8-3.4,1.8-7.5,6.4-9.9c0.2-0.1,0.5-0.2,0.8-0.3c3-0.6,5.4-2.7,7.9-4.8c2.7-2.4,5.8-5,10-6c3.7-3.6,8.1-6.6,12.3-9.6
								c6.6-4.6,12.8-9,16.4-14.8c-0.4-1.4-0.3-2.9,0.4-4.4c0.7-1.7,1.9-3.1,3.4-4.1c0-1.5-0.1-2.8-0.1-3.9
								c-0.3-7.2,0.7-8.3,8.1-14.1c0.7-5.8,5.3-9.1,9-11.7c3.2-5.6,8.3-8.7,13.4-10.9c-0.5-2.5-1.4-7.4-2.5-12.7
								c-0.2-0.9,0.1-1.9,0.8-2.6l2.4-2.5c0-0.1-0.1-0.2-0.1-0.2c-0.3-0.8-0.4-1.7-0.2-2.5c-1.2-1.1-3.7-1.6-6.1-2
								c-2.1-0.4-4.4-0.8-6.2-1.7c-4-2.7-7.7-4-11.7-5.5c-4.7-1.7-9.5-3.4-14.2-7.1c-0.3-0.2-0.6-0.5-0.8-0.9
								c-1.1-2-5.4-3.1-8.9-4.1c-4.8-1.3-9.3-2.5-10.7-6.3c-0.6-1.6-0.4-3.3,0.4-5.1c-0.8-0.3-1.8-0.7-2.4-0.9
								c-0.6-0.2-1.2-0.4-1.7-0.6c-3.1-1.2-4.6-2.8-5.8-4.1c-1.1-1.2-1.8-1.9-3.8-2.4c-8.9-0.5-13-1.7-14.9-4.3
								c-1.8-2.4-1.1-5.1-0.5-7.8c0.6-2.3,1.2-4.8,0.8-7.9c-8.4,4.2-15.9,4.5-23.3,4.7c-4.1,0.2-8.4,0.3-12.9,1.1
								c-7.9,1.1-14.5-2.9-20.8-6.8c-4.7-2.9-9.1-5.6-13.8-6.2c-3.6,3.7-8.7,4-12.9,4.2c-2.3,0.1-4.6,0.3-5.9,0.9
								c-6.4,6.9-13,13.8-20.4,13.4c-3.2-0.2-6.2-1.7-9.3-4.6c0.5,2.3,1.3,5.1,2.3,8.4l2.4,4.5c1.2,0.9,1.9,2.2,1.9,3.6
								c0,2.5-2.1,4.6-3.9,5.6c-2.8,3.7-4.2,9.6-3.5,14.3c1.1,3.2,0.7,7.5-1.1,10.5c-1.4,2.4-3.6,3.9-6.3,4.4
								c-1.4,1.1-3.5,8.9-3.6,12.2c2.7,1.1,4.4,3.2,4.8,5.9c0.6,3.7-1.6,7.7-5.2,10.1c-0.2,0.5,0.2,1.3,1.2,3.3
								c0.9,1.7,1.9,3.7,2.1,6c0.1,0.4,0.2,1.1,0.3,2c0.2,1.2,0.4,3.2,0.8,4.1c4.9,2.8,6.1,4.6,5.9,12.4c0.1,3.9-1.8,6.2-3.2,7.9
								c-1.5,1.8-2.2,2.7-1.1,5.7c0.9,3.1,0.7,5.7,0.6,7.9c-0.3,3.9-0.3,4.2,4.1,4.6c3.5,0.8,5.7,2.5,7.4,3.9c2.5,2,3.6,2.8,6.5,1.4
								c2.7-1.6,7.6-1.5,14.3-1.2c1.2,0.1,2.7,0.1,3.8,0.1c0.5-1.7,1.3-2.9,2.6-3.5c2.9-1.5,6.1,0.5,9.3,2.4
								c1.4,0.8,3.7,2.4,4.7,2.3c7.5-1.1,13.7,3,16.1,10.4c3.4,4.6,6.6,9.6,5.6,16.5c-0.8,4,0.5,7,2,10.5c1.3,3,2.8,6.3,3,10.4
								c0,0.9-0.1,1.9-0.2,2.9c-0.1,1-0.3,2.8-0.1,3.7c2.1,0.4,5.5-0.1,6.9-1.5c2.7-2.4,6.2-3.7,10.1-3.7
								C981.7,798.1,982.3,798.1,983,798.2"/>
						</g>
						<g transform="matrix(1.01387,0,0,1.01387,482.461,80.0314)">
							<path class="st2" d="M833.7,511.4c0.1-0.4,0.3-0.8,0.6-1.1c10.5-11.5,13.7-21.1,9.9-29.3c-2.9-3.4-4.8-9.5-4.5-14.8
								c0.2-3.9,1.6-6.9,3.9-8.9c-0.2-0.4-0.6-1-0.9-1.4c-0.1-0.2-0.3-0.5-0.4-0.8c-0.2-0.6-0.4-0.8-0.4-0.8c-0.3-0.1-1.4,0-2.1,0.1
								c-1.4,0.2-3.1,0.5-4.9,0.1c-0.4-0.1-0.9-0.3-1.2-0.6c-5.7-4.6-12-3.9-19.3-3c-4.1,0.5-8.3,1-12.6,0.6
								c-1.7,1.1-3.2,0.8-3.8,0.5c-4.5-1.7-5.7-10.6-6.1-43.2c-0.1-5.7-0.1-12.2-0.4-13.8c-2-3.8-0.7-7.9,0.4-11.3
								c0.2-0.6,0.4-1.1,0.5-1.7c-0.3-0.2-0.6-0.4-0.9-0.7c-0.3-0.2-0.5-0.3-0.8-0.6c-0.2,0-0.5-0.1-0.7-0.1
								c-0.6,1.6-1.7,3.5-3.9,4.1c-3.8,1-6.9-2.7-9.7-6c-0.7-0.8-1.4-1.6-2-2.2c-0.6-0.4-1.7-0.9-2.9-1.5c-3.1-1.6-6.9-3.6-8.7-7.6
								l-0.2,0c-5.3-1-7.5-1.7-9.8-7.8c-1.3-0.8-2.6-1.8-3.8-2.7c-0.5-0.4-1.1-0.8-1.6-1.2c-1.3,0-2.8,0.1-4.3,0.3
								c-1.6,0.2-3.1,0.3-5,0.4c-1,1.7-2.8,2.8-4.1,3.6c-0.6,0.4-1.7,1-1.9,1.4c-0.7,0.9-0.9,1.4-1.3,2c-0.5,1-1.2,2.3-2.8,3.7
								c-0.2,0.2-0.5,0.4-0.7,0.5c-4.9,2.2-6.6,6-8.9,10.8l-1.2,2.5c-0.1,0.3-0.3,0.6-0.6,0.8c-3.4,3.3-8.3,4.2-13,4.9
								c-3.4,0.6-6.6,1.1-8.6,2.5l-0.5,0.8c-2.7,4.5-6.9,11.2-12.3,11.4c-1.2,0.1-2.8-0.3-4.5-1.5c-1,0.9-2.2,1.8-3.5,2.5
								c1,0.3,1.9,0.9,2.8,1.7c3.5,3.6,4.7,11.6,2.6,15.9c-0.2,2-0.5,4-0.9,5.9c-0.8,4.2-1.6,8.2,0.3,11.9l0.3,0.8
								c1.4,3.7,3.2,8.7,1.2,13.3c-1.5,9.3,5.7,15.3,13.3,21.6c4.9,4.1,10,8.3,12.7,13.6c1.4,2.6,4.4,2.4,10.5,1.6
								c6.4-0.9,14.3-2,18.3,5.5c1,1.2,1.6,1.6,4.2,1.3c7.9-1.4,11.9,3.3,15.1,7c0.5,0.6,1,1.1,1.5,1.7c2.6,1.6,5.9,2.4,9.3,3.2
								c3.3,0.8,6.8,1.7,10,3.3c2.2,1.2,3.8,3,5.4,4.8c1.5,1.7,2.9,3.2,4.4,3.9l12,0c0.2,0,0.3,0,0.5,0c12.6,2.1,21.8,3.5,24.5,3.9
								c1.6-1,5.5-3.4,9.7-6.3L833.7,511.4z"/>
						</g>
						<g transform="matrix(1.01387,0,0,1.01387,444.662,79.4502)">
							<path class="st2" d="M655.7,418c2.2-1.4,4.5-2.9,6.9-4.2c-39.8-20.6-82.5-41.8-125.2-58.3l-27.3-5.2c-0.1,0-0.2-0.1-0.3-0.1
								c-31-9.9-52.6-14.3-56.2-13.6c-0.1,0-0.1,0.1-0.2,0.1l-0.6,0.3c0.6,1,2,2.6,2.8,3.6c2.3,2.7,4.7,5.4,4.5,8.6
								c0,0.5-0.2,1.1-0.4,1.7c3.8,1.8,5.2,6.3,6.1,9.6c0.5,1.6,1,3.3,1.6,4.3c1.1,2.1,3.3,4.5,5.5,6.8c4.5,4.8,9.1,9.7,8.6,15.1
								c-0.1,1.4-0.6,2.8-1.4,4c3.6,0,7.4,1,11.1,3c6.7,3.6,11.7,9.7,13,16c0.1,1.2,0.3,1.5,0.3,1.5c0.3,0.2,1.6,0.2,2.4,0.2
								c1.4,0,3,0,4.6,0.5c11.4,5.1,18.3-1.1,26.3-8.2c4.9-4.4,10.1-9,16.3-10.4c0.9-0.2,1.8,0,2.5,0.6c0.7,0.6,1.1,1.4,1.1,2.3
								c-0.2,5.1-1.2,10.8-2.3,16.8c-2,11-4,22.4-1.4,31.9c0.5,0.5,0.7,0.7,0.8,0.7c0,0,0.4-0.1,1.5-0.9c6.5-2.8,13.1-3.8,19.7-3.8
								c11.1,0,22.1,3,32.2,5.8c3.9,0,6.7-3.7,9.7-7.6c3.8-4.9,9-11.7,18.1-6.5c0.3,0.2,0.5,0.3,0.6,0.3c0.3-0.5,0.6-1.3,0.8-1.8
								c0.8-2.1,1.8-4.7,4.2-6.2c0.2-0.2,0.5-0.3,0.8-0.3C647.2,423.5,651.3,420.8,655.7,418"/>
						</g>
						<g transform="matrix(1.01387,0,0,1.01387,464.072,24.392)">
							<path class="st2" d="M747.1,71.6c0.3,0.1,0.7,0.1,0.8,0.2c3.4-2.8,7.1-3.2,10-1.1c3.1,2.2,4.7,6.7,4.3,11c6.8,2,8.4,8,9.7,13
								l0.2,0.8l2.4,7.5c4.4,8.5,9.4,20.3,11.3,26.5c0.1,0.2,0.1,0.4,0.1,0.7l0.2,4.6c0.2,2.9,0.8,5.8,1.4,8.8
								c0.9,4.2,1.8,8.5,1.5,13c-0.5,2.4,0.7,5.9,1.7,9c1.6,5,3.2,9.6,0.8,13c-0.4,0.6-0.8,1-1.4,1.4c5.1,5.7,11,11.1,17.5,13.6
								c0.1-1.4,0-3,0-4.6c-0.2-6-0.5-13.4,6.7-17.3c12.2-11,20.7-2.1,27.6,5.1l0.3,0.3c3.4-0.3,3.6-1.3,4.3-4.6
								c0.4-2.2,1-4.9,2.7-7.7c0.3-0.5,0.7-0.9,1.3-1.1c3.2-1.5,4.4-4.7,5.8-8.5c1.6-4.3,3.3-9.2,8.6-11.6c0.4-0.2,0.8-0.3,1.2-0.3
								h0c4.3,0,8.4-0.9,12.7-1.8c4.7-1,9.6-2,14.8-1.9c3,0.6,3.6,0.3,3.6,0.3c0.2-0.5,0-3-0.1-4.7l-0.1-0.9
								c-1.5-3.9-3.9-12.5,0.9-19c0-0.6-0.2-0.8-0.2-0.8c-0.3-0.2-1.6-0.3-2.5-0.4c-1.2-0.1-2.4-0.2-3.7-0.5
								c-0.3-0.1-0.6-0.2-0.9-0.4c-6.4-4.2-11.5-9-17.6-16.8c-3.2-3.2-4-7.6-4.6-11.5c-0.6-3.5-1.1-6.5-3.3-8.5
								c-3.5-2.3-3.6-17.2-2.7-21.1c0.6-2.7,1.8-4.2,3.7-4.5c0.1,0,0.2,0,0.3,0c1.1-6.3,3.9-12.8,8.1-18.2c0.2-0.3,0.5-0.5,0.8-0.7
								c2.3-1.4,5-4.3,5-6.1c0-0.2,0-0.6-0.8-1.2c-0.2-0.1-0.3-0.3-0.5-0.4c-2.6-2.9-4.1-6.1-5.4-8.9c-2.3-5.1-3.6-7.9-10.1-7.9
								c-0.1,0-0.2,0-0.4,0c-1.3,0-2.4-0.9-2.8-2.1c0,0-0.7-4.1,1.6-5.5c0.3-0.2,0.7-0.3,1-0.4c0.9-0.4,1.9-2.3,2-4.5
								c0.1-1.7-0.4-3.3-1.2-3.5c-1.1-0.4-1.9-1.4-1.9-2.6c-0.1-1.8-1.8-4.4-3.1-4.8c-0.1,0-0.6-0.2-1.4,1c-0.5,0.7-1.3,1.1-2.1,1.2
								c-0.5,0-1.1,0.1-1.7,0.2c-3.6,0.5-8.2,1-10.7-1.1c-0.4-0.3-0.7-0.7-0.8-1.2c-0.2,0-0.3,0.1-0.5,0.1l-0.1,0.1
								c0.2-0.2,0.6,1.3,4.6,5c0.4,0.4,0.7,0.8,0.8,1.3c0.9,3.2-1.8,5.2-3.8,6.6c0.5,0.6,0.9,1.4,1,2.2c0.3,1.8-0.6,3.6-2.3,4.7
								c-0.6,0.4-0.7,0.6-1.1,1.4c-0.6,1.4-1.6,3.6-5.1,4.8c-2,0.4-3.7,0.6-5.3,0.8c-3.1,0.4-6.1,0.7-8.6,1.7c0,0.1-0.1,0.2-0.1,0.3
								c-0.5,1.1-1.2,2.7-3.4,4c-1.6,1.2-3.2,1.4-4.3,1.5c0,1.8-0.7,3.1-1.4,3.9c-2.9,3.3-8.9,2.7-13.6,2.2l-1.1-0.1
								c-10-0.1-12.3,0.6-12.8,1c0.1-0.1,0.2,0.5,0.3,0.9c0.3,2.6,0.7,6.9-4.8,11.6c-0.2,0.2-0.4,0.3-0.6,0.4
								c-3.1,1.5-6.3,1.8-9.4,0.8c-3.1-1.1-5.9-3.4-7.8-6.6c-7.2-0.6-14.7-2.2-22.7-4.9c-2.6-0.1-4.3-0.7-5.6-1.6
								c0.2,0.7,0.2,1.5,0.2,2.4c0.1,1.4,0.8,2.6,1.6,4c1.5,2.6,3.4,5.8,1.2,11.2c-0.8,2.3-2.4,3.9-3.8,5.1
								c-0.8,0.7-1.2,1.2-1.4,1.5c3.5,3.1,3.2,8.6,3,13.1c-0.1,1.8-0.2,3.7,0,5.1c2.6,0.3,6.3,1.1,8.9,2.7
								C745.4,71.2,746.4,71.5,747.1,71.6"/>
						</g>
						<g transform="matrix(1.01387,0,0,1.01387,517.685,25.1409)">
							<path class="st2" d="M999.6,99.1c4.9,0.8,9.3,3.2,13.5,7.6c0.1,0,0.2,0,0.2,0c1.4,0,3.3,0,5.2,1.3c0.2,0.1,0.4,0.3,0.5,0.5
								c2.3,2.5,3.1,5.1,3.8,7.4c0.6,2.1,1.1,3.8,2.7,5.3c0.3,0.3,0.5,0.6,0.6,0.9c0.5,1.1,0.5,1.1,1.5,1.2c1.2,0.2,3.1,0.4,4.7,2.4
								c0.2,0.3,0.4,0.5,0.5,0.8c1.5,4.2,1.4,9.8,1.4,14.3c0,0.6,0,1.3,0,1.8c2,2.2,3,5.3,4.1,8.3c0.9,2.7,1.9,5.5,3.3,6.8
								c7.1,1.8,11.6,8.2,11.2,15.7c-0.3,1.9,0.3,3.5,1.6,5.1c2.9,3.7,8.9,6.4,13.3,7.1c0.7-1.2,1.8-5.3,2.5-7.9
								c1.4-5.2,2.6-9.4,5.1-11.2c4.1-5.7,10.6-9.5,17.1-12.7l0.7-1.7c3.1-7.6,6.1-14.1,10.3-16.5c4.3-9.2,10.5-12.4,16-15.3
								c3.2-1.7,6.2-3.2,8.7-5.8c0.7-1.8,0.7-7-1.1-10.5c-0.8-1.6-1.8-2.5-2.9-2.6c0,0.1-0.5,0.2-1.1,0.4c-2.2,0.7-4.4,1.1-7.7-1.2
								c-1.8-1.4-2.5-3.1-3-4.5c-0.4-1.1-0.7-1.7-1.1-1.9c-0.3-0.1-0.6-0.3-0.9-0.6c-0.9-0.8-1.8-1.5-2.6-2.2
								c-2.2-1.8-4.6-3.7-6.3-6.8c-0.2-0.5-0.4-1-0.3-1.5l0.1-2.3c0.3-4.9,0.3-4.9-4.1-8.9c-0.2-0.2-0.3-0.3-0.5-0.5
								c-1.7-2.5-1.8-5.1-1.8-7.3c-0.1-2.9-0.2-3.4-1.9-4.1c-0.5-0.2-0.9-0.5-1.2-0.9c-3.4-4.3-2.4-9.9-1.5-14.9
								c0.4-2,0.7-3.8,0.7-5.5c-4.3-2.1-4.4-7.9-4.2-11.4c-1.8-1-2.8-2.4-3.6-3.6c-0.4-0.6-0.8-1.1-1.1-1.4
								c-3.3,4.9-6.9,9.6-10.3,14.3c-9.9,13.4-19.2,26-24.8,41.2c0.1,1.5-0.5,3.4-2.9,5.6c-4.2,3.9-13.7,7.9-19.7,5.8
								c-1.8-0.6-3.1-1.8-4-3.3c-3.2,0.3-6.3-0.6-8.8-1.3c-0.8-0.2-1.6-0.5-2.3-0.6l-6.7,7.1c-0.8,0.9-2.1,1.2-3.2,0.7
								c-6.9-2.8-12.3-2.7-14.5-1.4c-0.6,0.3-0.8,0.7-0.9,1l0,0.2C989.7,91.9,995.6,94.6,999.6,99.1"/>
						</g>
						<g transform="matrix(1.01387,0,0,1.01387,419.369,32.6013)">
							<path class="st2" d="M536.6,387.4l27.8,5.1c0.2,0,0.4,0.1,0.6,0.2c40.7,16.5,83.7,34.8,122.5,57.4c2.6-2.5,6-2.6,8.6-2.7
								c0.6,0,1.2,0,1.8-0.1c1.5-1.1,5.8-3.8,19.5-11.6c1.2-0.7,2.8-0.4,3.7,0.7l4.1,5.1c1.8-0.8,3.6-0.7,4.9-0.7c0.7,0,1.3,0,1.8,0
								c0.4-0.3,1-0.8,1.6-1.3c3.2-2.6,6.8-5.6,10.2-4.1c0.8,0.3,1.4,0.9,1.9,1.6c0.6-0.6,1.1-1.3,1.2-1.9c2.5-8.2,10.6-9.8,17-11
								c2.4-0.5,4.7-0.9,6.6-1.6c1.7-0.4,2-0.9,2.9-3.6c0.8-2.4,1.7-5.4,4.8-7.3c2.6-2,4.6-4.2,6.6-6.4c2.1-2.4,4.3-4.8,7.4-7
								c0.3-1.3,0.9-2.1,1.5-2.7c2.2-2.2,5.9-2,8.5-1.9l0.8,0c9.9-2.7,18.2,3.4,22.2,10.8c2.1,0.1,4.4,0.6,6.3,2.1
								c1.3,1,2.3,2.4,2.7,3.9c1.5,1.5,3.4,2.6,5.5,3.9c2.3,1.4,4.8,2.9,6.9,5.1c0.3-0.2,0.6-0.4,0.9-0.5c3.7-1.8,9-0.5,11.9,1.1
								c33.8-0.3,68.2-1.2,97.8-2c1.3-4.6,1.4-9.4,1.6-14.4c0.2-7.9,0.5-16.1,5.3-23.6c-0.4-2.4,0.6-4.4,1.3-5.9
								c0.2-0.5,0.5-1.1,0.7-1.6c0.5-2-0.5-3.1-3.1-5.5c-2.6-2.4-5.8-5.3-5.4-10.3c1.7-12.1,8.5-23,15.1-33.6
								c2.8-4.5,5.5-8.8,7.8-13.1c12.8-32.8,20-46.4,20.4-47c7.8-14.5,19.8-35.9,27.2-47.7c-5.8,2.7-12.2,4.2-16.1-0.5
								c-0.5-0.5-0.7-1.2-0.7-2c0-0.4,0-0.7,0-0.8c-0.1,0-0.3,0-0.6-0.1c-5.7-0.3-9.2-2.7-10.1-7.2c-1.8-2.9-3.5-3.4-7.1-4.4
								l-1.1-0.3c-21.6-0.2-30.1-5.9-36.5-25c-2.7,0.1-4.8-0.9-6-1.8c-4.1-3.2-4.9-9.6-4.9-14.3c0.1-2.6-1-5.3-2.1-8.1
								c-1.1-2.9-2.4-6.1-2.5-9.5c-4.5-0.1-9,0.8-13.6,1.7c-4.4,0.9-8.9,1.8-13.6,1.8c-1.6,1.2-2.4,3.8-3.2,6.6
								c-1.2,4.1-2.6,8.7-7.1,10.7c-1.4,1-1.9,3.3-2.5,6c-1,4.3-2.7,10.9-11.7,10.5c-5,2.4-9.1-2.5-11.9-5.8
								c-1.9-2.3-4.2-5.1-5.8-4.7c-9.2,3.1-9.1,7.2-8.8,13.5c0.2,4.4,0.4,9.5-3.4,14.1c-0.5,0.5-1.1,0.9-1.8,1
								c-7.1,1.1-24.8-11.7-30.7-19.4c-2.8-3.6-3.6-6.7-2.5-9.2c0.7-1.5,2-2.6,3.9-3.2c-2.4-10.2-6.3-29.9-5.8-46.8
								c-3.5-2.5-4.1-5.4-4.6-8c-0.1-0.6-0.3-1.3-0.5-2c-0.6-1-1.2-2-1.8-3c-2.5-4.2-5.1-8.6-6.8-13.7c-0.9-1.7-1.3-3.5-1.6-5
								c-0.4-2.2-0.5-2.8-4.2-3.4c-0.8,0.4-1.7,0.4-2.5,0.1c-0.5-0.2-2-0.5-3-0.4c-0.7,0-1.3-0.2-1.8-0.5c-1.1,0.6-2.8,1.7-5,3.1
								c-0.4,0.3-1,0.5-1.5,0.5l-3.5,0.1c-0.5-0.1-0.9-0.1-1.1-0.1c0,0.5,0,1.3,0.1,1.9c0.2,3.4,0.6,10.4-8.2,12.4
								c-1.3,0.4-2.4,1.2-3.6,2.1c-1.9,1.4-4.2,3.1-8.2,3.4c-1,0.2-1.3,0.5-2.1,1.4c-0.8,0.9-1.8,2.1-3.8,3.1
								c-2,1.4-4.3,1.1-6.4,1.2c0,2.2-1.7,4.5-3.4,5.9c-1.8,1.4-3.8,2.1-5.8,1.9c0,0.1,0,0.1,0,0.2c-0.2,2-0.5,6.2-6.9,6.9
								c-2.9,0.1-4.9-0.6-6.3-2c-1.9-2-1.7-4.6-1.6-6.4c0-0.2,0-0.4,0-0.7c-0.6,0.1-1.7,0.3-3.5,1c-0.4,0.2-0.8,0.7-1.5,1.5
								c-1,1.2-2.3,2.9-5.2,3.9c-4.2,1.6-8.9,1.4-13.1-0.5c-3.9-1.8-7-4.9-8.8-8.8l-0.6-0.2c-6.5-2.4-15.4-5.8-16.2-11.9
								c-0.3-2.5,0.7-4.8,3.1-7.1c-1.2-1.5-2.7-3.1-4.2-4.7c-1.8-1.9-3.6-3.9-5.1-5.8c-3.8,4.1-11.2,10.8-17.2,9.3
								c-0.8-0.2-1.7-0.6-2.5-1.2c-0.2,0.2-0.4,0.5-0.7,0.7c-4.1,3.7-10.9,3.1-17.6,2.4c-4.4-0.4-8.9-0.8-11.6,0.1
								c-0.2,0.1-0.4,0.1-0.7,0.2l-0.9,0.1c-3.7,0.4-8.7,1-12.2-2.3c-2.6-0.3-4.5,0.3-5.7,1.8c-2.4,2.9-2.3,9-0.9,13.8
								c1.3,0.3,3,0.1,4.9-0.1c4.3-0.5,10.2-1.2,13.8,5.7c2.1,3.4,3.9,10.7,0.6,15.3c-0.7,1.4-1.9,2.4-3.5,2.9
								c-3.5,1.1-8.2-0.7-10.9-2.2c-5.8,0.1-9.6,1.2-11.4,3.3c-2.6,2.9-2.5,8.6-1.5,16.2c0.3,2.3,3,4.2,5.8,6.3
								c4.4,3.2,10.4,7.5,8.6,15.6c0,0.2-0.1,0.4-0.2,0.6c-0.4,0.9-0.8,1.6-1.2,2.1c0.5,0.6,1.3,1.4,2.2,2.3
								c0.2,0.2,0.5,0.5,0.6,0.8c8.9,16.7,2.9,38.8-2.8,60.1c-3.5,13.1-6.8,25.4-6.9,36.3c-0.2,5.2-2,9.5-5.2,11.9
								c-2,1.5-5.4,3.1-10.5,1.9c-0.8-0.2-1.5-0.7-1.9-1.4c-1.4-2.6-6.4-4.6-10.1-4.1c-4.4,5.4-8.8,10.2-18.9,8
								c-10.2-0.5-19.4,5.1-28.3,10.6c-4.4,2.7-9,5.5-13.7,7.4c-0.5,2.7-2.8,4.5-4.3,5.7c-0.6,0.5-1.3,1-1.6,1.4
								c-0.7,1.4-1,4.6-1.4,7.4l-0.2,2.1c-0.7,3.6-2.5,5.9-4,8c-2,2.7-2.9,4-2.2,6.2c2.5,3,2.4,9.2,2,12.8c-0.1,0.6-0.3,1.1-0.6,1.5
								c-2.6,3.2-5.8,5.3-8.9,7.2c-3.3,2.1-6.5,4.1-8.6,7.4C485.4,369.8,505.4,377.3,536.6,387.4"/>
						</g>
						<g transform="matrix(1.01387,0,0,1.01387,560.884,65.5033)">
							<path class="st2" d="M1203,154.8c-0.5-0.6-0.8-1.4-0.9-2.3c0-0.4,0-0.7,0-1.1c-2.1-1.6-4.8-3.3-7.1-4.7l-0.1-0.1
								c-4.1,0.3-8.2-1.3-11.1-4.2c-7.6-1.2-18-2.6-27.1-3.1c-4.2,3-7.9,6.6-11.5,10.2c-5.6,5.6-11.4,11.4-19.4,14.8
								c-3.1,1.1-4.8,3.6-6.7,6.3c-2.5,3.6-5.6,8.1-12,8.1c-0.2,0-0.5,0-0.8-0.1c-1.6-0.5-2.6-1.3-3.1-2.7c-0.8,0.2-1.6,0.4-2.3,0.5
								c-0.7,0.9-1.4,1.8-2,2.6c-2,2.8-3.8,5.2-6.6,5c-2.6-0.2-4.5-2.4-6.8-6.4c-1.6,0.6-3.2,1.4-4.9,2.2c-1.4,0.7-2.8,1.4-4.3,2
								c-0.4,0.2-0.7,0.2-1.2,0.2c-8.1,0-16.8-7.6-17.5-15.4c-0.1-1.4-1-2.7-2-4.2c-1.5-2.3-3.5-5.3-2.4-9.2c-0.4-0.1-1-0.2-1.8-0.2
								c-2.1,0-3.8,0.9-4.2,1.3c-2.2,3.7-6.1,4.1-8.9,4.1c-0.9,0.2-1.8,1.5-3.2,3.7c-1.8,2.9-4.3,7-9.7,7.5
								c-4,1.2-12.3-0.2-14.5-4.9c-0.8-1.8-1.4-5.4,4.2-9.1c0.2-0.1,0.4-0.2,0.6-0.3l1.8-0.7c-1.4-2-6.1-6.2-14.8-10.7
								c-0.8-0.4-1.4-1.2-1.5-2.2l-1.8-13.1c-7.1-3.1-12.1-9.8-14.7-20c-3.2-3.1-2.9-7.7-2.7-11.5c0.1-1.7,0.2-3.4,0-4.9
								c-6.9-2.3-9.6-9.9-11.6-15.5c-0.1-0.2-0.1-0.3-0.2-0.5c-3.7-0.3-6.2-2.6-8-4.4c-1.2-1.2-2.2-2.1-3.2-2.5
								c-0.9,0.9-1.9,1.1-2.5,1.2c-3,0.3-5-2.4-6.8-5.4c-4.4-3.4-7.7-4-10.4-4.5c-8-1.6-8.5-5.5-6.4-19.8c-0.6-1-1.1-2.2-1-3.5
								c0-0.3,0.1-0.5,0.1-0.8c-2.9-2.4-7.1-1.1-14.3,1.8c-5.8,2.4-12.2,5-17.5,2.3c-0.3,0.4-0.7,0.8-1,1.2
								c3.8,6.1,4.6,10.3,2.6,13.4c-3.3,5.3-12.3,4.2-23.7,2.7c-9.9-1.3-22.3-2.8-25.1,1.9c-1.8,5.3-8,5-12.1,4.8
								c-1.1,0-2.2-0.1-3.2,0c-2.3,3.6-7.6,6-12.1,5.3h0c-2.3,0-2.6,0.4-3.5,2.1c-1.6,2.9-3.7,5.8-10.2,7.3
								c-0.1,1.7-0.5,3.6-2.1,4.8c-0.1,0.1-0.3,0.2-0.5,0.3c0.2,1.6,0.5,3.3,0.9,5.1c1.1,5.2,2.4,11-0.7,16.8
								c-0.3,2.3,0.9,5.3,2,8.3c1,2.6,2.1,5.4,2.4,8c0.1,0.8,0.2,1.9,0.2,3c0.1,1.4,0.3,4.2,0.7,5.9c2.5-0.1,4.8,0.6,6.6,2
								c2.3,1.8,3.7,4.7,4,8.1c0.4,1.3,1.1,2.2,1.9,3.3c1.1,1.4,2.4,3.1,2.8,5.7c3.4,5,9.6,5.6,16.8,6.2c8.7,0.7,18.5,1.6,22.5,12.1
								c0.2,0,0.5,0.1,0.7,0.1c3,0.5,7.7,1.3,9.6,5.8c2.6-0.4,5-1.9,7.6-3.4c3-1.8,6.2-3.7,9.9-4.1c0.4,0,0.9,0,1.3,0.2
								c2.7,1.1,4.3,3.1,4.5,5.6c0.2,3.7-2.9,7.4-6,9.3c-18.2,25.4-31.2,55.3-43.7,84.3c-8.1,18.7-16.5,38.1-26.3,56.1
								c0,0.3,0,0.5,0,0.7c0,0.4,0,0.9,0,1.1c0,0,0.2,0.3,1.1,0.8c5.3,3.2,8.7,10.6,6.8,17.1c4.1,2.6,4.5,7.2,4.8,10.5
								c0.1,1.1,0.2,2.2,0.4,3.2c7.2,10.4,10.6,20.3,10.2,30.3c6.3,2.9,11.5,8.8,14.4,13.6c0.3,0.5,0.5,0.9,0.8,1.4
								c0.2,0.5,0.6,1.2,0.8,1.3c4.8-0.8,7.6,1.8,9.5,3.5c1.9,1.7,2.5,2.3,4.6,1.4c0.4-0.2,0.7-0.2,1.1-0.2h0.1
								c58.7,1.4,121.1,5,196.1,11.3c0.3-4.7,1.3-9.6,4.7-13.4c0.8-1.3,1.3-2.5,1.8-3.9c1.4-3.5,3-7.5,9.3-10.2c2.4-1,2.4-1,2.9-2.9
								c0.6-4.9,3.6-9.2,6.3-13c1.5-2,2.8-4,3.8-5.9c1.4-3.9-0.1-6.4-1.9-9.6c-2.1-3.7-4.8-8.3-1.4-15c0.2-0.3,0.4-0.6,0.7-0.9
								c4.5-4,4.4-4.5,3.2-10.6c-0.1-0.5-0.1-0.9,0.1-1.4c2.1-7.3,8.8-10.7,15-11.1c0.7-0.6,1.6-1,2.6-1.1c0.5-0.1,1.1,0,1.6,0.1
								c0.5-0.9,0.8-2.2,1.2-3.6c0.8-2.8,1.6-6,4.2-8.3c0.5-0.6,1.2-1.2,1.8-1.8c1.2-1.1,1.8-1.6,2.3-3.2c0.5-1.7,0.6-2.9,0.2-4.3
								c-0.1-0.4-0.1-0.7-0.1-1.1c0.2-2.1,1.2-3.8,2.1-5.1c-1.3-0.5-3.1-0.9-4.8-1.3c-4-0.9-8.5-1.9-11-5.3
								c-0.1-0.2-0.3-0.4-0.4-0.6c-2.2-5.6,3.2-8.4,5.8-9.7c0.6-0.3,1.4-0.7,1.8-1c2.4-4.8,6.6-7.8,10.2-10.4
								c2.9-2.1,5.7-4.1,7.5-6.9c2-4,6-5.1,9.2-6c3.8-1,5.6-1.6,6.3-4.8c0.1-0.4,0.3-0.9,0.6-1.2c3.6-4.3,6.2-9.2,8.8-14
								c1.9-3.7,3.9-7.4,6.4-10.9c1.6-1.6,2.4-3.5,3.3-5.4c1.4-3,3-6.4,6.5-8.6c0.8-1.9,0.7-3.7,0.5-6.1l-0.1-1.7
								c0-0.6,0.1-1.1,0.4-1.6c4-7.1,6.9-13.9,9.9-21.9c0,0,0,0,0,0c0.7-1.7,1.3-3.4,1.7-5.2c0.5-2.1,0.8-4.2,1.1-6.3
								c0.3-1.1,0.4-2.1,0.2-3.2C1202.6,159.4,1202.8,156.9,1203,154.8L1203,154.8z"/>
						</g>
						<g transform="matrix(1.01387,0,0,1.01387,584.666,79.8764)">
							<path class="st2" d="M1315,191.5c0-0.4,0-0.8,0.1-1.2c-1.9-0.4-4.9-0.1-7,0c-2.8,0.2-5.4,0.4-7.5,0
								c-5.5,0.5-10.2-2.2-14.3-4.6c-4-2.3-7.5-4.3-11.2-3.5c-2.1,0.6-4.3,1-6.5,1.4c-5.8,1-9.4,1.8-11.6,5.9
								c-0.1,0.1-0.2,0.2-0.3,0.3c-1.1,0-2.2,0-3.3-0.1c-0.1,0-0.3-0.1-0.4-0.1c-1.1-1.2-2.3-2.2-3.9-2.8c-0.5-0.2-1-0.3-1.4-0.5
								c-0.9-0.5-1.9-0.9-2.7-1.4c-0.9-0.5-1.7-1.1-2.6-1.7c-0.4-0.3-0.8-0.7-1.2-1c-0.8-0.7-1.5-1.5-2.2-2.2
								c-0.3-0.4-0.6-0.7-0.9-1.1c0,0,0,0,0,0c-0.8-1.3-1.6-2.6-2.3-4c0.1-0.1,0.2-0.2,0.3-0.2c0.1-0.9-1.7-3.2-2.6-4.5
								c-1.8-2.4-3.7-4.8-3.8-7.6c-0.1-0.9-0.4-1.3-2.1-2.6c-0.5-0.4-1-0.8-1.5-1.2c-1.3-1.2-2.1-2.3-2.8-3.2
								c-1.1-1.5-1.5-2.1-3.5-2.5c-7.2-0.5-10.6-3.6-12-6.4c-4-2-10.3-3.6-18.6-4.5c-0.2,3.1-0.9,7-2.8,10.2
								c-0.4,0.4-0.7,0.8-0.9,1.3c-0.3,0.7-0.6,1.4-0.9,2.1c-0.4,1.5-0.4,3.1,0,4.6c0,0.1,0,0.3,0.1,0.4c0.1,1.1,0.2,2.1,0.2,3.2
								c0,0-0.1,0.1-0.1,0.1c-0.4,0.6-0.6,1.6-0.8,2.6c-0.5,1.8-1,4.1-2.8,5.9c-0.9,1-1.3,2.8-1.7,4.8c-0.7,2.9-1.4,6.2-4.5,8.6
								c-0.3,0.3-0.2,0.8-0.1,1.2c0.2,0.9,0.5,2.2,0.3,3.7c0.1,4.7-2.8,7.8-5.1,10.4c-1.5,1.6-2.8,3.1-3.3,4.7
								c-0.5,3.5-3.3,6.8-5.9,8.8c-1.5,6.3-5.1,11.3-8.5,16.1c-1.5,2.1-3,4.2-4.4,6.4c-2.2,5.5-7.9,10.8-14.7,10.8h-0.1
								c-2.5,3.7-6,6.4-9.4,8.9c-2.1,1.6-4.1,3.1-5.8,4.8c0.5,0,1,0,1.6,0c3,0,6.6,0.2,9.5,2.9c0.9,0.1,1.8,0.2,2.8,0.4
								c5,0.6,11.8,1.4,14.2,9.2c2.6,11.5,5.2,39.1-2.7,52.6c2.1,1.9,3.3,4.2,4.4,6.3c1.2,2.2,2.1,4.1,4,5.3
								c1.9,1.2,3.1,3.7,4.6,6.7c0.3,0.6,0.7,1.5,1.1,2.3c0,0,0,0.1,0,0.1c2.7,5.4,4.9,10.9,6.6,16.6c0.9,2.9,1.6,5.8,2.3,8.7
								c0.2,1,0.5,2.1,0.8,3.1c-0.4,2.6-1.1,5.2-2.5,7.4c3.6,2.1,6.5,6,6.6,10.4c0.1,0.6,0.3,0.8,0.3,0.8c4.3,0.6,6.1,3.4,6.8,10.5
								c1.9,2,2.8,4.6,3.5,6.9c0.4,1.4,0.9,2.7,1.5,3.6c0.5,0.1,1,0.2,1.5,0.2c1.3,0.2,2.7,0.4,4.2,0.8c0.1-1.9,0.5-3.6,0.9-5.3
								c0.3-1.4,0.6-2.7,0.7-3.9c-2.4-7.6-5.5-17.7-1.1-26.4c0.2-5.1,2.5-9.1,4.7-13c1.4-2.4,2.8-4.8,3.6-7.5
								c0.3-1.6,0.6-3.6,0.8-5.7c0.9-7.7,2.1-17.2,11.8-20.6c0.2-0.1,0.4-0.1,0.6-0.1c15.5-1.6,26.1-12.7,36.4-23.3l0.8-0.9
								c0.3-0.3,0.6-0.5,0.9-0.6c7.1-3.2,12.8-1.6,17.8-0.1c5,1.5,8.9,2.6,14-0.9c0.3-0.2,0.6-0.3,1-0.4c2.5-0.6,2.5-0.7,2.5-5.2
								c0-0.5,0-1,0-1.5l-0.9-1.4c-1.2-1.3-1.9-3.6-2.3-6.3c-3.5-8.6-0.9-16.2,1.8-23.6c0.4-1.1,0.8-2.3,1.2-3.4l-1.8-13.8
								c0.1-2.8-0.5-4.4-1.4-6.4c-0.5-1.2-1-2.5-1.4-4c-0.1-0.3-0.1-0.6-0.1-0.9c0.7-12.8,9.2-24.5,14.2-30.3c0.3-0.3,0.6-0.6,1-0.7
								c8.6-4,16.6-10.4,21.1-16.6C1315.2,192.8,1315,192.1,1315,191.5"/>
						</g>
						<g transform="matrix(1.01387,0,0,1.01387,561.488,79.4033)">
							<path class="st2" d="M1205.9,426.3c-0.2-0.1-0.4-0.2-0.5-0.2l-4.7-2.3c-0.4-0.2-0.7-0.5-1-0.8c-4-5.1-7.5-13.4-9.2-19.8
								c-4.7-1.7-5.6-4.6-6.2-7.6c-0.5-2.4-0.8-4.2-6.3-6.2c-0.9-0.3-1.5-1-1.8-1.9c-1.4-4.7,0.9-7.4,2.5-9.3
								c1.4-1.6,2.2-2.6,1.7-4.9c-0.1-0.3-0.2-0.6-0.2-0.9c-0.4-0.3-0.7-0.7-0.9-1.2l-8.7-21c-0.9-2.4-2.5-4-4.1-5.8
								c-2.2-2.3-4.7-5-5.7-9.4c-0.1,0.1-1.2-0.6-1.9-1.1c-2-1.3-4.3-2.8-4.6-5.3c-0.1-1,0-2.5,1.3-4.1c7.7-6.3,6.9-34.1,4-47.2
								c-0.7-2.1-1.7-2.3-5.3-2.4c-2.2-0.1-4.7-0.2-7.1-1.4c-0.2-0.1-0.4-0.2-0.6-0.4c-1.4-1.2-3.1-1.6-5.5-1.7c3,1.3,5.5,3.2,6.3,6
								c0.8,2.6,0,5.4-2.4,8.4c1,6.7-3,12.7-7.1,16.2c-0.8,1.2-1.4,3-2.1,4.8c-1.9,5.1-5,13.5-14.7,10.9c-4.8,1.1-4.8,2.6-4.6,6.4
								c0.2,3.6,0.4,8.9-5.6,13c-0.4,2.1,0.9,4.9,2.3,7.8c2.2,4.8,4.9,10.7,1.1,16.2c-0.9,2.2-2.7,4.6-4.3,6.8
								c-2.3,3.2-4.5,6.2-4.9,9.5c-1,4.4-2.1,7.1-8.5,9.8c-2.7,1.1-3.3,2.7-4.4,5.4c-0.6,1.6-1.3,3.3-2.4,5.1
								c-2.3,2.7-3.1,5-3.2,9.2c0.4,0.7,0.5,1.5,0.5,2.3c-0.1,1.8-1.1,3.5-2.2,4.5c-11,23.2-15.7,50.4-14,79.1
								c0.1-0.1,0.2-0.1,0.2-0.2c7.9-6.9,11.3-8.6,14.1-6.7c3.2,2.1,1.5,6.7-0.7,13c-0.7,1.9-1.4,3.9-1.9,5.7
								c5.9,0.2,13.1,1.7,19.6,6.4c1.3-3,3.4-5.3,6.1-6.8c0.1-1.5,0.7-2.4,1.3-2.9c1.4-1.4,3.7-1.7,6.1-0.8c1,0.4,2.1,1,3.1,1.8
								c2-1.3,4.4-1.6,7.1-0.8c5.3,1.6,10.3,7.4,11.5,12.9c1.2,0.1,2.4,0.2,3.6,0.3c5.9,0.5,12.1,1,18.4,4.4c0.6,0.3,1,0.5,1.4,0.7
								c0,0,0-0.1,0-0.1c-0.5-2.6,0-4.9,1.6-6.6c2.9-3.3,8.5-2.9,12.9-2.7c0.8,0.1,1.6,0.1,2.3,0.1c2.5-0.7,4.9-2.1,7.6-3.6
								c4.7-2.6,9.8-5.5,15.7-4.7c-0.4-1.7-0.5-3.3-0.6-4.9c-0.1-1.8-0.2-3.4-0.7-4.8c-4.9-6.9-0.7-12.5,2.1-16.1
								c0.5-0.7,1.1-1.4,1.5-2c-0.8-1.3-1.1-2.9-1.1-4.5c0-0.8,0.1-1.7,0.3-2.4c-0.2,0-0.3,0-0.5-0.1c-6.5-0.7-12.1-1.4-13.4-5.6
								c-1-3.2,1.1-6.8,6.9-11.8c0.2-0.5,0.3-1.5,0.4-2.3c0.2-2.1,0.6-5.3,3.3-6.9l1.8-9.1c0.2-0.8,0.6-1.4,1.2-1.8
								C1204.4,428.2,1205.5,427,1205.9,426.3"/>
						</g>
						<g transform="matrix(1.01387,0,0,1.01387,495.889,78.8151)">
							<path class="st2" d="M896.9,646c0.3,0.1,0.7,0.1,1.1,0.1c1,0.1,2.3,0.2,3.7,0.8c1.2-0.8,2.4-1.4,3.7-1.2c3.6,0,6,3.2,8.3,6.2
								c1.1,1.4,2.6,3.4,3.6,3.9c4.3-0.2,7.3-3.5,10.8-7.2c1.4-1.5,2.7-3,4.2-4.3c3.2-2.4,7.2-2.7,11.1-2.9c3.4-0.2,6.9-0.5,7.6-2.1
								c0.3-0.7,1-1.3,1.8-1.5c8.7-2.7,25.6,7.7,30.8,11.5c3.9,2.3,9,1.3,14.5,0.2c4.8-1,9.7-2,14.5-0.8c3.6-0.7,7-2,10-3.2
								c5-1.9,9.3-3.6,12.4-1c2.9,2.5,3.2,7.5,1,18.8c0.9,0.1,1.9,0.2,2.9,0.3c2.8,0.3,6,0.6,8.7,1.7c1.5-4.1,1-6.1-1-9
								c-0.4-0.5-0.5-1.2-0.5-1.9c0.2-1.9,0.2-3.6,0.3-5.2c0.1-3.7,0.3-7.3,1.5-12.1c0.1-0.3,0.2-0.5,0.3-0.7
								c4.3-7.2,9.7-13.5,14.8-19.6c4.7-5.5,9.6-11.2,13.5-17.5c0.3-0.4,0.6-0.8,1.1-1c1.9-1,4-1.5,5.9-1.9c4.2-0.9,5-1.3,4.9-4.1
								c3.2-18.2,11.9-21.6,18.2-24c3.8-1.5,5.9-2.4,6.9-5l4.5-19c0-0.1,0-0.1,0.1-0.2c7-22,10.1-44,8.5-50.7l-0.6-8.7
								c-0.6-28,3.4-49.9,12.6-68.6c-33.6-4.9-68.5-6.1-102.2-7.3c-33.8-1.2-68.8-2.4-101.7-7.4c-0.8-0.1-1.6-0.6-2-1.3
								c-0.2-0.4-0.3-0.5-1.9-0.4c-1.9,0.1-5.1,0.2-7.5-3c-4.8-8.2-10.5-13.6-15.5-14.9c-0.9-0.2-1.7-0.9-2-1.8
								c-1.2-3.3-1.4-6.8-1.5-10.2c-0.2-4.1-0.4-7.9-2.2-11.2c-4.2-4.4-6-10.4-7.6-15.9c-2.1,5.2-2.2,10.8-2.3,16.7
								c-0.1,6.5-0.2,13.3-3.2,19.7c-0.4,0.9-1.3,1.5-2.3,1.6c-19.2,2.3-39.7,2.4-59.5,2.4c-12.8,0-26,0.1-38.6,0.7
								c-0.2,1.2-0.5,2.3-0.8,3.4c-0.9,3.2-1.5,5.7,0,8.5c0.3,0.5,0.4,1,0.3,1.5c-0.9,15.6-0.3,30.2,2,45.9
								c3.2,0.2,6.7-0.2,10.3-0.6c7.9-0.9,16.7-1.9,23.8,3.7c0.3,0,0.5-0.1,0.8-0.1c3.5-0.4,9.3-1.2,11.4,4.3
								c0.1,0.1,0.5,0.7,0.8,1.2c1.6,2.3,3.7,5.5,2.2,10.1c-0.2,0.5-0.5,0.9-0.8,1.3c-4.6,4-2.7,8.4,0.9,15.4
								c0.5,0.9,0.9,1.9,1.4,2.8c0.1,0.3,0.2,0.6,0.3,0.9c1.7,13.2-1.4,23.5-9.3,30.7c-1.3,1.6-2.7,3.9-4.1,6.2
								c-2.2,3.6-4.4,7.2-7.7,10c0.2,0.1,0.3,0.3,0.5,0.4c3,2.7,5.1,7.3,5.3,11.4c0,0.5-0.1,0.9-0.3,1.3c-0.4,0.7-0.7,1.4-1.1,2.1
								c-1.4,2.7-2.2,4.3-1.4,6.9c3.4,4.5,10.9,18.1,7,25.1c-0.6,1.1-1.6,2.3-3.3,3.1c3.2,5,3.9,10.7,4.6,16c0.6,4.8,1.1,9.3,3.4,13
								c3,2.7,6.7,1.9,12.5,0.5c5-1.2,10.6-2.6,15.8,0c2.1,1.3,7.3,0.8,11.5,0.3c6.7-0.7,13-1.4,16,2.4c1.7,2.1,1.8,5.1,0.5,8.9
								c-0.1,0.2-0.2,0.4-0.3,0.6c-1.2,1.8-2.7,2.6-3.9,3.1c-0.4,4.3,0.4,10.9,2,14.2C892.7,640.2,895.1,643.4,896.9,646"/>
						</g>
						<g transform="matrix(1.01387,0,0,1.01387,538.287,138.853)">
							<path class="st2" d="M1096.6,454.4c-0.8,6.2-3,11.2-5.2,16c-2.4,5.4-4.6,10.4-4.9,16.1c0,0.2,0,0.5-0.1,0.7
								c-0.6,2.2-1.1,4.5-1.6,6.9c-1.6,7.8-3.4,16.7-10.7,21.6c-0.4,0.3-0.9,0.5-1.5,0.5c-9.3,0.5-15.5,10.6-16.4,17.6
								c0.5,6.6-4.6,11.2-15,13.3c-3.9,6.5-9,12.4-13.9,18.1c-4.5,5.2-8.8,10.2-12.2,15.6c-0.8,2.5-0.8,4.8-0.9,7.3
								c0,1.8-0.1,3.6-0.4,5.5c4.2,5.6,1.8,13.4-0.3,18.2c0.7,0.4,1.5,0.7,2.2,1.1c3.7,1.7,7.9,3.6,8.8,7.5c0.2,0.9,0.2,1.8,0,2.8
								c5.3,1.4,9.7,4.3,14.1,7c4.5,2.9,8.8,5.6,13.7,6.6c3.2,1,5.4,2.3,7.6,3.5c2.7,1.6,5.1,2.9,8.3,3.3l1.3,0.3
								c3.9,0.9,7.1,1.6,9.8,4.3c0.7-3.1,3.5-5,5.6-6.4c1.9-1.3,3.6-2.4,4.3-4.2c5.6-11,16.4-13,26-14.8c1.7-0.3,3.4-0.6,5.1-1
								c2.5-1.3,5.4-1.2,7.6,0.3c0.4-0.3,0.9-0.6,1.2-0.9c1-0.8,1.9-1.5,2.9-2c3.6-2.1,6.7-1.9,9.3-1.7c1.7,0.1,3.2,0.2,4.9-0.3
								c1.8-0.2,3.1-0.4,4.4-0.5c8.2-1,18.3-2.2,25.4,3c1.2-0.6,1.9-1.5,3.1-3c1.3-1.8,2.9-3.9,6-5.4c4.7-2,4.3-3.2,3.9-4.4
								c-1.3-2.1-0.4-5,0.3-7.2c0.2-0.6,0.4-1.4,0.5-1.9c-2-0.8-5.9-2.4-6.4-5.9c-0.6-3.9,3.1-6.9,6.7-9.8c1.4-1.1,2.9-2.3,3.7-3.3
								l-0.1-0.1c-2.5-2.6-3.9-6-5.2-9.4c-1.1-2.9-2.2-5.7-4-7.5c-1.5-2-1.4-3.5-1.2-4.4c0.6-2.4,3-3.6,4.9-4.6
								c0.3-0.2,0.7-0.4,1.1-0.5c-1.3-9.3,7.3-11.5,12-12.8c1.6-0.4,4.5-1.2,4.9-1.8c-0.1-2.3-1.2-3.5-2.5-4.8
								c-1.5-1.5-3.5-3.5-2.7-6.6c0.1-0.5,0.4-1,0.7-1.3c1.4-1.4,1.9-4.1,2.3-6.7c0.6-3.4,1.2-7,4.3-8.9c1.1-0.6,2.2-1,3.6-1
								c-0.2-0.8-0.4-1.7-0.3-2.6c-0.3-2,0.4-3.7,2-4.9c2.8-2,7.7-1.2,10.5,0.7c1.2,0.8,2,1.9,2.4,3c1,0.2,1.9,0.5,2.8,0.9
								c0.1-0.8,0.6-1.6,1.4-2.1l2.2-1.3c0,0,0.1,0,0.1,0c0.5-1.8-1.4-8-3.5-9.6c-6-3-9.2-10.9-7.2-19.1c0.3-1,0.2-3.1,0.1-4.5
								c-0.2-2.9-0.4-5.8,0.6-8l-0.1,0c-0.9-0.3-1.6-1-1.8-1.9c-0.3-0.9-0.1-1.9,0.5-2.6c1-1.2,1.4-2.6,1.1-3.8
								c-0.2-0.7-0.6-1.4-1.2-1.9l-3.5,2.9c-6.8,5-15,7.6-24.4,7.7c-0.2,3.5-1.7,6.4-4.4,8c-3.6,2.2-8.5,1.7-13-1.5
								c-2-1.7-6.7-1.9-10.8-2c-6.4-0.2-14.5-0.4-14.5-7.5c0-0.5,0.1-0.9,0.3-1.3c-0.6-1.3-2.7-3.6-4.3-4.9
								c-1.9,1.7-5.2,3.9-8.3,2.9c-0.6-0.2-1.4-0.6-2-1.3c-0.2,0.1-0.4,0.2-0.6,0.3c-0.4,0.2-0.7,0.4-1,0.6
								c-0.4,0.8-0.8,1.7-1.2,2.7c-1.1,2.7-2.5,5.9-5.6,6.6c-3.1,0.7-5.9-1.5-7.7-3.1c-3.8-3.9-9.1-4.5-13.7-5
								c-4-0.4-7.8-0.9-9.9-3.5C1096.6,452.9,1096.6,453.7,1096.6,454.4"/>
						</g>
						<g transform="matrix(1.01387,0,0,1.01387,562.996,153.962)">
							<path class="st2" d="M1213,510.8c-0.8,0.5-3.6,2.3-6.1,0.8c-2.7-1.6-2.3-5.2-2-8.2c-0.9,0-2.2,0-3.8,0.1
								c-0.9,0.1-1.7-0.3-2.3-0.9s-0.9-1.5-0.8-2.4l0.2-1.1c-0.1,0-0.2-0.1-0.3-0.1c-0.2,0.4-0.3,0.8-0.6,1.1
								c-1.6,2.4-4.4,3.2-7.4,3.4c-0.2,3-1.6,6-2.9,8.6c4.2,6,5.6,10.2,4.5,13.6c-1.3,4.1-5.6,5.6-9.8,7.1c-2.4,0.8-4.9,1.7-6.9,3
								c0.2,2-0.2,4-1.1,5.8c-0.8,1.6-2,2.9-3.4,3.9c1.1,2.3,2.3,4.3,3.5,6.3c4.6,7.8,8.9,15.1-2.2,23.5c4,3.2,3.4,7.4,2.9,11
								c-0.3,2.2-0.6,4.4-0.2,6.8c0.1,0.3,0.1,0.6,0,0.8c-0.8,6.8-5.2,8.9-8.7,10.6l-0.7,0.4c-0.8,0.6-1.9,1.8-3,3.2
								c-2.4,2.9-5.4,6.4-11.2,6.5c-0.6,0-1.3-0.2-1.8-0.6c-6.1-4.6-13.8-3.7-22-2.7c-3.8,0.4-7.8,0.9-11.7,0.8
								c-0.2,0-0.5,0-0.7-0.1c-1-0.3-2.8,1-4.4,2.2c-2.6,1.9-7.1,5.2-11.4,1.5c-17.4,2.9-18.8,4.5-23.9,9.9c-2.2,2.4-5.1,5.5-10,9.7
								c0.4,2.5-0.1,5.2-1.6,7.1c-1.2,1.6-2.9,2.7-4.8,3c-0.4,0.8-0.8,1.5-1.1,2.2c-0.4,0.8-0.8,1.4-1,2c0.6-0.3,1.2-0.7,1.7-1
								c3.8-2.2,8-4.7,12.2-2.6c3.1,1.6,4.6,2.3,6.8,1.9c2.2-0.1,4-0.3,5.7-0.4c11.4-0.8,25.4-1.9,29.3,11.5
								c0.5-0.1,0.9-0.1,1.3-0.1c0.6,0.1,1.8,0.2,3.3,1.7c0.4-0.7,0.8-1.2,1.3-1.7c2.5-2.3,5.8-2.1,10-1.9c1.6,0.1,3.4,0.2,5.6,0.2
								c0.6-0.1,1.7-0.3,2.7-0.5c3.2-0.6,6.6-1.3,10.2-1c2.8-2.5,6.6-2.5,9.5-2.4c0.4,0,0.9,0,1.3,0c0.8-0.9,1.7-1.3,2.5-1.4
								c2.5-0.4,4.3,1.5,5.8,3.1c0.4,0.5,1.1,1.2,1.4,1.4c6.4,4.1,7.2,9.7,7.3,15.4c2.5,0.9,3.6,2.6,4,3.7c1.1,2.8,0.3,6.2-1.3,8.8
								c1.3,1.8,1.4,4.1,1.4,5.6c0,0.5,0,0.9,0.1,1.3c0.2,2.8,4.3,4.4,8.2,6.1c4.4,1.8,8.9,3.7,10.1,7.6c0.7,2.3,0.1,4.7-1.7,7.3
								c-0.1,0.2-0.2,0.3-0.4,0.5c-2.1,2-2,4.1-1.7,7.8c0.2,3.1,0.5,6.8-1.8,10.3c0.1,0.3,0.2,0.5,0.3,0.8c2.9,0.4,5.6,2.2,7.4,5.1
								c1.6,2.6,2.1,5.5,1.3,8.1c0,0,0,0,0,0c1.1,0.2,4,0.2,7.9-0.9c0.4-0.1,0.8-0.1,1.1-0.1l2.4,0.3c0.4-1.8,1.3-4.2,4.6-5.3
								c2.4-0.7,4.3,0.1,5.4,0.6c0.2,0.1,0.6,0.3,0.7,0.3c0.2-0.2,0.3-0.5,0.6-0.7l2.3-1.2c5.8-3,13.1-6.7,19.9-6.5
								c4.7-3.8,9.7-4.5,14.6-5.1c1.7-0.2,3.3-0.4,5-0.8c8.2-4.4,16.4-6,25.1-7.6l2.7-0.5c0.7-0.1,1.3,0,1.9,0.3
								c5.7,3,9.7,1,16.3-2.7c1.9-1.1,3.9-2.2,6-3.1c1.6-0.7,3.2-0.8,4.3-0.9c0.2,0,0.4,0,0.6,0c0-0.2,0-0.5-0.1-1
								c-1.5-4.8,1.1-8.8,3.2-12c1.1-1.7,2.2-3.3,2.4-4.9c-0.4-5.8,4-9,7.5-11.5c1.3-0.9,2.6-1.9,3.6-2.8
								c-2.7-4.5-2.1-10.4,1.7-15.1c3.5-4.4,8.7-6.3,13.4-5.1c1.6-4.8,3.5-10,7.5-13.9l-2.2-2.4c-0.7-0.8-1-1.8-0.6-2.8
								c1.8-5.7,0.2-14-3.5-18.1c-0.8-0.8-1-2.1-0.5-3.1c0.5-1,1.5-1.7,2.6-1.7h0l6.5,0c-0.2-1.9-0.5-3.5-0.8-4.4
								c-4.3-2.1-4.4-5.6-4.2-7c0.6-5.1,6.9-10.3,11.7-12c0.3-0.6,0.6-1.2,1.1-1.8c2.4-2.6,7.1-3,11.6-3.1c-1.6-1.4-2.7-3.6-3.3-6.3
								c-3.4-1.8-2.8-6.6-2.4-9.3c0.3-2,0.6-4.3,0-5.6c-0.1-0.2-0.2-0.4-0.2-0.7c-0.3-1.5,0.2-3.1,1.3-4.1c1.2-2.8,3.7-5.2,7.6-7.3
								c0.3-3.3,2.8-6.1,5.7-7.3c0-0.1,0.1-0.1,0.1-0.2c0.7-1.5,1.7-3.6,3.7-5c-0.4-1.2-0.6-2.6,0.3-3.9c0.4-0.6,0.8-1,1.3-1.3
								c-3-3.6-18.6-10.5-25.6-11.1c-2.3,3.4-6.4,5.1-10.7,4.2c-4.8-1-7.9-4.8-8.1-9.7c-4.5-7.7-7.5-10.5-15.4-11.7
								c-0.3,0-0.6-0.2-0.9-0.3c-2.4-1.3-5.3-1.4-8.3-1.6c-5.2-0.3-11.1-0.7-15.6-6.5c-0.9-1.2-1.1-1.2-1.8-1.3
								c-1-0.1-2.4-0.4-4.4-1.6c-0.3-0.2-0.6-0.4-0.8-0.7c-1.3-1.7-4.7-3.2-6.7-3.6c0,2.1-0.1,4.8-2.4,6.1c-1.2,0.6-2.5,0.6-4,0
								c-3.2,0.4-5.5-1-7.3-2.1c-2.1-1.3-3.1-1.9-5-1c-0.3,0.2-0.5,0.2-1.1,0.2c-1.6,0-2.8-0.5-3.7-1.4c-1.3-1.4-1.2-3.3-1.2-4.5
								c0-0.4,0.1-1.1,0-1.3c-0.8-1.8-1.2-4.3-0.6-6.5c-3-0.2-7-0.4-11.8-0.5l-6.4,3c-3,5.9-8.2,8.1-12.3,9.7
								c-6,4.9-12.7,8.1-19.3,11.2C1219.7,507.3,1216.2,509,1213,510.8"/>
						</g>
						<g transform="matrix(1.01387,0,0,1.01387,588.969,157.994)">
							<path class="st2" d="M1335.3,696.3c-0.3,0-0.5,0.1-0.8,0.1c-4.5,0.7-10.6,1.6-14.4-3.2l-3.7,0.2c-1.5,0-2.7-1-3-2.5
								c-0.3-1.7-1-2.9-2-3.5c-0.3-0.2-0.6-0.2-0.9-0.3l-0.1,5.5c0,0.5-0.1,1-0.4,1.4c-0.8,1.3-1.6,2.5-2.4,3.6c-2,2.7-3,4.2-2.4,7
								c0.5,9.1-3.5,10.5-8.5,11.4c-0.8,0.1-1.7,0.3-2.7,0.5c-0.9,0.5-2.4,1.3-3.9,2.1c-6.8,3.8-14.5,8-23.3,4
								c-2.6,0.8-5.2,1.2-7.8,1.6c-3.4,0.5-6.6,1-9.3,2.3c-2.8,2.1-5.9,3.1-9.2,3.8c2.3,0.8,4.2,2.5,4.9,6c0.2,2-0.2,3.6-0.8,5
								c0.7,0.2,1.3,0.6,1.9,1.1c2.7-1.6,6-3,8.8-3c1,0,2,0.2,2.8,0.7c0.9,0.5,2.1,1.6,2.3,3.7c1.6-0.4,3.2-1.3,4.9-2.2
								c1-0.6,2.1-1.1,3.2-1.7c0.6-0.3,1.4-0.4,2-0.2c4.3,1.3,8.9,1.1,13.8,0.9c3.6-0.1,7.3-0.3,11,0.2c0.6,0,1.5,0,2.6,0.1
								c3.7,0.2,9.8,0.5,11.5-1.4c0.2-0.2,0.7-0.8,0.5-2.6c-0.1-0.4,0-0.7,0.1-1.1c0.9-3.9,2.9-6.7,4.9-9.4c1.3-1.8,2.6-3.5,3.4-5.5
								c0.2-0.4,0.4-0.8,0.8-1.1c2.6-2.3,5-2.3,6.4-2.3c0,0,0.2,0,0.3,0c0.1,0,0.2,0,0.3,0c1.4-0.5,2.9-1.8,4.6-3.1
								c2.2-1.8,4.6-3.8,7.6-4.5c0.1-1.5-0.6-3.6-1.3-5.6C1336,702.1,1335,699.1,1335.3,696.3"/>
						</g>
						<g transform="matrix(1.01387,0,0,1.01387,596.545,144.578)">
							<path class="st2" d="M1370.9,634.8c-0.8-4.4-1.7-9.9,0.3-17.6c-0.1-0.2-0.3-0.4-0.4-0.6l-4.5-1.4c-0.4-0.1-0.8-0.4-1.1-0.7
								c-4.5-4.3-12.3-8.3-17.5-9.1l-2.1,1.2c-1.2,2.8-4.4,4.3-7.3,5.6c-0.8,0.4-2,0.9-2.9,1.4c3.1,2.4,3.6,7,4,11.2
								c1.8,1.7,1.7,3.6,1.5,4.4c-0.4,1.9-2,3.4-3.8,4.4c2.1,3.4,1.2,7.2,0.5,9.9c-0.1,0.6-0.3,1.2-0.4,1.8c0,0.2-0.1,0.4-0.2,0.6
								c-0.6,1.4-0.4,2,0.2,3.7c0.4,1.2,1,2.7,1.1,4.6c0,0.2,0,0.4,0,0.6c-0.5,3.2-3,5.1-4.7,6.4c-0.7,0.5-1.4,1.1-1.7,1.5
								c-0.7,0.9-1.2,3.1-1.8,5.1c-1.2,4.6-2.8,10.8-9.1,11.2c-1.2,0.1-2-0.5-2.6-1.4c-0.8-1.4-1.5-1.2-2.2-0.9
								c-1.9,0.9-3.6,3.7-3.3,5.7l0.2,0.3c1.4,1.7,3.6,4.3,2.8,7.1c-0.2,0.7-0.6,1.6-1.6,2.3c0,0.4-0.1,0.9-0.1,1.3
								c-0.1,0.8-0.2,2.1-0.3,3.2c2.4,0.4,4.8,1.5,6.2,3.8c1.6,0.6,3.6,0.2,6-0.2c2.7-0.5,5.6-1,8.5-0.2c0,0,0,0,0,0
								c-0.1-1.4-0.2-3.8,1.8-5.5c0.3-0.2,0.6-0.4,0.9-0.5c3.5-1.3,5.6-4.1,7.9-7.1c1.7-2.3,3.5-4.6,5.9-6.4
								c1.5-2.5,2.5-5.5,3.6-8.7c1.9-5.7,4.1-12.2,9.5-16.6C1372.8,645.9,1372.1,641.5,1370.9,634.8"/>
						</g>
						<g transform="matrix(1.01387,0,0,1.01387,607.076,125.854)">
							<path class="st2" d="M1420.5,372.9c-4.4-1.6-6.9-4.3-6.8-12.5c-0.7-0.2-1.4-0.6-2-1.2c-1.6-1.6-1.4-3.6-1.4-5.1
								c0-0.7,0.1-1.4,0-2c-5.9-11.2-20.3-20-32.5-19.9c-5.5,0.1-13,2.2-17.4,11.8c-0.3,0.7-0.8,1.2-1.5,1.5
								c-2.7,1.1-5.2,0.7-7.1,0.5c-0.6-0.1-1.5-0.2-1.8-0.2c0.1,0.1-0.3,0.8-0.4,3.1c-0.2,3-2.2,5.3-5.5,6.5
								c-4.6,1.6-11.9,1.1-14.8-2.1c-0.2-0.3-0.4-0.5-0.5-0.9c-1-2.5,0.5-4.7,1.5-6.1c0,0,0.1-0.1,0.1-0.1l-8.7-6.4
								c-0.1-0.1-0.2-0.2-0.3-0.2c-1.4-1.3-2.9-2-4.2-1.8c-0.8,0.1-1.4,0.6-1.9,1.4c-0.2,0.4-0.6,0.8-1,1l-2.9,1.8
								c0.2,2.3-0.6,4.4-2.1,6.2c-4.6,5.4-15.6,6.2-19.4,5.6c-2.2-0.5-3.7,0.4-6.3,1.8c-1.9,1.1-4,2.3-6.7,2.8
								c-5.6,2.1-11.2,0.8-15.6-3.8c-1,0-2.2,0.1-3.4,0.3c-2.8,0.4-6.6,0.8-9.4-0.9c-1.3,1.3-3,2.2-4.4,2.9c-0.5,0.3-1.3,0.7-1.8,1
								c0.2,0.2,0.5,0.5,0.9,0.8c6.1,5.4,3.7,15.2-1.3,22.5c-5.2,7.6-14.3,13.9-22.4,11.1c-0.9,0.6-1.8,1.3-2.7,2
								c-4.1,3.1-8.9,6.6-14.8,6.4c-3.5-0.3-14.2-2.4-17.9-8.1c-1.4-2.1-1.6-4.5-0.8-6.8c0.2-0.8-0.1-1-0.3-1.1
								c-1.2-1-4.3-1.1-6.8-0.7c0.1,1.4-0.1,2.8-0.7,4.2c-2.2,5-8.5,7.6-11.6,8.7c-0.1,0.3-0.3,0.7-0.4,1c-0.6,1.5-1.5,3.8-3.3,4.9
								c-0.1,0.4-0.1,0.7-0.1,1.1c-0.2,1.7-0.4,3.7-2.1,6.1c-0.4,0.6-1.1,1.2-1.8,1.9c4.9,0.1,10.6,0.6,13.6,5
								c0.2,0.3,0.3,0.6,0.4,0.9c0.7,2.8-1.6,4.7-2.5,5.4c-0.8,0.6-1.1,0.9-1.2,1c0.2-0.1,0.3,0.3,0.4,0.6c0.9,1.7,2.6,5-0.8,9.2
								c-4.8,5.3-5.1,5.6-1.8,11.8c0.3,0.6,0.4,1.3,0.3,1.9c-0.5,2.8,0.1,5,1,7.8c0.3,1,0.7,2.1,0.9,3.2c3,3.4,1.6,7.7,0.1,10.5
								c1.4,1.8,2,4.3,1.3,6.8c-0.6,2.2-2,3.9-3.8,4.7c0.1,2-0.2,4.1-0.4,6.1c-0.6,5.1-0.9,8.3,1.9,10c4.8,3.1,8.6,10.1,9,16.3
								c0.2,3.6-0.8,6.7-2.8,8.9l0,0.6c-0.2,0.9-0.4,1.8-0.5,2.5c4.3-1.2,12.2-4,21.3-8.1l10-8.6c1.8-4.2,6-5.2,9-5.9
								c1.5-0.4,3-0.7,3.9-1.3c0.2-0.1,0.3-0.2,0.5-0.3c4-1.5,19.2-3.8,24.9,1.8c2.1,2,2.7,4.7,1.8,7.8c-0.2,1.8-0.9,3-1.7,3.7
								c1.7,0.4,3.2,1.1,4.6,1.9c0.8-2.1,2.5-3.6,4.9-4.3c5.2-1.6,13.2,0.9,16.5,4.9c3.2,0.8,5.7,2.8,7.8,4.6
								c2.9,2.5,4.8,3.9,7.9,3.6c4.9-0.2,8.5,1,12,2.2c2.2,0.7,4.3,1.4,6.6,1.8c6.5,0.7,9.1,5.1,11.1,8.6l0.6,1
								c2.3,2.1,4.5,6.7,5.6,10.2c0.4-0.2,0.9-0.7,1.8-1.6c0.6-0.6,1.3-1.3,2-1.9c0.5-0.4,1.1-0.6,1.7-0.7
								c8.9-0.6,30.5,5.6,36.6,15.6c2,3.3,2.3,6.8,0.8,10.1c0.4,3.5-2.3,5.8-3.9,7.3c-0.2,0.2-0.5,0.4-0.7,0.6
								c-1,2.6-2.9,4.8-5.2,6.1c-0.4,3.8-3.7,6-6,7.5c-1.3,0.9-3,2-3,2.7l0.4,3c-0.2,3.6,0.5,8.2,1.4,10.4l0.4,0.7
								c2.7,1,8.1,3.1,8.3,8.7c2.4,1.3,4.2,3.2,5.8,5c0.9,0.9,1.7,1.8,2.6,2.6c3.1-6.9,8.7-14,15-17.2c-3.2-7.4-0.9-15.1,1.1-22
								c1.3-4.3,2.5-8.4,2.5-12.2c-0.7-4.6,1.1-8.7,2.7-12.4c1.5-3.6,2.8-6.6,2-10c-1.1-5.2-1.1-10.2-1.2-15c0-4.7-0.1-9-1-13.4
								c-0.3-4,0.2-7.6,0.8-11.1c1-6.4,1.8-11.9-1.8-16.4c-2.7-4.2-0.8-8.1,0.6-10.9c0.9-1.9,1.8-3.8,1.4-5.1
								c-0.1-0.4-0.1-0.9,0-1.3c3-16.2,6.9-18,14.3-18c3.1,0,6.4,0,10.8-3c2.1-0.9,2.1-0.9,2.6-3c2-9.2,7.7-16.9,13.3-24.4
								c1.5-2,2.9-3.9,4.2-5.8c-1.2-0.1-2.5-0.3-3.7-0.8c-4.3-1.6-7.9-5.4-9.9-10.8c-4.9-9.3-7.3-15.6-4.4-19.2
								c2-2.6,5.7-2.5,9.5-1.7C1424.5,374.3,1422.3,373.5,1420.5,372.9"/>
						</g>
						<g transform="matrix(1.01387,0,0,1.01387,619.735,89.3123)">
							<path class="st2" d="M1480.2,374.5c-0.7,0.1-1.4-0.1-2-0.5l-4.2-2.9c-0.5-0.3-2,0.3-2.7,0.6l-0.1,0
								c-2,6.9-8.2,12.2-17.5,14.5c-10.9,2.7-25.9,1.1-32.4-7.2c-2.7-3.4-4.1-3.8-4.6-3.8c-0.9-0.1-2.3,1.4-3.6,2.8
								c-1.7,1.7-3.6,3.7-6.2,5.1c2.5,2.6,7.6,7.2,14.4,12.8l9.4-0.8c0.1,0,0.2,0,0.2,0c0.2,0,0.4,0,0.6,0.1c3.9,0.9,6.2,3.9,8,6.3
								c0.9,1.2,1.8,2.4,2.8,3.1c0.9,0.6,2.3,1.4,3.7,2.3c4.9,3,8.7,5.4,10.7,7.9c0.1,0,0.1-0.1,0.1-0.1c0.1-0.1,0.2-1,0.2-1.5
								c0.2-1.6,0.5-3.7,2-5.8c0.3-0.4,0.7-0.8,1.2-1c3.6-1.5,5.5-4.4,7.6-7.8c1.9-3,4.1-6.5,7.9-9.1l7.8-4.6c1-5,0-8.3-1.2-9.7
								C1482,374.7,1481.2,374.4,1480.2,374.5"/>
						</g>
						<g transform="matrix(1.01387,0,0,1.01387,623.34,74.1776)">
							<path class="st2" d="M1497.1,323.6c0.1-0.2,0.3-0.5,0.4-0.6c0-0.2-0.1-0.8-0.2-1c0,0.1-0.9-0.2-1.4-0.4
								c-1.4-0.6-3.6-1.5-4.1-3.8c-0.1-0.5-0.1-1-0.1-1.5c-2-0.1-4.7-0.1-8.1,0c-0.5,0-0.9-0.1-1.3-0.3l-6.3-3.1
								c-3.1,1.6-7.3,3.5-9.9,4.6c-0.8,0.3-1.8,0.3-2.5-0.2c-0.8-0.5-1.3-1.2-1.4-2.1l0,0c-1.9-0.3-3.7-0.8-5.6-1.4
								c0.2,0.8,0.1,1.7-0.3,2.5c-0.5,1.1-1.5,1.8-2.4,2.2c-0.4,1-1,1.7-1.4,2.2c-0.5,0.6-0.6,0.6-0.6,1.1c0.6,2.8-1.9,6.6-4.7,8.6
								c-2.2,1.6-4.6,2-6.4,1c-2-1.1-2.9-3.4-2.8-6.8c-0.1-0.9-0.3-1.3-0.3-1.3c-0.6,0-3.5,1.6-4.9,2.4c-1.4,0.7-2.6,1.4-3.7,1.8
								c-1.3,0.5-2.7-0.1-3.4-1.2c-0.9-1.6-3.1-2.5-5.1-3.3c-2.6-1.1-5.6-2.4-6.6-5.4c-0.7-2-0.3-4.4,1.3-7.1c0.1-0.9,0.4-2.7,1-6.6
								l-4,2.8c-2.8,4.2-8.2,12-17.4,9.1c-1.9,0.1-4.5-0.4-6.2-1.9c0.1,2.9,0,7-5.1,10.4c0.2,0.9,0.1,1.9-0.2,2.8
								c0.4,0.9,2,2.6,3,3.7c2.7,3,5.8,6.3,5.3,10.5c-0.2,1.7-1.1,3.3-2.5,4.7c2.3,0.6,4.8,1,6.4,0.9c2.2-5.4,8-6.6,12.4-7.5
								c2.3-0.5,4.4-0.9,5.8-1.7c0.7-0.4,1.4-0.9,2.1-1.4c3.3-2.3,6.8-4.6,13.8-3.1c0.4,0.1,0.7,0.2,1,0.4c3.5,2.4,7.9,6,6.9,10
								c-0.6,2.3-2.7,3.5-4.9,4.1c0.5,1.6,0.9,3.4,0.5,5.3c-0.1,0.3-0.2,0.7-0.3,1c1.2,0.9,2.2,2.2,2.9,3.6c0.4,0.8,0.6,1.6,0.7,2.4
								c0.8-0.9,1.6-1.6,2.5-2.1c1.6-1.2,3.7-1.6,5.4-1.8c0.4-0.1,0.7-0.1,1.1-0.2c1.6-9,13.9-9.9,20.9-10.2
								c2.7-2.5,6.3-3.1,9.2-3.6c0.8-0.1,1.5-0.2,2.2-0.4c0.6-3.2,2.8-5.7,6.4-7c3.2-1.2,7.6-1.2,11.1,0.3c0-0.4,0-0.8-0.1-1.2
								l0.2-5.8C1495.8,325.5,1496.6,324.4,1497.1,323.6"/>
						</g>
						<g transform="matrix(1.01387,0,0,1.01387,583.7,91.019)">
							<path class="st2" d="M1310.5,201.6c-0.2,0.3-0.5,0.5-0.8,0.6l-9.7,5c-2,1.7-3.8,5.8-5.5,9.7c-1.2,2.7-2.4,5.5-3.9,7.9
								c-1.7,2.4-1.2,3.9,0.1,7.2c1,2.4,2.2,5.4,1.8,9c0.8,5.3-0.3,10.2-1.8,14.9c-0.5,1.5-1,3-1.6,4.5c-2.5,7.1-4.7,13.4-1.6,20.2
								c0,0.1,0.1,0.2,0.1,0.3c4.7,1.8,7.5,6.4,7.3,12c-0.2,6.2-4,11.2-9.3,12.5c-7.8,4.3-14.9,2.8-20.5,1.6
								c-7.6-1.6-12.7-2.7-19,7.5c-4.6,8.1-13.3,10.9-21,13.4c-10.7,3.5-16.8,5.9-16.6,16.2c-0.7,7.4-3.5,13.3-6.3,19.1
								c-2.3,4.8-4.4,9.4-5.3,14.3c0.3,1.7,0.5,3.5,0.8,5.2c0.5,3.9,1,7.6,2.6,11.3c0.2,0.4,0.3,0.9,0.2,1.3
								c-0.1,2.1-0.5,4.1-0.8,5.9c-0.5,2.6-0.8,4.8-0.6,7.2c5.3-0.6,10.9,0.9,14,3.9c2.6,2.5,3.5,6,2.5,9.7c0.1,0,0.2,0.1,0.3,0.1
								c0.2,0.1,0.4,0.2,0.6,0.3c7.7,4.9,12.2,2,19-2.3c1.6-1,3.3-2.1,5.1-3.2c0.7-0.4,1.6-0.5,2.4-0.2c2.9,1.1,5.4,0.9,7.9-0.4
								c4.7-2.6,8.2-9.3,9.7-15.3c-3.2-3.3-6-7.1-5.1-11.1c0.8-4.1,4.9-6.3,8.2-7.7c2.6-4.2,3.9-6.2,6.4-6.5
								c2.5-0.3,4.2,1.3,7.1,4.1c5.1-0.9,11.6-1.1,16.7,4.2c2.9-0.1,6.8-1.6,10.7-4.1c3.2-1.6,6.9-1.6,10.6-1.6c4.2,0,6.8-0.2,8.2-1
								c-0.5-0.4-0.9-0.9-1.3-1.4c-1.3-1.9-1.5-4.2-0.5-5.8c0.4-0.7,1.6-2.1,4.1-2.1c1.1-0.4,2.4-0.4,3.5,0.1c2.9-2.2,3.9-4.6,5-8
								c0.2-0.6,0.6-1.2,1.2-1.5l3.1-1.9c17.8-10.9,21.4-13.2,15.7-33.1c-0.2-0.8-0.1-1.6,0.3-2.3c5.2-8.9,6.9-12.7,7.3-14.3
								c-0.1,0-0.3-0.1-0.4-0.1c-2.6-0.7-7.5-1.9-9-10.4c0-0.3-0.1-0.5,0-0.8c0-0.3-0.2-0.9-0.4-1.5c-0.4-1.2-1.1-2.9-0.5-4.8
								c0-0.2,0-0.5,0-0.8c0-0.1,0-0.2,0-0.3c-0.1,0-0.1-0.1-0.1-0.1c-6.3-6.3-5.7-15-5.1-23.3c0.5-7.3,1-14.2-2.8-19.5
								c-0.4-0.6-0.6-1.4-0.5-2.2c0.7-3.9,0.4-6.4,0-9.8c-0.2-1.5-0.4-3-0.5-4.9c0.1-1.2,0.2-1.7,0.3-2.2c0.3-1.5,0.3-1.5-0.4-2.3
								c-2.9-2.1-4-5.7-4.9-8.8c-0.8-2.5-1.4-4.7-3.1-6c-0.2-0.1-0.3-0.3-0.5-0.5l-8.6-11.4c-0.2-0.3-0.4-0.6-0.5-1
								c-0.6-2.1-1.7-2.3-2-2.4C1320.5,193.6,1315.7,195.7,1310.5,201.6"/>
						</g>
						<g transform="matrix(1.01387,0,0,1.01387,622.926,83.422)">
							<path class="st2" d="M1495.2,337c-2.5-1.9-5-3-6.6-2.9c-0.4,0-0.8,0.2-1.1,0.4l0,0c-0.1,1.8-0.3,4.5-4.4,6.6
								c-2.1,0.6-3.5,0.8-4.9,1c-2.8,0.4-4.6,0.6-6.4,2.5c-0.4,0.4-0.9,0.7-1.4,0.8c-1.8,0.4-3.9,0.6-6.2,0.8
								c-2.4,0.2-7.3,0.7-8.4,1.6c-0.6,6-5.1,7.2-8.1,8c-1.7,0.5-3.1,0.9-4.1,1.8c-2.7,4.9-9.3,6.5-13.4,4.6
								c-2.6-1.2-4.9-4.3-2.8-9.2c-0.8,0.2-1.7,0.2-2.6,0c-1.8-0.5-3.1-1.9-3.6-3.6c-1-1.3-1.3-3.1-0.7-4.8c0.6-1.6,1.8-2.7,3.3-3.1
								c0.1-0.3-0.1-0.9-0.6-2.4c-0.5-1.3-1-3-0.8-4.8c-0.1,0-0.1,0-0.2,0l-3.1,1.8c-2.5,1.6-5.5,2.2-8.2,2.7
								c-2.4,0.5-4.6,0.9-6.1,2c-0.8,2.4-2.5,4.3-5,5.2c-5.9,2.3-14.9-0.8-18.8-3.3c-0.9,0.2-2.1,2.2-2.9,3.6
								c-1.4,2.4-2.9,5-5.9,4.9c-2.8-0.2-4.4-2.8-5.5-5.5c-0.5-1.2-0.7-1.6-0.8-1.7c-4.8-0.5-7.2-3.6-9-6.2
								c-2.2-2.9-3.5-4.4-6.4-4.3c-0.4,0-0.8,0-1.2-0.2c-2.9-1.1-6.3-0.2-10,0.6c-4.2,1-8.9,2.1-13.2,0.3c-1,4.5-2.7,14.8-4.2,28.7
								c-0.1,1.1-0.8,2-1.8,2.4l-5.6,2.3c2.3,1,4.2,2.3,5.5,4.1c1.3,1.8,2.6,4.7,1.9,9.1c1.2,1,2.1,2.4,2.6,4.1
								c0.2,0.8,0.3,1.7,0.3,2.5c0.5-3.7,2.6-6.9,5.7-8.8c2.5-1.5,5.4-1.9,8.1-1.1c4.3-7.4,10.8-11.9,18.9-13.2
								c14.7-2.2,31,6.8,40.6,16.5c2.4-0.7,3.3-1.8,4.5-3.4c1.3-1.7,3-3.9,6.5-5.5c0.3-0.1,0.7-0.2,1-0.3c8.5-0.6,12.1,3,15.3,6.2
								c3.5,3.5,6.5,6.5,17,4.7c0.3-0.1,0.6-0.1,0.9,0c5.2,0.8,13.2-1.5,15.4-7c-0.3-0.9-0.4-2-0.1-3c0.5-1.6,1.7-2.7,3.2-3.2
								c6-2.8,11.4-1.9,16.6-1c2.7,0.5,5.5,0.9,8.5,0.9h0c0.6-1.5,1.2-3,1.9-4.6C1492.3,356.3,1496.1,347.2,1495.2,337"/>
						</g>
						<g transform="matrix(1.01387,0,0,1.01387,588.735,72.7733)">
							<path class="st2" d="M1334.2,216.5l1.3,3.4c3.7,2.7,4.7,6.3,5.7,9.5c0.8,2.6,1.4,4.8,3.3,6.4c3.6,4.5,3.2,7.3,2.7,10.2
								l-0.1,0.8l0.3,2.2c0.5,3.9,1.1,7.6,0.3,11.8c4.1,7.1,3.7,15.1,3.3,23c-0.2,5.2-0.5,10.2,0.7,14.4c4.1,2.4,4.5,7.5,4.7,11.2
								c0.1,2.2,0.3,4.4,1,5.5c4.3,0.2,6.5,2.1,7.5,3.8c2.2,3.6,1.5,9.3-2.3,17c3.2,0.5,7.1,0.1,11.1-0.4c2.7-0.3,5.6-0.7,8.5-0.7
								c6.3,0,12.5,1.7,16.3,8.9c0.5,1.2,1.6,1.6,3.4,2.3c1.2,0.5,2.7,1,4.1,2.1c1.7-1.9,4.1-3.3,6.5-3.6c3.1-2.6,3.3-3.7,3.3-3.8
								c0-0.5-1.4-1.8-2.3-2.6c-2.2-2-5.1-4.7-5.7-9c-1.4-1.3-1.8-2.8-1.8-3.8c-0.1-3.6,3.5-6,6.6-8.2c0.4-0.3,0.8-0.5,1.1-0.8
								c0-0.3-0.1-0.6-0.1-1c-0.2-2-0.4-4.5,0.2-6.9c-0.5-2.3,0.9-4.4,4.3-6.1c0.2-0.1,0.5-0.2,0.7-0.3c2-0.9,3-2.2,4.2-3.9
								c0.6-0.8,1.3-1.7,2-2.5c1.9-2,3.1-4.5,4.3-7.1c1.6-3.2,3.2-6.6,6.2-9.3c1.7-6.8,4.7-17.6,14.1-21.9c-0.9-0.4-1.9-0.8-2.9-1.2
								c-3.8-1.5-8.2-3.2-10.9-7.8l-0.8-1.5c-1.4-2.7-2.3-4.5-4.4-6.3c-2.1-1.6-4.4-3.4-6.7-5.2c-18.2-14.3-38.8-30.5-61-33.3
								c-2.1,0.8-4.4,0.7-6.5,0.6c-0.2,0-0.4,0-0.6,0c-0.1,3.8-0.6,7-3.4,7.9c-2.9,0.9-5.3-1.8-6.8-3.9l-3.2-0.5
								C1340.3,206.5,1336.4,210.6,1334.2,216.5"/>
						</g>
						<g transform="matrix(1.01387,0,0,1.01387,608.43,68.054)">
							<path class="st2" d="M1426.9,280.2l-2.4,8.1c-0.1,0.4-0.4,0.8-0.7,1.2c-2.7,2.8-4.7,6.3-6.7,10c-2.2,3.9-4.5,8-7.8,11.4
								c0.5,0.5,1,1,1.3,1.6c4.3,0.7,5.9-1.3,9.5-6.4c0.1-0.2,0.3-0.3,0.4-0.5c4-3.6,14.1-7,20.4-3.9c2.1,1.1,5.6,3.8,4.9,10.5
								c-0.9,3.7-3.3,5.5-5.2,6.9c-0.5,0.3-0.9,0.7-1.2,0.9c0.8,0.2,1.8,0.5,2.7,0.8c0.5,0.2,1,0.5,1.4,0.9l0.6,0.7
								c3.9-2.2,9.1-2.7,12.9-0.9c0.5,0.2,0.9,0.5,1.4,0.8c0-0.6,0.1-1.1,0.2-1.7c0.3-0.8,0.8-1.6,1.4-2.2c-1.2-4.2,0.3-6.5,1.5-7.6
								c3.2-3,8.9-1.9,13.1,0.5c1.4,0.6,3.8,0.7,5.9,0.7c1.3,0,2.5,0.1,3.6,0.2l0.5-0.2c4-1.4,8.6-3,13.4-0.2c1,0.1,2,0.2,3.1,0.3
								c0.3,0,0.5,0.1,0.8,0.1c-0.2-0.4-0.4-0.7-0.6-1.2c-0.1-0.2-0.1-0.4-0.2-0.6c-0.4-2.3-0.3-5.1-0.1-7.8
								c0.1-1.2,0.1-2.5,0.1-3.5c-4.7-4.8-4.8-9.1-4.8-12.3c-0.1-3.5-0.1-5.7-5.9-8.8c-4.3-2.5-11.2-2.1-17.9-1.8
								c-5.5,0.3-11.1,0.6-16-0.5c-4.5,1-7.9-1.8-10.4-3.9c-1.5-1.2-2.9-2.5-3.8-2.2l-0.3,0.2c-0.3,0.2-0.7,0.3-1.1,0.3
								C1439.4,270.7,1434,274.5,1426.9,280.2"/>
						</g>
						<g transform="matrix(1.01387,0,0,1.01387,539.434,41.0019)">
							<path class="st2" d="M1102,150.3c-0.1,0.5-0.1,1.2-0.1,1.7c-0.1,2.6-0.2,6.1-3.2,8c-0.7,0.6-1.4,1-2.2,1.2
								c1.1,1.3,1.8,2.8,2,4.4c0.1,1,0,3.2-2,5.2c0.9,1.4,2.2,3.6,4.3,7c0.6,1,0.6,2.2-0.1,3.1c-0.6,0.9-1.7,1.4-2.8,1.3l-3.2-0.4
								c0.2,0.2,0.3,0.3,0.4,0.5c0.1,0.2,0.2,0.3,0.3,0.5l0.5,1c0.7,2.3,2.3,3,5.8,4c0.2,0.1,0.4,0.1,0.6,0.2
								c3.3-3.8,8.7-2.4,12.2-1.6c0.5,0.1,0.9,0.2,1.4,0.3c0.4-0.8,0.9-1.5,1.5-2.1c2.4-2.2,5.9-2,8.7-1.8l0.4,0
								c1.1-3.3,3.4-6.3,6.6-6.8c0.4-0.1,1.1-0.1,1.8,0c0.7-3.8,4.6-6.8,7.9-9.2c3.3-2.5,6.8-5.1,7.4-8.2c0.1-0.3,0.2-0.6,0.3-0.8
								c0.6-1,1.2-2,1.8-2.8c0.5-0.7,1.1-1.7,1.3-2.2c-0.2,0-0.8-0.4-2.3-1c-1.3-0.5-2.7-1.3-4-2.1c-1.7-1-3.5-2.1-4.8-2.3
								c-0.3,0.1-1.1,0.2-2,0.3c-2.8,0.5-6.2,1-9.3-1c-1.5-0.4-3.5,0-5.6,0.4c-2.1,0.4-4.3,0.8-6.6,0.6
								C1113.9,151,1109.1,153.1,1102,150.3"/>
						</g>
					</g>
				</g>
			</g>
		</g>
	</g>
</g>
</svg>
