<?xml version="1.0" encoding="UTF-8" standalone="no"?>
<!DOCTYPE svg PUBLIC "-//W3C//DTD SVG 1.1//EN" "http://www.w3.org/Graphics/SVG/1.1/DTD/svg11.dtd">
<svg width="100%" height="100%" viewBox="0 0 115 115" version="1.1" xmlns="http://www.w3.org/2000/svg" xmlns:xlink="http://www.w3.org/1999/xlink" xml:space="preserve" xmlns:serif="http://www.serif.com/" style="fill-rule:evenodd;clip-rule:evenodd;stroke-linejoin:round;stroke-miterlimit:2;">
    <g transform="matrix(1,0,0,1,-287,-10)">
        <g id="logo-box" transform="matrix(1,0,0,1,-57.0738,50.7422)">
            <rect x="344.388" y="-40.742" width="114.148" height="114.148" style="fill:none;"/>
            <clipPath id="_clip1">
                <rect x="344.388" y="-40.742" width="114.148" height="114.148"/>
            </clipPath>
            <g clip-path="url(#_clip1)">
                <g transform="matrix(0.171622,0,0,0.174707,250.891,-85.759)">
                    <path d="M737.481,706.473C730.289,706.918 723.038,707.145 715.735,707.145C714.915,707.145 714.096,707.142 713.278,707.136C750.741,758.393 811.311,791.714 879.602,791.714C966.587,791.714 1041.05,737.652 1071.18,661.324L1125.1,661.324C1124.49,663.298 1123.86,665.27 1123.2,667.24C1121.5,672.32 1119.66,677.311 1117.68,682.212L1101.82,681.634C1088.07,681.134 1075.12,688.121 1067.99,699.893C1060.91,711.579 1052.79,722.574 1043.81,732.613C1034.63,742.876 1031.74,757.306 1036.24,770.318L1041.41,785.278C1033.16,791.958 1024.51,798.11 1015.53,803.704L1003.13,793.981C992.287,785.479 977.686,783.525 964.987,788.876C952.395,794.182 939.405,798.329 926.238,801.148C912.746,804.036 901.886,814.021 897.876,827.222L893.28,842.353C882.773,842.92 872.174,842.84 861.536,842.087L857.196,826.881C853.415,813.631 842.748,803.472 829.329,800.341C816.196,797.278 803.237,792.917 790.729,787.4C778.13,781.843 763.509,783.549 752.527,791.856L739.892,801.413C730.942,795.617 722.428,789.306 714.377,782.534L719.823,767.65C724.55,754.73 721.913,740.264 712.933,729.843C706.615,722.512 700.749,714.735 695.395,706.557C693.279,703.324 691.242,700.028 689.29,696.673C682.363,684.769 669.53,677.553 655.76,677.819L639.955,678.124C637.822,672.598 635.878,666.994 634.128,661.324L1050.12,661.324C1021.11,726.664 955.643,772.283 879.602,772.283C822.686,772.283 771.693,746.727 737.481,706.473ZM922.017,705.964L914.858,705.964L918.056,692.001L908.714,692.001L902.646,714.85L934.381,714.85L924.226,679.307L915.34,679.307L922.017,705.964ZM972.193,714.85L972.193,679.307L963.307,679.307L963.307,714.85L972.193,714.85ZM766.644,705.964L766.644,692.001L757.759,692.001L757.759,714.85L766.644,714.85C771.553,714.85 775.742,713.115 779.211,709.645C782.681,706.176 784.416,701.987 784.416,697.078C784.416,692.17 782.681,687.981 779.211,684.511C775.742,681.042 771.553,679.307 766.644,679.307L757.759,679.307L757.759,688.193L766.644,688.193C769.098,688.193 771.189,689.064 772.915,690.807C774.658,692.534 775.53,694.624 775.53,697.078C775.53,699.532 774.658,701.631 772.915,703.374C771.189,705.101 769.098,705.964 766.644,705.964ZM888.754,702.156C889.448,702.156 890.04,702.41 890.531,702.917C891.039,703.408 891.293,704.001 891.293,704.695L891.293,714.85L900.178,714.85L900.204,704.695C900.204,702.037 899.493,699.702 898.071,697.688C899.476,695.69 900.178,693.372 900.178,690.731C900.178,687.583 899.188,684.892 897.208,682.658C895.228,680.424 892.833,679.307 890.023,679.307L876.06,679.307L876.06,688.193L888.754,688.193C889.448,688.193 890.04,688.446 890.531,688.954C891.039,689.445 891.293,690.037 891.293,690.731C891.293,691.425 891.039,692.026 890.531,692.534C890.04,693.025 889.448,693.27 888.754,693.27L876.035,693.27L876.06,702.156L888.754,702.156ZM1001.45,705.964L986.187,705.964L986.187,679.307L977.301,679.307L977.301,714.85L1001.45,714.85L1001.45,705.964ZM871.282,696.672C872.585,694.776 873.237,692.585 873.237,690.097C873.237,687.118 872.306,684.579 870.444,682.48C868.583,680.365 866.34,679.307 863.717,679.307L849.119,679.307L849.119,688.193L862.447,688.193C862.972,688.193 863.42,688.379 863.793,688.751C864.165,689.123 864.351,689.572 864.351,690.097C864.351,690.621 864.165,691.07 863.793,691.442C863.42,691.815 862.972,692.001 862.447,692.001L849.119,692.001L849.093,700.886L861.813,700.886C862.506,700.886 863.099,701.14 863.59,701.648C864.097,702.139 864.351,702.731 864.351,703.425C864.351,704.119 864.097,704.72 863.59,705.228C863.099,705.719 862.506,705.964 861.813,705.964L849.119,705.964L849.119,714.85L863.082,714.85C865.892,714.85 868.286,713.733 870.267,711.498C872.247,709.264 873.237,706.573 873.237,703.425C873.237,700.869 872.585,698.618 871.282,696.672ZM804.629,679.307C799.721,679.307 795.532,681.042 792.062,684.511C788.593,687.981 786.858,692.17 786.858,697.078C786.858,701.987 788.593,706.176 792.062,709.645C795.532,713.115 799.721,714.85 804.629,714.85C809.538,714.85 813.727,713.115 817.196,709.645C820.666,706.176 822.401,701.987 822.401,697.078C822.401,692.17 820.666,687.981 817.196,684.511C813.727,681.042 809.538,679.307 804.629,679.307ZM804.629,705.964C802.175,705.964 800.077,705.101 798.333,703.374C796.607,701.631 795.744,699.532 795.744,697.078C795.744,694.624 796.607,692.534 798.333,690.807C800.077,689.064 802.175,688.193 804.629,688.193C807.084,688.193 809.174,689.064 810.9,690.807C812.643,692.534 813.515,694.624 813.515,697.078C813.515,699.532 812.643,701.631 810.9,703.374C809.174,705.101 807.084,705.964 804.629,705.964ZM938.092,679.307L938.092,681.846C938.092,688.108 941.054,693.947 946.978,699.363L951.649,703.831C951.869,704.068 951.979,704.356 951.979,704.695C951.979,705.05 951.852,705.355 951.599,705.609C951.362,705.845 951.065,705.964 950.71,705.964L936.823,705.964L936.823,714.85L950.71,714.85C953.52,714.85 955.915,713.86 957.895,711.879C959.875,709.899 960.865,707.504 960.865,704.695C960.865,701.902 959.892,699.524 957.946,697.561L951.802,691.747C948.586,688.7 946.978,685.4 946.978,681.846L946.978,679.307L938.092,679.307ZM870.067,392.839L870.067,502.961L905.072,502.961C908.588,502.961 911.437,505.909 911.437,509.547C911.437,509.814 911.421,510.078 911.392,510.336L787.367,510.336C787.337,510.078 787.322,509.814 787.322,509.547C787.322,506.333 789.55,503.659 792.494,503.082L792.494,459.314L828.692,459.314L828.692,392.837L806.219,392.837C805.043,392.837 803.964,392.17 803.408,391.096L795.453,375.661C794.926,374.64 794.958,373.408 795.532,372.417C796.11,371.426 797.143,370.816 798.26,370.816L829.034,370.816C829.179,370.364 829.361,369.923 829.599,369.509L843.92,344.796C845.072,342.811 847.145,341.6 849.378,341.6C851.616,341.6 853.69,342.811 854.837,344.796L869.16,369.509C869.4,369.923 869.582,370.364 869.727,370.816L961.56,370.816C962.569,370.816 963.52,371.313 964.121,372.153C964.72,372.994 964.899,374.078 964.604,375.076L960.028,390.511C959.618,391.894 958.386,392.837 956.985,392.837L947.77,392.837L947.77,432.39L973.078,453.021C973.103,453.041 973.12,453.066 973.144,453.086L974.688,453.086L974.688,490.246L911.704,490.246L911.704,453.086L913.02,453.086C913.037,453.071 913.052,453.054 913.069,453.041L941.408,432.674L941.408,392.839L870.067,392.839ZM841.422,392.839L841.422,422.457L856.362,407L842.674,392.839L841.422,392.839ZM849.378,360.991L843.685,370.816L855.074,370.816L849.378,360.991ZM952.407,377.402L956.209,380.94L957.259,377.402L952.407,377.402ZM924.082,377.402L931.049,383.885L938.015,377.402L924.082,377.402ZM916.888,379.567L909.701,386.254L924.075,386.254L916.888,379.567ZM895.765,377.402L902.727,383.883L909.693,377.402L895.765,377.402ZM870.067,377.402L870.067,379.838L874.415,383.885L881.381,377.402L870.067,377.402ZM805.649,381.444L808.127,386.254L810.816,386.254L805.649,381.444ZM888.573,379.567L881.388,386.254L895.756,386.254L888.573,379.567ZM945.212,379.567L938.023,386.254L952.402,386.254L945.212,379.567ZM824.759,386.254L828.694,386.254L828.694,382.593L824.759,386.254ZM824.752,377.402L810.824,377.402L817.788,383.883L824.752,377.402ZM853.064,377.402L841.422,377.402L841.422,379.532L846.1,383.883L853.064,377.402ZM857.337,382.284L853.071,386.254L857.337,386.254L857.337,382.284ZM857.337,398.695L857.337,392.839L851.675,392.839L857.337,398.695ZM856.362,456.393L841.422,440.938L841.422,471.851L856.362,456.393ZM841.422,490.331L841.422,502.961L853.629,502.961L841.422,490.331ZM841.495,481.091L857.337,497.479L857.337,464.698L841.495,481.091ZM857.337,448.089L857.337,415.307L841.495,431.698L857.337,448.089ZM944.737,438.299L924.162,453.086L962.872,453.086L944.737,438.299ZM576.845,510.336L561.812,510.336C566.278,491.662 572.424,473.247 580.112,455.592L581.733,451.888L657.595,453.979C665.683,440.392 675.1,427.454 685.67,415.396L660.216,343.787L663.233,341.113C678.837,327.271 695.85,314.925 713.795,304.408L717.329,302.325L777.512,348.679C784.9,345.492 792.387,342.684 799.858,340.262C807.312,337.825 815.033,335.7 822.895,333.958L844.37,261.067L848.416,260.683C869.154,258.642 890.166,258.642 910.891,260.642L914.962,261.067L936.42,334C952.045,337.529 967.283,342.471 981.783,348.725L1041.94,302.454L1045.45,304.5C1063.38,315.054 1080.41,327.4 1096.03,341.196L1099.1,343.879L1073.6,415.438C1084.2,427.496 1093.65,440.438 1101.69,454.063L1177.57,451.967L1179.16,455.721C1183.35,465.342 1187.06,475.179 1190.25,484.967C1192.92,493.227 1195.31,501.724 1197.36,510.336L1130.17,510.336C1128.28,504.08 1126.15,497.901 1123.81,491.814C1123.07,489.901 1121.21,488.654 1119.16,488.693L1103.35,488.994C1091.37,489.222 1080.2,482.953 1074.16,472.607C1067.85,461.796 1060.7,451.552 1052.82,442.028C1059.15,415.841 1062.5,388.498 1062.5,360.378C1062.5,350.912 1062.12,341.533 1061.38,332.258C1055.39,327.974 1049.26,323.903 1043,320.061L990.685,360.299C986.485,363.53 980.865,364.231 975.999,362.133C962.32,356.233 947.944,351.573 933.203,348.243C928.036,347.076 923.907,343.203 922.412,338.121L903.745,274.676C887.739,273.433 871.588,273.436 855.574,274.706L836.901,338.085C835.399,343.185 831.244,347.065 826.053,348.215C818.661,349.852 811.403,351.85 804.395,354.141L804.359,354.153C797.317,356.435 790.26,359.082 783.296,362.086C778.428,364.187 772.802,363.483 768.601,360.248L716.273,319.943C702.592,328.312 689.519,337.797 677.293,348.233L699.428,410.505C701.2,415.49 700.137,421.043 696.65,425.022C686.67,436.406 677.778,448.619 670.142,461.448C667.436,465.995 662.482,468.722 657.192,468.576L591.235,466.757C585.384,480.908 580.562,495.526 576.845,510.336ZM970.815,385.227C982.837,389.589 996.325,387.611 1006.62,379.834L1019.31,370.25C1028.26,376.047 1036.78,382.36 1044.83,389.134L1039.38,404.062C1034.66,416.977 1037.31,431.434 1046.28,441.849C1048,443.842 1049.68,445.87 1051.34,447.931C1058.16,456.452 1064.39,465.534 1069.95,475.066C1076.88,486.937 1089.69,494.131 1103.44,493.87L1119.26,493.569C1121.38,499.085 1123.32,504.678 1125.07,510.336L1071.18,510.336C1064.8,494.17 1056.43,479.002 1046.37,465.136C1043.93,472.845 1041.22,480.438 1038.26,487.904C1018.86,456.547 990.416,431.36 956.586,415.986L956.586,401.958L956.985,401.958L960.782,401.321L964.118,399.528L966.753,396.755L968.456,393.186L970.815,385.227ZM689.337,706.153C695.331,715.641 701.995,724.621 709.238,733.026C717.065,742.108 719.362,754.715 715.243,765.974L709.797,780.859C709.092,782.785 709.668,784.946 711.238,786.267C719.443,793.168 728.12,799.599 737.242,805.506C738.963,806.621 741.199,806.539 742.834,805.302L755.469,795.745C765.04,788.506 777.781,787.02 788.761,791.862C801.548,797.502 814.795,801.959 828.221,805.091C839.915,807.819 849.211,816.672 852.507,828.219L856.846,843.425C857.409,845.397 859.145,846.806 861.191,846.951C872.033,847.719 882.835,847.8 893.542,847.222C895.59,847.112 897.35,845.732 897.946,843.77L902.542,828.64C906.037,817.135 915.501,808.434 927.259,805.916C940.722,803.034 954.005,798.796 966.881,793.37C977.948,788.707 990.672,790.41 1000.12,797.819L1012.52,807.542C1014.14,808.807 1016.37,808.928 1018.11,807.843C1027.26,802.143 1036.07,795.875 1044.48,789.069C1046.08,787.777 1046.69,785.624 1046.02,783.683L1040.85,768.723C1036.92,757.384 1039.45,744.808 1047.45,735.864C1056.63,725.602 1064.92,714.365 1072.16,702.42C1078.37,692.161 1089.65,686.072 1101.64,686.508L1117.51,687.085C1119.56,687.16 1121.43,685.942 1122.2,684.038C1124.22,679.046 1126.1,673.96 1127.83,668.786C1128.65,666.302 1129.45,663.815 1130.2,661.324L1197.39,661.324C1192.93,680.031 1186.78,698.446 1179.1,716.063L1177.48,719.817L1101.61,717.675C1093.52,731.267 1084.13,744.204 1073.53,756.258L1099.01,827.863L1095.97,830.583C1080.37,844.383 1063.36,856.729 1045.41,867.283L1041.9,869.338L981.716,823.017C974.337,826.163 966.841,829.013 959.345,831.446C951.875,833.871 944.145,835.954 936.316,837.742L914.833,910.633L910.787,911.017C890.075,913.013 869.045,913.013 848.329,911.017L844.266,910.633L822.791,837.696C807.166,834.171 791.937,829.221 777.42,822.971L717.262,869.254L713.754,867.204C695.804,856.604 678.779,844.258 663.195,830.5L660.125,827.783L685.612,756.217C675.012,744.204 665.579,731.225 657.512,717.592L581.641,719.729L580.033,715.975C575.875,706.354 572.145,696.521 568.97,686.725C566.281,678.431 563.879,669.921 561.835,661.324L576.868,661.324C578.486,667.802 580.312,674.217 582.314,680.508C615.674,694.442 651.67,703.312 689.337,706.153ZM709.088,510.336L634.099,510.336C634.707,508.362 635.34,506.39 635.998,504.42C637.693,499.349 639.53,494.367 641.505,489.475L657.358,490.049C671.114,490.547 684.061,483.557 691.19,471.782C698.268,460.09 706.391,449.102 715.376,439.044C724.543,428.78 727.436,414.358 722.934,401.354L717.758,386.402C726.014,379.719 734.662,373.564 743.645,367.968L756.086,377.717C765.727,385.271 778.332,387.651 789.93,384.33L795.63,395.388L795.636,395.399L797.549,398.129L800.053,400.195L802.995,401.502L806.219,401.958L819.877,401.958C819.877,401.958 819.877,404.826 819.877,409.164C770.348,425.923 730.124,462.942 709.088,510.336ZM862.569,340.402L865.933,329.306C876.433,328.74 887.027,328.82 897.659,329.573L902.008,344.822C903.871,351.354 907.408,357.136 912.123,361.695L874.91,361.695L862.569,340.402ZM932.592,407.028C925.457,404.913 918.145,403.215 910.682,401.961L932.592,401.961L932.592,407.028ZM550.763,533.807L576.775,533.807L576.775,541.239C576.775,551.644 581.481,561.305 590.895,570.223L608.88,587.242C614.578,592.99 617.427,599.951 617.427,608.126C617.427,616.351 614.529,623.361 608.732,629.158C602.935,634.955 595.924,637.853 587.699,637.853L547.047,637.853L547.047,611.842L587.699,611.842C588.74,611.842 589.607,611.495 590.301,610.801C591.044,610.058 591.415,609.166 591.415,608.126C591.415,607.135 591.093,606.293 590.449,605.599L576.775,592.519C559.433,576.664 550.763,559.571 550.763,541.239L550.763,533.807ZM650.588,637.853L624.576,637.853L624.576,533.807L650.588,533.807L650.588,637.853ZM732.428,637.853L706.416,637.853L706.416,570.966L732.428,570.966L732.428,637.853ZM773.303,567.25L773.303,637.853L747.292,637.853L747.292,567.25C747.292,565.219 746.549,563.485 745.062,562.048C743.625,560.562 741.891,559.819 739.86,559.819L691.553,559.819L691.553,637.853L665.541,637.853L665.541,533.807L739.86,533.881L739.86,533.807C749.075,533.807 756.953,537.077 763.493,543.617C770.033,550.157 773.303,558.035 773.303,567.25ZM833.591,533.807C847.959,533.807 860.222,538.885 870.379,549.042C880.536,559.199 885.614,571.462 885.614,585.83C885.614,600.199 880.536,612.461 870.379,622.618C860.222,632.775 847.959,637.853 833.591,637.853C819.223,637.853 806.96,632.775 796.803,622.618C786.646,612.461 781.568,600.199 781.568,585.83C781.568,571.462 786.646,559.199 796.803,549.042C806.96,538.885 819.223,533.807 833.591,533.807ZM833.591,611.842C840.775,611.842 846.894,609.315 851.948,604.261C857.051,599.158 859.602,593.014 859.602,585.83C859.602,578.646 857.051,572.527 851.948,567.473C846.894,562.37 840.775,559.819 833.591,559.819C826.407,559.819 820.263,562.37 815.16,567.473C810.106,572.527 807.579,578.646 807.579,585.83C807.579,593.014 810.106,599.158 815.16,604.261C820.263,609.315 826.407,611.842 833.591,611.842ZM967.082,567.25L967.082,637.853L941.071,637.853L941.071,567.25C941.071,565.219 940.328,563.485 938.841,562.048C937.404,560.562 935.67,559.819 933.639,559.819L918.775,559.819L918.775,637.853L892.764,637.853L892.764,533.807L933.639,533.881L933.639,533.807C942.855,533.807 950.732,537.077 957.272,543.617C963.812,550.157 967.082,558.035 967.082,567.25ZM978.468,533.807L1004.48,533.807L1004.48,541.239C1004.48,551.644 1009.19,561.305 1018.6,570.223L1036.59,587.242C1042.28,592.99 1045.13,599.951 1045.13,608.126C1045.13,616.351 1042.23,623.361 1036.44,629.158C1030.64,634.955 1023.63,637.853 1015.4,637.853L974.752,637.853L974.752,611.842L1015.4,611.842C1016.45,611.842 1017.31,611.495 1018.01,610.801C1018.75,610.058 1019.12,609.166 1019.12,608.126C1019.12,607.135 1018.8,606.293 1018.15,605.599L1004.48,592.519C987.139,576.664 978.468,559.571 978.468,541.239L978.468,533.807ZM1122.96,533.807L1122.96,559.819L1052.28,559.819L1052.28,533.807L1122.96,533.807ZM1078.29,611.842L1122.96,611.842L1122.96,637.853L1052.28,637.853L1052.28,570.966L1122.96,570.966L1122.96,596.978L1078.29,596.978L1078.29,611.842ZM1212.16,567.25L1212.16,637.853L1186.14,637.853L1186.14,567.25C1186.14,565.219 1185.4,563.485 1183.91,562.048C1182.48,560.562 1180.74,559.819 1178.71,559.819L1163.85,559.819L1163.85,637.853L1137.84,637.853L1137.84,533.807L1178.71,533.881L1178.71,533.807C1187.93,533.807 1195.81,537.077 1202.35,543.617C1208.89,550.157 1212.16,558.035 1212.16,567.25Z" style="fill:rgb(0,45,101);"/>
                </g>
            </g>
        </g>
    </g>
</svg>
