<?xml version="1.0" encoding="UTF-8" standalone="no"?>
<!DOCTYPE svg PUBLIC "-//W3C//DTD SVG 1.1//EN" "http://www.w3.org/Graphics/SVG/1.1/DTD/svg11.dtd">
<svg width="100%" height="100%" viewBox="0 0 951 437" version="1.1" xmlns="http://www.w3.org/2000/svg" xmlns:xlink="http://www.w3.org/1999/xlink" xml:space="preserve" xmlns:serif="http://www.serif.com/" style="fill-rule:evenodd;clip-rule:evenodd;stroke-linejoin:round;stroke-miterlimit:2;">
    <g transform="matrix(1,0,0,1,-132,-511)">
        <g transform="matrix(8.75511,0,0,8.75511,329.824,30.9501)">
            <g transform="matrix(1,0,0,1,-45.8455,0)">
                <g transform="matrix(1,0,0,1,131.84,93.7195)">
                    <path d="M0,-30.4L-4.82,-23.02L-4.82,0C-6.09,-1.07 -8.58,-2.99 -12.26,-5.13L-12.26,-23.02L-17.08,-30.4L0,-30.4Z" style="fill:rgb(49,85,164);fill-rule:nonzero;"/>
                </g>
                <g transform="matrix(1,0,0,1,123.3,54.8395)">
                    <path d="M0,7.39C-2.04,7.39 -3.69,5.73 -3.69,3.69C-3.69,1.66 -2.04,0 0,0C2.04,0 3.69,1.66 3.69,3.69C3.69,5.73 2.04,7.39 0,7.39M-2.22,4.69C-2.08,4.97 -1.29,6.15 -0.41,6.23C1.21,6.37 2.16,4.69 2.24,4.53C2.09,4.61 0.72,5.39 -0.93,5.13C-1.87,4.99 -2.14,4.79 -2.22,4.69" style="fill:rgb(49,85,164);fill-rule:nonzero;"/>
                </g>
                <g transform="matrix(1,0,0,1,117.02,77.5395)">
                    <path d="M0,-5.82C0.66,-4.15 1.01,-2.39 1.01,-0.58C1.01,1.22 0.66,2.94 0,4.61C-0.61,6.02 -1.42,7.27 -2.4,8.4C-4.55,7.36 -6.97,6.33 -9.63,5.38L-9.63,4.75C-9.08,4.46 -8.58,4.11 -8.15,3.65C-7.58,3.07 -7.18,2.46 -6.87,1.75C-6.56,1.05 -6.43,0.26 -6.43,-0.58C-6.43,-1.42 -6.56,-2.21 -6.87,-2.91C-7.14,-3.57 -7.58,-4.23 -8.15,-4.85C-8.68,-5.38 -9.29,-5.82 -10,-6.17C-10.75,-6.48 -11.54,-6.66 -12.33,-6.7L-12.33,4.46C-13.95,3.94 -15.66,3.46 -17.45,3.01C-18.21,2.82 -18.98,2.64 -19.77,2.47L-19.77,-6.84L-27.19,-6.84L-27.19,1.19C-27.73,1.12 -28.28,1.06 -28.83,1C-30.7,0.8 -32.63,0.64 -34.63,0.56L-34.63,-6.84L-39.46,-14.22L-12.33,-14.22C-10.44,-14.18 -8.68,-13.74 -7.14,-13.04C-5.51,-12.29 -4.05,-11.28 -2.87,-10.09C-1.63,-8.81 -0.66,-7.4 0,-5.82" style="fill:rgb(49,85,164);fill-rule:nonzero;"/>
                </g>
                <g transform="matrix(1,0,0,1,98.9401,57.5395)">
                    <path d="M0,1.99C0.14,2.27 0.93,3.45 1.81,3.53C3.43,3.67 4.37,1.99 4.45,1.83C4.3,1.91 2.94,2.69 1.29,2.43C0.35,2.29 0.08,2.09 0,1.99M2.22,4.69C0.18,4.69 -1.47,3.03 -1.47,0.99C-1.47,-1.04 0.18,-2.7 2.22,-2.7C4.26,-2.7 5.91,-1.04 5.91,0.99C5.91,3.03 4.26,4.69 2.22,4.69" style="fill:rgb(49,85,164);fill-rule:nonzero;"/>
                </g>
                <g transform="matrix(1,0,0,1,86.0801,62.2295)">
                    <path d="M0,-7.39C2.04,-7.39 3.69,-5.73 3.69,-3.7C3.69,-1.66 2.04,0 0,0C-2.04,0 -3.7,-1.66 -3.7,-3.7C-3.7,-5.73 -2.04,-7.39 0,-7.39M-0.42,-1.16C1.21,-1.02 2.15,-2.7 2.23,-2.86C2.08,-2.78 0.72,-2 -0.94,-2.26C-1.87,-2.4 -2.15,-2.6 -2.23,-2.7C-2.08,-2.42 -1.29,-1.24 -0.42,-1.16" style="fill:rgb(49,85,164);fill-rule:nonzero;"/>
                </g>
                <g transform="matrix(1,0,0,1,77.5601,78.9195)">
                    <path d="M0,-15.6L-4.82,-8.22L-4.82,-0.75C-7.41,-0.6 -9.89,-0.34 -12.26,0L-12.26,-8.22L-17.08,-15.6L0,-15.6Z" style="fill:rgb(49,85,164);fill-rule:nonzero;"/>
                </g>
                <g transform="matrix(1,0,0,1,68.5801,55.9995)">
                    <path d="M0,5.07C1.62,5.21 2.57,3.53 2.65,3.37C2.5,3.45 1.13,4.23 -0.52,3.97C-1.45,3.83 -1.73,3.63 -1.81,3.53C-1.66,3.81 -0.87,4.99 0,5.07M4.11,2.53C4.11,4.57 2.45,6.23 0.42,6.23C-1.62,6.23 -3.28,4.57 -3.28,2.53C-3.28,0.5 -1.62,-1.16 0.42,-1.16C2.45,-1.16 4.11,0.5 4.11,2.53" style="fill:rgb(49,85,164);fill-rule:nonzero;"/>
                </g>
                <g transform="matrix(1,0,0,1,60.5801,69.0195)">
                    <path d="M0,10.71C-7,12.11 -12.89,14.22 -17.63,16.41L-17.63,-5.7L-10.19,-5.7C-8.29,-5.66 -6.53,-5.18 -4.99,-4.56C-3.32,-3.9 -1.91,-3.02 -0.72,-1.97C0.51,-0.82 1.48,0.45 2.14,1.82C2.8,3.32 3.15,4.86 3.15,6.44C3.15,7.8 2.94,9.06 2.49,10.24C1.65,10.38 0.82,10.54 0,10.71M-7.9,10.06C-7.33,9.89 -6.67,9.59 -6.01,9.12C-5.43,8.74 -5.04,8.27 -4.73,7.72C-4.42,7.25 -4.29,6.7 -4.29,6.06C-4.29,5.43 -4.42,4.87 -4.73,4.41C-5.04,3.9 -5.48,3.43 -6.01,3.05C-6.67,2.62 -7.28,2.28 -7.9,2.07C-8.65,1.86 -9.44,1.73 -10.19,1.69L-10.19,10.48C-9.35,10.44 -8.6,10.27 -7.9,10.06" style="fill:rgb(49,85,164);fill-rule:nonzero;"/>
                </g>
                <g transform="matrix(1,0,0,1,46.2301,55.9995)">
                    <path d="M0,5.07C1.62,5.21 2.57,3.53 2.65,3.37C2.5,3.45 1.13,4.23 -0.52,3.97C-1.46,3.83 -1.73,3.63 -1.81,3.53C-1.67,3.81 -0.88,4.99 0,5.07M0.41,6.23C-1.63,6.23 -3.28,4.57 -3.28,2.53C-3.28,0.5 -1.63,-1.16 0.41,-1.16C2.45,-1.16 4.1,0.5 4.1,2.53C4.1,4.57 2.45,6.23 0.41,6.23" style="fill:rgb(49,85,164);fill-rule:nonzero;"/>
                </g>
                <g transform="matrix(1,0,0,1,115.125,103.099)">
                    <path d="M0,-3.54C0,-4.48 0.63,-5.11 1.57,-5.11C2.52,-5.11 3.15,-4.48 3.15,-3.54L3.15,-2.99L2.17,-2.99L2.17,-3.54C2.17,-3.95 1.94,-4.18 1.57,-4.18C1.21,-4.18 0.98,-3.95 0.98,-3.54L0.98,0.01C0.98,0.41 1.21,0.65 1.57,0.65C1.94,0.65 2.17,0.41 2.17,0.01L2.17,-1.15L1.57,-1.15L1.57,-2.07L3.15,-2.07L3.15,0.01C3.15,0.94 2.52,1.57 1.57,1.57C0.63,1.57 0,0.94 0,0.01L0,-3.54Z" style="fill:rgb(1,173,75);fill-rule:nonzero;"/>
                </g>
                <g transform="matrix(1,0,0,1,114.125,104.579)">
                    <path d="M0,-6.49L0,0L-1.03,0L-2.33,-4.16L-2.33,0L-3.3,0L-3.3,-6.49L-2.21,-6.49L-0.96,-2.13L-0.96,-6.49L0,-6.49Z" style="fill:rgb(1,173,75);fill-rule:nonzero;"/>
                </g>
                <g transform="matrix(1,0,0,1,22.6959,97.9995)">
                    <rect x="86.069" y="0.09" width="0.99" height="6.49" style="fill:rgb(1,173,75);"/>
                </g>
                <g transform="matrix(1,0,0,1,108.005,104.579)">
                    <path d="M0,-6.49L0,-5.57L-1.07,-5.57L-1.07,0L-2.06,0L-2.06,-5.57L-3.13,-5.57L-3.13,-6.49L0,-6.49Z" style="fill:rgb(1,173,75);fill-rule:nonzero;"/>
                </g>
                <g transform="matrix(1,0,0,1,102.555,101.849)">
                    <path d="M0,-1.03L1.43,-1.03L1.43,-0.1L0,-0.1L0,1.8L1.81,1.8L1.81,2.73L-0.99,2.73L-0.99,-3.76L1.81,-3.76L1.81,-2.84L0,-2.84L0,-1.03Z" style="fill:rgb(1,173,75);fill-rule:nonzero;"/>
                </g>
                <g transform="matrix(1,0,0,1,98.7451,100.759)">
                    <path d="M0,1.15L-0.37,1.86L-0.37,3.82L-1.35,3.82L-1.35,-2.67L-0.37,-2.67L-0.37,-0.04L0.93,-2.67L1.99,-2.67L0.61,0.08L2.09,3.82L1.03,3.82L0,1.15Z" style="fill:rgb(1,173,75);fill-rule:nonzero;"/>
                </g>
                <g transform="matrix(1,0,0,1,94.3451,103.659)">
                    <path d="M0,-4.65L0,-2.69L0.51,-2.69C0.89,-2.69 1.11,-2.91 1.11,-3.29L1.11,-4.04C1.11,-4.42 0.89,-4.65 0.51,-4.65L0,-4.65ZM-0.99,-5.57L0.55,-5.57C1.49,-5.57 2.09,-4.96 2.09,-4.02L2.09,-3.31C2.09,-2.71 1.84,-2.24 1.42,-1.98L2.24,0.92L1.22,0.92L0.51,-1.76L0,-1.76L0,0.92L-0.99,0.92L-0.99,-5.57Z" style="fill:rgb(1,173,75);fill-rule:nonzero;"/>
                </g>
                <g transform="matrix(1,0,0,1,90.3251,99.5295)">
                    <path d="M0,3.61L-0.21,5.05L-1.2,5.05L-0.12,-1.44L1.2,-1.44L2.27,5.05L1.27,5.05L1.06,3.61L0,3.61ZM0.93,2.67L0.53,-0.05L0.13,2.67L0.93,2.67Z" style="fill:rgb(1,173,75);fill-rule:nonzero;"/>
                </g>
                <g transform="matrix(1,0,0,1,86.1451,100.439)">
                    <path d="M0,1.79L0.81,-2.35L2.22,-2.35L2.22,4.14L1.24,4.14L1.24,-0.31L0.32,4.14L-0.36,4.14L-1.28,-0.31L-1.28,4.14L-2.25,4.14L-2.25,-2.35L-0.86,-2.35L0,1.79Z" style="fill:rgb(1,173,75);fill-rule:nonzero;"/>
                </g>
                <g transform="matrix(1,0,0,1,79.4051,101.849)">
                    <path d="M0,-1.03L1.44,-1.03L1.44,-0.1L0,-0.1L0,1.8L1.81,1.8L1.81,2.73L-0.98,2.73L-0.98,-3.76L1.81,-3.76L1.81,-2.84L0,-2.84L0,-1.03Z" style="fill:rgb(1,173,75);fill-rule:nonzero;"/>
                </g>
                <g transform="matrix(1,0,0,1,73.6651,100.469)">
                    <path d="M0,1.73L0.8,1.73L0.4,-0.99L0,1.73ZM-1.33,4.11L-0.25,-2.38L1.07,-2.38L2.14,4.11L1.14,4.11L0.93,2.67L-0.13,2.67L-0.34,4.11L-1.33,4.11Z" style="fill:rgb(1,173,75);fill-rule:nonzero;"/>
                </g>
                <g transform="matrix(1,0,0,1,71.6851,99.6395)">
                    <path d="M0,3.39C0,4.33 -0.61,4.94 -1.54,4.94L-3.08,4.94L-3.08,-1.55L-1.54,-1.55C-0.61,-1.55 0,-0.94 0,0L0,3.39ZM-0.99,-0.02C-0.99,-0.4 -1.21,-0.63 -1.59,-0.63L-2.1,-0.63L-2.1,4.01L-1.59,4.01C-1.21,4.01 -0.99,3.79 -0.99,3.41L-0.99,-0.02Z" style="fill:rgb(1,173,75);fill-rule:nonzero;"/>
                </g>
                <g transform="matrix(1,0,0,1,64.2251,104.579)">
                    <path d="M0,-6.49L1.08,-6.49L2.34,-2.13L2.34,-6.49L3.3,-6.49L3.3,0L2.26,0L0.96,-4.16L0.96,0L0,0L0,-6.49Z" style="fill:rgb(1,173,75);fill-rule:nonzero;"/>
                </g>
                <g transform="matrix(1,0,0,1,62.3851,104.579)">
                    <path d="M0,-6.49L1.08,0L0.07,0L-0.14,-1.44L-1.2,-1.44L-1.41,0L-2.39,0L-1.32,-6.49L0,-6.49ZM-0.27,-2.38L-0.67,-5.1L-1.07,-2.38L-0.27,-2.38Z" style="fill:rgb(1,173,75);fill-rule:nonzero;"/>
                </g>
                <g transform="matrix(1,0,0,1,59.3651,99.5495)">
                    <path d="M0,3.56C0,4.49 -0.63,5.12 -1.58,5.12C-2.53,5.12 -3.16,4.49 -3.16,3.56L-3.16,0.01C-3.16,-0.93 -2.53,-1.56 -1.58,-1.56C-0.63,-1.56 0,-0.93 0,0.01L0,0.56L-0.99,0.56L-0.99,0.01C-0.99,-0.4 -1.22,-0.63 -1.58,-0.63C-1.94,-0.63 -2.17,-0.4 -2.17,0.01L-2.17,3.56C-2.17,3.96 -1.94,4.2 -1.58,4.2C-1.22,4.2 -0.99,3.96 -0.99,3.56L-0.99,2.4L-1.58,2.4L-1.58,1.48L0,1.48L0,3.56Z" style="fill:rgb(1,173,75);fill-rule:nonzero;"/>
                </g>
                <g transform="matrix(1,0,0,1,54.4651,104.579)">
                    <path d="M0,-6.49L1.07,0L0.07,0L-0.14,-1.44L-1.2,-1.44L-1.41,0L-2.39,0L-1.32,-6.49L0,-6.49ZM-0.27,-2.38L-0.67,-5.1L-1.07,-2.38L-0.27,-2.38Z" style="fill:rgb(1,173,75);fill-rule:nonzero;"/>
                </g>
                <g transform="matrix(1,0,0,1,48.8351,98.0895)">
                    <path d="M0,6.49L0,0L1.54,0C2.48,0 3.08,0.61 3.08,1.55L3.08,2.31C3.08,3.24 2.48,3.86 1.54,3.86L0.98,3.86L0.98,6.49L0,6.49ZM1.49,2.93C1.87,2.93 2.09,2.71 2.09,2.33L2.09,1.53C2.09,1.15 1.87,0.92 1.49,0.92L0.98,0.92L0.98,2.93L1.49,2.93Z" style="fill:rgb(1,173,75);fill-rule:nonzero;"/>
                </g>
                <g transform="matrix(1,0,0,1,47.8351,99.5495)">
                    <path d="M0,3.56C0,4.49 -0.63,5.12 -1.57,5.12C-2.52,5.12 -3.15,4.49 -3.15,3.56L-3.15,0.01C-3.15,-0.93 -2.52,-1.56 -1.57,-1.56C-0.63,-1.56 0,-0.93 0,0.01L0,3.56ZM-1.57,-0.63C-1.93,-0.63 -2.17,-0.4 -2.17,0.01L-2.17,3.56C-2.17,3.96 -1.93,4.2 -1.57,4.2C-1.21,4.2 -0.98,3.96 -0.98,3.56L-0.98,0.01C-0.98,-0.4 -1.21,-0.63 -1.57,-0.63" style="fill:rgb(1,173,75);fill-rule:nonzero;"/>
                </g>
                <g transform="matrix(1,0,0,1,42.8351,103.049)">
                    <path d="M0,-3.43C0,-3.81 -0.23,-4.04 -0.61,-4.04L-1.12,-4.04L-1.12,-2.08L-0.61,-2.08C-0.23,-2.08 0,-2.3 0,-2.68L0,-3.43ZM-0.56,-4.96C0.38,-4.96 0.98,-4.35 0.98,-3.41L0.98,-2.7C0.98,-2.1 0.73,-1.63 0.3,-1.37L1.13,1.53L0.11,1.53L-0.61,-1.15L-1.12,-1.15L-1.12,1.53L-2.1,1.53L-2.1,-4.96L-0.56,-4.96Z" style="fill:rgb(1,173,75);fill-rule:nonzero;"/>
                </g>
                <g transform="matrix(1,0,0,1,36.8251,98.0895)">
                    <path d="M0,6.49L0,0L1.54,0C2.48,0 3.08,0.61 3.08,1.55L3.08,2.31C3.08,3.24 2.48,3.86 1.54,3.86L0.99,3.86L0.99,6.49L0,6.49ZM1.5,2.93C1.88,2.93 2.1,2.71 2.1,2.33L2.1,1.53C2.1,1.15 1.88,0.92 1.5,0.92L0.99,0.92L0.99,2.93L1.5,2.93Z" style="fill:rgb(1,173,75);fill-rule:nonzero;"/>
                </g>
                <g transform="matrix(-1,0,0,1,119.58,90.2695)">
                    <path d="M-7.44,5.36L0,5.36L0,0C-2.45,1.47 -4.31,2.81 -5.56,3.78C-6.81,4.75 -7.44,5.36 -7.44,5.36" style="fill:rgb(1,173,75);fill-rule:nonzero;"/>
                </g>
                <g transform="matrix(-0.455876,-0.890043,-0.890043,0.455876,108.805,84.7248)">
                    <path d="M-4.219,-3.159C-4.581,-1.76 -4.723,-0.328 -4.624,1.161C-4.58,2.014 -4.451,2.881 -4.219,3.751L0.872,1.143C-0.874,-0.468 -2.588,-1.905 -4.219,-3.159" style="fill:rgb(1,173,75);fill-rule:nonzero;"/>
                </g>
                <g transform="matrix(1,0,0,1,104.69,86.5995)">
                    <path d="M0,-3.07L0,9.03L-7.44,9.03L-7.44,-5.11C-6.78,-4.96 -6.13,-4.81 -5.48,-4.65C-3.56,-4.17 -1.73,-3.63 0,-3.07Z" style="fill:rgb(1,173,75);fill-rule:nonzero;"/>
                </g>
                <g transform="matrix(1,0,0,1,76.2701,79.5695)">
                    <path d="M0,16.06C-1.18,15.94 -2.29,15.62 -3.35,15.17C-4.8,14.6 -6.08,13.77 -7.27,12.62C-8.46,11.43 -9.34,10.11 -9.95,8.66C-10.57,7.29 -10.92,5.71 -10.97,3.95L-10.97,0.79C-10.38,0.7 -9.78,0.62 -9.17,0.54C-7.35,0.32 -5.47,0.14 -3.53,0.02L-3.53,3.9C-3.53,5.18 -3.04,6.33 -2.07,7.29C-1.15,8.22 0,8.66 1.36,8.66C2.02,8.66 2.64,8.53 3.21,8.26C3.78,8 4.31,7.65 4.75,7.21C5.19,6.77 5.54,6.24 5.76,5.67C5.98,5.05 6.12,4.43 6.12,3.77L6.12,-0.05C8.06,0.04 9.94,0.19 11.76,0.38C12.37,0.45 12.97,0.52 13.56,0.6L13.56,3.73C13.6,5.36 13.29,6.94 12.67,8.48C11.97,10.07 11.09,11.39 10.08,12.4C8.98,13.5 7.7,14.38 6.2,15.04C5.02,15.56 3.78,15.92 2.48,16.06C2.38,16.07 2.28,16.08 2.18,16.08C1.94,16.08 1.7,16.05 1.45,16.06L1.32,16.06C0.87,16.06 0.43,16.11 0,16.06" style="fill:rgb(1,173,75);fill-rule:nonzero;"/>
                </g>
                <g transform="matrix(1,0,0,1,59.5501,92.3595)">
                    <path d="M0,-8.23L7.09,3.27L-1.67,3.27L-6.82,-4.94L-9.16,-4.94L-9.16,3.27L-16.6,3.27L-16.6,-5.32C-11.84,-7.57 -5.85,-9.78 1.31,-11.22C1.79,-11.32 2.27,-11.41 2.76,-11.5C2.05,-10.26 1.14,-9.18 0,-8.23" style="fill:rgb(1,173,75);fill-rule:nonzero;"/>
                </g>
                <g transform="matrix(1,0,0,1,36.8701,95.6295)">
                    <path d="M0,-5.35L0,0L-7.42,0C-7.42,0 -7.07,-0.34 -6.37,-0.92C-5.2,-1.88 -3.06,-3.51 0,-5.35" style="fill:rgb(1,173,75);fill-rule:nonzero;"/>
                </g>
                <g transform="matrix(1,0,0,1,42.9501,93.7395)">
                    <path d="M0,-30.42L0,-23.03L-6.08,-23.03L-6.08,-5.14C-9.77,-2.99 -12.26,-1.05 -13.52,0L-13.52,-23.03L-19.69,-23.03L-19.69,-30.42L0,-30.42Z" style="fill:rgb(49,85,164);fill-rule:nonzero;"/>
                </g>
                <g transform="matrix(1,0,0,1,30.9401,57.5395)">
                    <path d="M0,1.99C0.15,2.27 0.94,3.45 1.82,3.53C3.44,3.67 4.38,1.99 4.46,1.83C4.31,1.91 2.95,2.69 1.29,2.43C0.36,2.29 0.09,2.09 0,1.99M5.92,0.99C5.92,3.03 4.27,4.69 2.23,4.69C0.19,4.69 -1.46,3.03 -1.46,0.99C-1.46,-1.04 0.19,-2.7 2.23,-2.7C4.27,-2.7 5.92,-1.04 5.92,0.99" style="fill:rgb(49,85,164);fill-rule:nonzero;"/>
                </g>
                <g transform="matrix(1,0,0,1,74.5711,79.3926)">
                    <path d="M0,-1.347L2.052,-1.638L2.987,-3.507L3.906,-1.638L5.958,-1.347L4.472,0.108L4.825,2.16L2.987,1.195L1.133,2.16L1.486,0.108L0,-1.347Z" style="fill:rgb(255,181,17);fill-rule:nonzero;"/>
                </g>
            </g>
        </g>
    </g>
</svg>
