<?xml version="1.0" encoding="UTF-8"?>
<svg id="Layer_2" data-name="Layer 2" xmlns="http://www.w3.org/2000/svg" viewBox="0 0 70.8 26.61">
  <defs>
    <style>
      .cls-1 {
        fill: #231f20;
      }
    </style>
  </defs>
  <g id="Layer_1-2" data-name="Layer 1">
    <g>
      <path class="cls-1" d="M67.65,5.53h-7.99l3.14,4.81v11.66c2.4,1.4,4.02,2.65,4.85,3.34V10.34l3.14-4.81h-3.14Z"/>
      <path class="cls-1" d="M62.8,23.1v3.49h4.85s-.41-.4-1.23-1.03c-.82-.63-2.03-1.51-3.63-2.46Z"/>
      <path class="cls-1" d="M65.23,4.82c1.33,0,2.41-1.08,2.41-2.41s-1.08-2.41-2.41-2.41-2.41,1.08-2.41,2.41,1.08,2.41,2.41,2.41Zm-.61-1.47c1.08,.17,1.97-.34,2.07-.39-.05,.1-.67,1.2-1.73,1.11-.57-.05-1.09-.82-1.18-1,.05,.07,.23,.2,.84,.29Z"/>
      <path class="cls-1" d="M61.79,14.42c0-1.18-.23-2.33-.66-3.42-.43-1.03-1.06-1.95-1.87-2.78-.77-.78-1.72-1.43-2.78-1.92-1-.46-2.15-.74-3.38-.77h-17.69l3.15,4.81v4.82c1.3,.05,2.56,.16,3.78,.29,.36,.04,.72,.08,1.07,.12v-5.24h4.84v6.07c.52,.11,1.02,.23,1.51,.35,1.17,.29,2.28,.61,3.34,.95v-7.28c.52,.03,1.03,.14,1.52,.35,.46,.23,.86,.52,1.21,.86,.37,.4,.66,.83,.83,1.26,.2,.46,.29,.97,.29,1.52s-.08,1.06-.29,1.52c-.2,.46-.46,.86-.83,1.24-.28,.3-.61,.53-.96,.72v.41c1.73,.62,3.31,1.29,4.71,1.97,.64-.74,1.17-1.55,1.56-2.47,.43-1.09,.66-2.21,.66-3.38Z"/>
      <path class="cls-1" d="M54.85,19.32v3.73c.57-.12,1.11-.31,1.62-.53,.89-.38,1.68-.89,2.39-1.52-1.21-.57-2.56-1.14-4.01-1.68Z"/>
      <path class="cls-1" d="M48.24,17.38v9.22h4.85v-7.89c-1.13-.37-2.32-.72-3.57-1.03-.42-.1-.85-.2-1.28-.3Z"/>
      <path class="cls-1" d="M50.79,4.82c1.33,0,2.41-1.08,2.41-2.41s-1.08-2.41-2.41-2.41-2.41,1.08-2.41,2.41,1.08,2.41,2.41,2.41Zm-.61-1.47c1.08,.17,1.96-.34,2.06-.39-.05,.1-.67,1.2-1.72,1.11-.57-.05-1.09-.82-1.18-1,.05,.07,.23,.2,.84,.29Z"/>
      <path class="cls-1" d="M40.96,4.82c1.33,0,2.41-1.08,2.41-2.41s-1.08-2.41-2.41-2.41-2.41,1.08-2.41,2.41,1.08,2.41,2.41,2.41Zm-.61-1.47c1.08,.17,1.97-.34,2.07-.39-.05,.1-.67,1.2-1.73,1.11-.57-.05-1.08-.82-1.18-1,.05,.07,.23,.2,.84,.29Z"/>
      <path class="cls-1" d="M43.4,16.52c-.38-.05-.78-.1-1.17-.14-1.19-.12-2.41-.22-3.68-.28v2.49c0,.43-.09,.83-.23,1.24-.14,.37-.37,.72-.66,1-.29,.29-.63,.52-1,.68-.37,.18-.78,.26-1.21,.26-.89,0-1.64-.29-2.24-.89-.63-.63-.95-1.38-.95-2.21v-2.53c-1.26,.08-2.49,.2-3.68,.34-.4,.05-.79,.1-1.17,.16v2.06c.03,1.15,.26,2.18,.67,3.07,.4,.95,.97,1.81,1.75,2.58,.78,.75,1.61,1.29,2.56,1.66,.69,.29,1.41,.5,2.18,.58,.28,.03,.57,0,.86,0h.08c.16,0,.32,.01,.48,.01,.07,0,.13,0,.2-.01,.85-.09,1.66-.33,2.43-.67,.98-.43,1.81-1,2.53-1.72,.66-.66,1.23-1.52,1.69-2.56,.4-1,.61-2.03,.58-3.1v-2.04Z"/>
      <polygon class="cls-1" points="36.01 14.94 35.41 13.72 34.8 14.94 33.47 15.13 34.43 16.08 34.2 17.42 35.41 16.79 36.61 17.42 36.38 16.08 37.35 15.13 36.01 14.94"/>
      <path class="cls-1" d="M27.41,5.53h-3.14l3.14,4.81v5.36c1.55-.22,3.16-.39,4.85-.49v-4.87l3.14-4.81h-7.99Z"/>
      <path class="cls-1" d="M29.82,4.82c1.32,0,2.41-1.08,2.41-2.41s-1.08-2.41-2.41-2.41-2.41,1.08-2.41,2.41,1.08,2.41,2.41,2.41Zm-.61-1.47c1.08,.17,1.97-.34,2.07-.39-.05,.1-.67,1.2-1.73,1.11-.57-.05-1.08-.82-1.18-1,.05,.07,.23,.2,.84,.29Z"/>
      <path class="cls-1" d="M25.46,16.97c-.32,.06-.63,.12-.95,.18-4.67,.94-8.57,2.38-11.67,3.85v5.6h4.84v-5.35h1.53l3.36,5.35h5.71l-4.62-7.5c.74-.62,1.34-1.32,1.8-2.13Z"/>
      <path class="cls-1" d="M15.24,4.82c1.33,0,2.41-1.08,2.41-2.41s-1.08-2.41-2.41-2.41-2.41,1.08-2.41,2.41,1.08,2.41,2.41,2.41Zm-.61-1.47c1.08,.17,1.97-.34,2.07-.39-.05,.1-.67,1.2-1.73,1.11-.57-.05-1.09-.82-1.18-1,.05,.07,.23,.2,.84,.29Z"/>
      <path class="cls-1" d="M8.87,22.01V10.35h3.97v9.6c3.09-1.43,6.92-2.8,11.49-3.72,.53-.11,1.08-.22,1.62-.31,.29-.77,.43-1.59,.43-2.48,0-1.03-.23-2.03-.66-3.01-.43-.89-1.06-1.72-1.86-2.47-.78-.68-1.7-1.26-2.78-1.69-1-.4-2.15-.72-3.39-.74H0v4.82H4.02v15.02c.82-.68,2.45-1.95,4.85-3.35Zm8.82-11.66c.49,.03,1,.11,1.49,.25,.4,.14,.8,.36,1.23,.64,.35,.25,.63,.55,.83,.89,.2,.3,.29,.67,.29,1.08s-.08,.78-.29,1.08c-.2,.36-.46,.67-.83,.91-.43,.31-.86,.5-1.23,.61-.46,.14-.95,.25-1.49,.27v-5.73Z"/>
      <path class="cls-1" d="M8.87,26.6v-3.49c-2,1.2-3.39,2.26-4.15,2.89-.46,.38-.68,.6-.68,.6h4.84Z"/>
      <path class="cls-1" d="M6.46,4.82c1.33,0,2.41-1.08,2.41-2.41S7.79,0,6.46,0s-2.41,1.08-2.41,2.41,1.08,2.41,2.41,2.41Zm-.61-1.47c1.08,.17,1.97-.34,2.07-.39-.05,.1-.67,1.2-1.72,1.11-.57-.05-1.09-.82-1.19-1,.06,.07,.23,.2,.84,.29Z"/>
    </g>
  </g>
</svg>