<?xml version="1.0" encoding="UTF-8" standalone="no"?>
<!DOCTYPE svg PUBLIC "-//W3C//DTD SVG 1.1//EN" "http://www.w3.org/Graphics/SVG/1.1/DTD/svg11.dtd">
<svg width="100%" height="100%" viewBox="0 0 263 74" version="1.1" xmlns="http://www.w3.org/2000/svg" xmlns:xlink="http://www.w3.org/1999/xlink" xml:space="preserve" xmlns:serif="http://www.serif.com/" style="fill-rule:evenodd;clip-rule:evenodd;stroke-linejoin:round;stroke-miterlimit:2;">
    <g transform="matrix(1,0,0,1,0,-51)">
        <g id="logo-horizontal" transform="matrix(1,0,0,1,6.75016e-14,198.807)">
            <rect x="-0" y="-147.807" width="262.692" height="73.212" style="fill:none;"/>
            <clipPath id="_clip1">
                <rect x="-0" y="-147.807" width="262.692" height="73.212"/>
            </clipPath>
            <g clip-path="url(#_clip1)">
                <g transform="matrix(0.0937766,0,0,0.0937766,-195.083,100.299)">
                    <g>
                        <g transform="matrix(0.95732,0,0,0.95732,-409.902,-2680.47)">
                            <path d="M3332.44,416.465C3334.28,436.128 3334.25,456.151 3332.39,476.086L3410.59,529.658L3409.47,534.646C3403.81,559.989 3395.68,584.968 3385.29,608.777L3383.27,613.463L3288.57,610.79C3278.47,627.754 3266.76,643.903 3253.53,658.948L3285.33,748.323L3281.53,751.719C3262.06,768.944 3240.83,784.353 3218.43,797.527L3214.05,800.091L3138.93,742.274C3129.72,746.201 3120.36,749.758 3111.01,752.795C3101.68,755.822 3092.03,758.422 3082.26,760.654L3055.45,851.635L3050.4,852.113C3024.54,854.605 2998.3,854.605 2972.44,852.113L2967.37,851.635L2940.56,760.596C2921.06,756.197 2902.05,750.018 2883.93,742.217L2808.84,799.987L2804.46,797.428C2782.06,784.197 2760.81,768.788 2741.36,751.615L2737.53,748.224L2769.34,658.896C2756.11,643.903 2744.33,627.703 2734.26,610.686L2639.57,613.354L2637.56,608.668C2632.37,596.659 2627.71,584.385 2623.75,572.159C2619.77,559.89 2616.3,547.242 2613.47,534.485L2612.35,529.497L2690.53,475.977C2688.69,456.313 2688.69,436.342 2690.55,416.413L2612.39,362.783L2613.47,357.79C2619.13,332.499 2627.26,307.525 2637.66,283.664L2639.68,279.041L2734.37,281.652C2744.46,264.692 2756.22,248.544 2769.41,233.493L2737.64,144.113L2741.41,140.774C2760.88,123.497 2782.12,108.088 2804.52,94.961L2808.93,92.361L2884.05,150.219C2893.27,146.24 2902.61,142.735 2911.94,139.713C2921.24,136.671 2930.88,134.019 2940.69,131.845L2967.5,40.863L2972.55,40.385C2998.43,37.836 3024.66,37.836 3050.53,40.333L3055.61,40.863L3082.39,131.897C3101.89,136.302 3120.91,142.47 3139.01,150.276L3214.09,92.522L3218.48,95.076C3240.86,108.249 3262.11,123.659 3281.62,140.878L3285.44,144.228L3253.61,233.545C3266.85,248.596 3278.64,264.749 3288.68,281.755L3383.38,279.14L3385.37,283.825C3390.61,295.834 3395.23,308.113 3399.21,320.329C3403.17,332.556 3406.62,345.199 3409.47,358.003L3410.59,362.944L3332.44,416.465ZM3227.67,266.734C3235.58,234.048 3239.76,199.919 3239.76,164.821C3239.76,153.005 3239.29,141.3 3238.36,129.722C3230.88,124.375 3223.23,119.294 3215.42,114.498L3150.12,164.722C3144.88,168.755 3137.87,169.631 3131.79,167.011C3114.72,159.647 3096.77,153.83 3078.37,149.674C3071.93,148.218 3066.77,143.383 3064.91,137.041L3041.61,57.85C3021.63,56.299 3001.47,56.302 2981.48,57.887L2958.17,136.995C2956.3,143.361 2951.11,148.204 2944.63,149.639C2935.41,151.683 2926.35,154.176 2917.6,157.036L2917.55,157.051C2908.76,159.9 2899.96,163.203 2891.26,166.953C2885.19,169.575 2878.17,168.697 2872.92,164.658L2807.61,114.351C2790.53,124.797 2774.21,136.636 2758.95,149.662L2786.58,227.388C2788.8,233.61 2787.47,240.542 2783.12,245.507C2770.66,259.717 2759.56,274.961 2750.03,290.973C2746.65,296.649 2740.47,300.052 2733.87,299.87L2651.54,297.6C2643.87,316.141 2637.62,335.324 2632.9,354.753L2700.86,401.384C2706.31,405.124 2709.31,411.522 2708.69,418.103C2707.82,427.481 2707.38,436.868 2707.38,446.224L2707.38,446.224C2707.38,455.622 2707.81,464.989 2708.68,474.282C2709.29,480.872 2706.29,487.277 2700.83,491.015L2632.89,537.53C2635.08,546.608 2637.61,555.6 2640.4,564.398C2682.04,581.791 2726.97,592.862 2773.99,596.408C2781.47,608.251 2789.79,619.459 2798.83,629.95C2808.6,641.286 2811.46,657.022 2806.32,671.075L2799.53,689.654C2798.65,692.058 2799.36,694.756 2801.32,696.404C2811.57,705.017 2822.39,713.045 2833.78,720.418C2835.93,721.809 2838.72,721.708 2840.76,720.163L2856.53,708.235C2868.48,699.199 2884.38,697.344 2898.09,703.388C2914.05,710.428 2930.58,715.99 2947.34,719.899C2961.93,723.304 2973.54,734.355 2977.65,748.768L2983.07,767.747C2983.77,770.209 2985.94,771.968 2988.49,772.149C3002.02,773.107 3015.51,773.209 3028.87,772.487C3031.43,772.349 3033.62,770.627 3034.37,768.178L3040.1,749.293C3044.47,734.933 3056.28,724.072 3070.96,720.93C3087.76,717.333 3104.34,712.042 3120.41,705.27C3134.22,699.45 3150.11,701.575 3161.9,710.823L3177.38,722.959C3179.4,724.539 3182.18,724.689 3184.36,723.335C3195.78,716.221 3206.77,708.397 3217.27,699.901C3219.26,698.289 3220.03,695.601 3219.19,693.179L3212.73,674.506C3207.83,660.353 3210.99,644.656 3220.97,633.493C3232.43,620.684 3242.78,606.658 3251.81,591.748C3259.57,578.943 3273.65,571.343 3288.62,571.887L3308.41,572.608C3310.98,572.701 3313.32,571.181 3314.28,568.805C3316.8,562.573 3319.14,556.226 3321.3,549.767C3323.44,543.361 3325.37,536.936 3327.09,530.498C3327.76,528.022 3326.8,525.396 3324.7,523.93L3308.47,512.61C3296.14,504.013 3289.46,489.397 3291.03,474.452C3291.93,465.811 3292.4,457.184 3292.46,448.723C3292.46,448.687 3292.46,448.65 3292.46,448.614C3292.53,440.087 3292.22,431.41 3291.48,422.705C3290.21,407.77 3297.14,393.321 3309.58,384.957L3325.97,373.934C3328.1,372.504 3329.1,369.894 3328.48,367.407C3325.2,354.302 3321.12,341.433 3316.28,328.876C3315.36,326.488 3313.04,324.932 3310.49,324.981L3290.74,325.356C3275.79,325.64 3261.86,317.815 3254.32,304.902C3246.44,291.408 3237.52,278.621 3227.67,266.734ZM2781.55,596.912C2778.91,592.877 2776.37,588.763 2773.93,584.575C2765.28,569.717 2749.26,560.71 2732.08,561.042L2712.35,561.424C2707.59,549.094 2703.59,536.458 2700.37,523.59L2716.73,512.582C2730.93,503.024 2738.87,486.546 2737.5,469.482C2736.8,460.913 2736.45,452.326 2736.52,443.881C2736.59,435.47 2737.11,426.913 2737.95,418.354C2739.63,401.304 2731.97,384.678 2717.92,374.876L2701.71,363.569C2703.41,357.235 2705.3,350.913 2707.41,344.61C2709.53,338.281 2711.82,332.062 2714.28,325.957L2734.07,326.673C2751.24,327.295 2767.4,318.569 2776.3,303.872C2785.14,289.278 2795.27,275.563 2806.49,263.009C2817.93,250.199 2821.54,232.198 2815.92,215.966L2809.46,197.304C2819.77,188.962 2830.56,181.28 2841.77,174.294L2857.3,186.463C2870.86,197.086 2889.12,199.512 2904.98,192.797C2920.64,186.168 2936.87,181.036 2953.31,177.502C2970.14,173.884 2983.68,161.416 2988.68,144.94L2994.41,126.038C3007.52,125.331 3020.74,125.43 3034.01,126.37L3039.44,145.404C3044.15,161.941 3057.47,174.623 3074.21,178.534C3090.6,182.362 3106.75,187.761 3122.36,194.646C3138.07,201.578 3156.31,199.458 3170.01,189.105L3185.85,177.142C3197.03,184.379 3207.66,192.258 3217.71,200.713L3210.9,219.346C3205.02,235.467 3208.31,253.511 3219.52,266.511C3221.66,268.999 3223.76,271.53 3225.82,274.102C3234.34,284.738 3242.11,296.074 3249.06,307.971C3257.71,322.789 3273.7,331.768 3290.86,331.442L3310.6,331.067C3315.36,343.391 3319.36,356.021 3322.57,368.883L3306.18,379.906C3291.91,389.503 3283.96,406.083 3285.41,423.22C3286.14,431.734 3286.45,440.22 3286.37,448.559C3286.37,448.6 3286.37,448.642 3286.37,448.683C3286.32,456.948 3285.86,465.376 3284.97,473.817C3283.18,490.966 3290.84,507.738 3304.98,517.603L3321.21,528.923C3319.52,535.243 3317.62,541.55 3315.52,547.838C3313.41,554.178 3311.11,560.408 3308.64,566.525L3288.84,565.804C3271.67,565.18 3255.51,573.901 3246.61,588.594C3237.77,603.181 3227.64,616.904 3216.44,629.435C3204.98,642.245 3201.36,660.256 3206.98,676.497L3213.44,695.17C3203.14,703.508 3192.35,711.186 3181.14,718.169L3165.66,706.033C3152.12,695.421 3133.9,692.982 3118.05,699.661C3102.33,706.284 3086.12,711.46 3069.68,714.978C3052.84,718.583 3039.28,731.045 3034.28,747.524L3028.54,766.409C3015.43,767.117 3002.2,767.018 2988.92,766.077L2983.51,747.097C2978.78,730.559 2965.47,717.879 2948.72,713.971C2932.33,710.148 2916.16,704.705 2900.54,697.819C2884.82,690.883 2866.57,693.011 2852.86,703.38L2837.09,715.308C2825.92,708.074 2815.29,700.197 2805.24,691.745L2812.04,673.167C2817.94,657.041 2814.65,638.985 2803.44,625.977C2795.55,616.827 2788.23,607.12 2781.55,596.912ZM2830.5,597.42L2821.05,597.42C2816.36,597.57 2811.66,597.646 2806.94,597.646C2805.91,597.646 2804.89,597.642 2803.87,597.635C2850.63,661.612 2926.23,703.203 3011.47,703.203C3153.3,703.203 3268.45,588.055 3268.45,446.224C3268.45,389.971 3250.34,337.916 3219.63,295.577C3217.6,301.976 3215.43,308.311 3213.11,314.578C3236.25,350.558 3250.02,394.096 3250.86,439.923C3253.27,571.318 3148.55,679.948 3017.15,682.355C2942.47,683.723 2875.15,650.488 2830.5,597.42ZM3204.21,315.816C3196.3,304.158 3187.36,293.253 3177.53,283.233L3181.87,268.588L3182.8,263.283L3182.53,257.974L3181.08,252.876L3178.51,248.202L3178.49,248.176L3174.92,244.253L3170.64,241.326L3165.81,239.494L3160.63,238.859L3117.16,238.859C3085.43,222.646 3049.51,213.499 3011.47,213.499C3002.96,213.499 2994.55,213.957 2986.27,214.85L2977.02,198.884C2977,198.87 2972.5,192.981 2972.5,192.981L2966.76,188.532L2960.12,185.735L2952.91,184.762L2945.7,185.736L2939.07,188.532L2933.34,192.972L2928.81,198.876L2905.64,238.859L2858.26,238.859L2852.54,239.636L2847.3,241.857L2842.78,245.362L2839.23,249.994L2839.21,250.023L2836.92,255.475L2836.05,261.26L2836.63,267.087L2838.66,272.666L2842.86,280.824L2847.27,285.067C2806.57,327.385 2781.96,385.199 2783.12,448.489C2784.03,498.467 2800.88,544.445 2828.72,581.665L2834.67,581.665C2835.3,581.665 2835.83,581.455 2836.25,581.035C2836.7,580.585 2836.92,580.044 2836.92,579.414C2836.92,578.814 2836.73,578.304 2836.34,577.884L2828.05,569.961C2817.55,560.359 2812.3,550.005 2812.3,538.902L2812.3,534.401L2828.05,534.401L2828.05,538.902C2828.05,545.204 2830.91,551.056 2836.61,556.457L2847.5,566.765C2850.95,570.246 2852.68,574.463 2852.68,579.414C2852.68,584.396 2850.92,588.642 2847.41,592.153C2845.42,594.14 2843.2,595.565 2840.74,596.427C2883.79,645.045 2947.05,675.234 3016.99,673.953C3090.93,672.599 3156.11,636.38 3197.14,581.275L3197.14,554.657C3197.14,553.426 3196.69,552.376 3195.79,551.506C3194.92,550.606 3193.87,550.155 3192.64,550.155L3183.63,550.155L3183.63,597.42L3167.88,597.42L3167.88,534.401L3192.64,534.446L3192.64,534.401C3198.22,534.401 3202.99,536.381 3206.95,540.342C3210.91,544.304 3212.89,549.075 3212.89,554.657L3212.89,557.087C3232.41,522.57 3243.24,482.557 3242.46,440.077C3241.62,394.509 3227.56,351.282 3203.98,315.97L3204.21,315.816ZM2872.76,597.42L2857.01,597.42L2857.01,534.401L2872.76,534.401L2872.76,597.42ZM3166.26,263.636L3157.79,292.216C3157.03,294.775 3154.75,296.522 3152.15,296.522L3135.09,296.522L3135.09,369.759L3181.95,407.959C3182,407.996 3182.03,408.043 3182.07,408.08L3184.93,408.08L3184.93,476.885L3068.31,476.885L3068.31,408.08L3070.75,408.08C3070.78,408.052 3070.81,408.02 3070.84,407.996L3123.31,370.284L3123.31,296.527L2991.22,296.527L2991.22,500.428L3056.03,500.428C3062.54,500.428 3067.82,505.887 3067.82,512.623C3067.82,519.359 3062.54,524.818 3056.03,524.818L2849.79,524.818C2843.28,524.818 2838.01,519.359 2838.01,512.623C2838.01,506.672 2842.13,501.72 2847.58,500.651L2847.58,419.61L2914.61,419.61L2914.61,296.522L2873,296.522C2870.82,296.522 2868.82,295.286 2867.79,293.298L2853.06,264.719C2852.09,262.828 2852.14,260.546 2853.21,258.712C2854.28,256.876 2856.19,255.748 2858.26,255.748L2915.24,255.748C2915.51,254.912 2915.85,254.095 2916.29,253.328L2942.8,207.57C2944.94,203.895 2948.78,201.651 2952.91,201.651C2957.05,201.651 2960.89,203.895 2963.02,207.57L2989.54,253.328C2989.98,254.095 2990.32,254.912 2990.59,255.748L3160.63,255.748C3162.49,255.748 3164.26,256.667 3165.37,258.225C3166.48,259.78 3166.81,261.788 3166.26,263.636ZM3130.36,271.952L3117.04,284.332L3143.67,284.332L3130.36,271.952ZM2959.74,267.943L2938.18,267.943L2938.18,271.887L2946.84,279.942L2959.74,267.943ZM2952.91,237.556L2942.37,255.748L2963.46,255.748L2952.91,237.556ZM2967.65,276.983L2959.75,284.332L2967.65,284.332L2967.65,276.983ZM2965.84,414.203L2938.18,385.586L2938.18,442.824L2965.84,414.203ZM2991.22,267.943L2991.22,272.454L2999.27,279.947L3012.17,267.943L2991.22,267.943ZM2938.18,477.043L2938.18,500.428L2960.78,500.428L2938.18,477.043ZM3129.48,380.699L3091.38,408.08L3163.06,408.08L3129.48,380.699ZM2940.5,296.527L2938.18,296.527L2938.18,351.367L2965.84,322.746L2940.5,296.527ZM3038.8,267.943L3051.69,279.942L3064.59,267.943L3038.8,267.943ZM2967.65,398.826L2967.65,338.128L2938.31,368.477L2967.65,398.826ZM3025.48,271.952L3012.18,284.332L3038.78,284.332L3025.48,271.952ZM2907.31,267.943L2881.52,267.943L2894.42,279.942L2907.31,267.943ZM2938.31,459.933L2967.65,490.278L2967.65,429.579L2938.31,459.933ZM2967.65,307.369L2967.65,296.527L2957.16,296.527L2967.65,307.369ZM2907.33,284.332L2914.61,284.332L2914.61,277.555L2907.33,284.332ZM3091.23,267.943L3104.13,279.947L3117.03,267.943L3091.23,267.943ZM3077.91,271.952L3064.6,284.332L3091.22,284.332L3077.91,271.952ZM2871.94,275.427L2876.53,284.332L2881.51,284.332L2871.94,275.427ZM3150.72,274.493L3152.66,267.943L3143.68,267.943L3150.72,274.493ZM3131.82,581.665L3158.87,581.665L3158.87,597.42L3116.06,597.42L3116.06,556.907L3158.87,556.907L3158.87,572.662L3131.82,572.662L3131.82,581.665ZM3064.46,554.657L3064.46,597.42L3048.7,597.42L3048.7,554.657C3048.7,553.426 3048.25,552.376 3047.35,551.506C3046.48,550.606 3045.43,550.155 3044.2,550.155L3035.2,550.155L3035.2,597.42L3019.44,597.42L3019.44,534.401L3044.2,534.446L3044.2,534.401C3049.78,534.401 3054.55,536.381 3058.51,540.342C3062.48,544.304 3064.46,549.075 3064.46,554.657ZM3004.93,627.752C3005.95,629.283 3006.46,631.054 3006.46,633.064C3006.46,635.54 3005.69,637.657 3004.13,639.414C3002.57,641.172 3000.69,642.05 2998.48,642.05L2987.49,642.05L2987.49,635.061L2997.48,635.061C2998.02,635.061 2998.49,634.868 2998.88,634.482C2999.28,634.082 2999.47,633.61 2999.47,633.064C2999.47,632.518 2999.28,632.052 2998.88,631.666C2998.49,631.267 2998.02,631.067 2997.48,631.067L2987.47,631.067L2987.49,624.077L2997.98,624.077C2998.39,624.077 2998.74,623.931 2999.04,623.638C2999.33,623.345 2999.47,622.992 2999.47,622.58C2999.47,622.167 2999.33,621.814 2999.04,621.521C2998.74,621.228 2998.39,621.082 2997.98,621.082L2987.49,621.082L2987.49,614.092L2998.98,614.092C3001.04,614.092 3002.8,614.925 3004.27,616.589C3005.73,618.24 3006.46,620.237 3006.46,622.58C3006.46,624.537 3005.95,626.261 3004.93,627.752ZM3044.84,635.061L3039.58,614.092L3046.57,614.092L3054.56,642.05L3029.6,642.05L3034.37,624.077L3041.72,624.077L3039.2,635.061L3044.84,635.061ZM3084.3,642.05L3077.31,642.05L3077.31,614.092L3084.3,614.092L3084.3,642.05ZM2952.5,614.092C2956.36,614.092 2959.65,615.457 2962.38,618.186C2965.11,620.916 2966.48,624.211 2966.48,628.071C2966.48,631.932 2965.11,635.227 2962.38,637.956C2959.65,640.686 2956.36,642.05 2952.5,642.05C2948.64,642.05 2945.34,640.686 2942.61,637.956C2939.88,635.227 2938.52,631.932 2938.52,628.071C2938.52,624.211 2939.88,620.916 2942.61,618.186C2945.34,615.457 2948.64,614.092 2952.5,614.092ZM2952.5,635.061C2954.43,635.061 2956.07,634.382 2957.43,633.024C2958.8,631.653 2959.49,630.002 2959.49,628.071C2959.49,626.141 2958.8,624.497 2957.43,623.139C2956.07,621.768 2954.43,621.082 2952.5,621.082C2950.57,621.082 2948.92,621.768 2947.55,623.139C2946.19,624.497 2945.51,626.141 2945.51,628.071C2945.51,630.002 2946.19,631.653 2947.55,633.024C2948.92,634.382 2950.57,635.061 2952.5,635.061ZM2947.09,554.657L2947.09,597.42L2931.33,597.42L2931.33,554.657C2931.33,553.426 2930.88,552.376 2929.98,551.506C2929.11,550.606 2928.06,550.155 2926.83,550.155L2897.57,550.155L2897.57,597.42L2881.82,597.42L2881.82,534.401L2926.83,534.446L2926.83,534.401C2932.41,534.401 2937.18,536.381 2941.15,540.342C2945.11,544.304 2947.09,549.075 2947.09,554.657ZM2983.6,534.401C2992.31,534.401 2999.73,537.477 3005.89,543.628C3012.04,549.78 3015.11,557.208 3015.11,565.91C3015.11,574.613 3012.04,582.04 3005.89,588.192C2999.73,594.344 2992.31,597.42 2983.6,597.42C2974.9,597.42 2967.47,594.344 2961.32,588.192C2955.17,582.04 2952.09,574.613 2952.09,565.91C2952.09,557.208 2955.17,549.78 2961.32,543.628C2967.47,537.477 2974.9,534.401 2983.6,534.401ZM2983.6,581.665C2987.95,581.665 2991.66,580.134 2994.72,577.074C2997.81,573.983 2999.36,570.261 2999.36,565.91C2999.36,561.559 2997.81,557.853 2994.72,554.792C2991.66,551.701 2987.95,550.155 2983.6,550.155C2979.25,550.155 2975.53,551.701 2972.44,554.792C2969.38,557.853 2967.85,561.559 2967.85,565.91C2967.85,570.261 2969.38,573.983 2972.44,577.074C2975.53,580.134 2979.25,581.665 2983.6,581.665ZM3057.48,614.092L3064.47,614.092L3064.47,616.089C3064.47,618.885 3065.73,621.481 3068.26,623.878L3073.1,628.451C3074.63,629.995 3075.39,631.866 3075.39,634.062C3075.39,636.272 3074.61,638.156 3073.06,639.714C3071.5,641.271 3069.62,642.05 3067.41,642.05L3056.48,642.05L3056.48,635.061L3067.41,635.061C3067.68,635.061 3067.92,634.968 3068.1,634.781C3068.3,634.582 3068.4,634.342 3068.4,634.062C3068.4,633.796 3068.32,633.57 3068.14,633.383L3064.47,629.869C3059.81,625.608 3057.48,621.015 3057.48,616.089L3057.48,614.092ZM3071.35,534.401L3087.11,534.401L3087.11,538.902C3087.11,545.204 3089.96,551.056 3095.66,556.457L3106.55,566.765C3110,570.246 3111.73,574.463 3111.73,579.414C3111.73,584.396 3109.97,588.642 3106.46,592.153C3102.95,595.664 3098.71,597.42 3093.72,597.42L3069.1,597.42L3069.1,581.665L3093.72,581.665C3094.35,581.665 3094.88,581.455 3095.3,581.035C3095.75,580.585 3095.97,580.044 3095.97,579.414C3095.97,578.814 3095.78,578.304 3095.39,577.884L3087.11,569.961C3076.6,560.359 3071.35,550.005 3071.35,538.902L3071.35,534.401ZM3158.87,534.401L3158.87,550.155L3116.06,550.155L3116.06,534.401L3158.87,534.401ZM2922.62,635.061C2924.55,635.061 2926.19,634.382 2927.55,633.024C2928.92,631.653 2929.61,630.002 2929.61,628.071C2929.61,626.141 2928.92,624.497 2927.55,623.139C2926.19,621.768 2924.55,621.082 2922.62,621.082L2915.63,621.082L2915.63,614.092L2922.62,614.092C2926.48,614.092 2929.78,615.457 2932.5,618.186C2935.23,620.916 2936.6,624.211 2936.6,628.071C2936.6,631.932 2935.23,635.227 2932.5,637.956C2929.78,640.686 2926.48,642.05 2922.62,642.05L2915.63,642.05L2915.63,624.077L2922.62,624.077L2922.62,635.061ZM3107.31,635.061L3107.31,642.05L3088.32,642.05L3088.32,614.092L3095.31,614.092L3095.31,635.061L3107.31,635.061ZM3018.67,632.065L3008.68,632.065L3008.66,625.076L3018.67,625.076C3019.22,625.076 3019.68,624.883 3020.07,624.497C3020.47,624.097 3020.67,623.625 3020.67,623.079C3020.67,622.533 3020.47,622.067 3020.07,621.681C3019.68,621.282 3019.22,621.082 3018.67,621.082L3008.68,621.082L3008.68,614.092L3019.67,614.092C3021.88,614.092 3023.76,614.971 3025.32,616.729C3026.88,618.486 3027.66,620.603 3027.66,623.079C3027.66,625.156 3027.1,626.98 3026,628.551C3027.12,630.135 3027.68,631.972 3027.68,634.062L3027.66,642.05L3020.67,642.05L3020.67,634.062C3020.67,633.517 3020.47,633.051 3020.07,632.664C3019.68,632.265 3019.22,632.065 3018.67,632.065ZM2922.33,597.42L2906.58,597.42L2906.58,556.907L2922.33,556.907L2922.33,597.42Z" style="fill:rgb(0,45,101);"/>
                        </g>
                        <g transform="matrix(9.20672,0,0,9.20672,16650.9,-3106.69)">
                            <path d="M-1494.46,75.603L-1485.91,75.603L-1485.91,78.044C-1485.91,81.462 -1484.37,84.636 -1481.27,87.565L-1475.37,93.156C-1473.49,95.044 -1472.56,97.331 -1472.56,100.017C-1472.56,102.718 -1473.51,105.021 -1475.41,106.926C-1477.32,108.83 -1479.62,109.782 -1482.32,109.782L-1495.68,109.782L-1495.68,101.237L-1482.32,101.237C-1481.98,101.237 -1481.7,101.123 -1481.47,100.896C-1481.22,100.651 -1481.1,100.358 -1481.1,100.017C-1481.1,99.691 -1481.21,99.414 -1481.42,99.187L-1485.91,94.89C-1491.61,89.681 -1494.46,84.066 -1494.46,78.044L-1494.46,75.603ZM-1461.66,109.782L-1470.21,109.782L-1470.21,75.603L-1461.66,75.603L-1461.66,109.782ZM-1434.78,109.782L-1443.32,109.782L-1443.32,87.81L-1434.78,87.81L-1434.78,109.782ZM-1421.35,86.589L-1421.35,109.782L-1429.9,109.782L-1429.9,86.589C-1429.9,85.922 -1430.14,85.352 -1430.63,84.88C-1431.1,84.392 -1431.67,84.147 -1432.34,84.147L-1448.21,84.147L-1448.21,109.782L-1456.75,109.782L-1456.75,75.603L-1432.34,75.627L-1432.34,75.603C-1429.31,75.603 -1426.72,76.677 -1424.57,78.825C-1422.42,80.974 -1421.35,83.562 -1421.35,86.589ZM-1401.55,75.603C-1396.83,75.603 -1392.8,77.271 -1389.46,80.607C-1386.12,83.944 -1384.46,87.972 -1384.46,92.692C-1384.46,97.412 -1386.12,101.441 -1389.46,104.777C-1392.8,108.114 -1396.83,109.782 -1401.55,109.782C-1406.27,109.782 -1410.3,108.114 -1413.63,104.777C-1416.97,101.441 -1418.64,97.412 -1418.64,92.692C-1418.64,87.972 -1416.97,83.944 -1413.63,80.607C-1410.3,77.271 -1406.27,75.603 -1401.55,75.603ZM-1401.55,101.237C-1399.19,101.237 -1397.18,100.407 -1395.52,98.747C-1393.84,97.071 -1393,95.052 -1393,92.692C-1393,90.332 -1393.84,88.322 -1395.52,86.662C-1397.18,84.986 -1399.19,84.147 -1401.55,84.147C-1403.91,84.147 -1405.92,84.986 -1407.6,86.662C-1409.26,88.322 -1410.09,90.332 -1410.09,92.692C-1410.09,95.052 -1409.26,97.071 -1407.6,98.747C-1405.92,100.407 -1403.91,101.237 -1401.55,101.237ZM-1357.69,86.589L-1357.69,109.782L-1366.24,109.782L-1366.24,86.589C-1366.24,85.922 -1366.48,85.352 -1366.97,84.88C-1367.44,84.392 -1368.01,84.147 -1368.68,84.147L-1373.56,84.147L-1373.56,109.782L-1382.11,109.782L-1382.11,75.603L-1368.68,75.627L-1368.68,75.603C-1365.65,75.603 -1363.07,76.677 -1360.92,78.825C-1358.77,80.974 -1357.69,83.562 -1357.69,86.589ZM-1353.95,75.603L-1345.41,75.603L-1345.41,78.044C-1345.41,81.462 -1343.86,84.636 -1340.77,87.565L-1334.86,93.156C-1332.99,95.044 -1332.05,97.331 -1332.05,100.017C-1332.05,102.718 -1333.01,105.021 -1334.91,106.926C-1336.82,108.83 -1339.12,109.782 -1341.82,109.782L-1355.17,109.782L-1355.17,101.237L-1341.82,101.237C-1341.48,101.237 -1341.19,101.123 -1340.96,100.896C-1340.72,100.651 -1340.6,100.358 -1340.6,100.017C-1340.6,99.691 -1340.7,99.414 -1340.92,99.187L-1345.41,94.89C-1351.11,89.681 -1353.95,84.066 -1353.95,78.044L-1353.95,75.603ZM-1306.49,75.603L-1306.49,84.147L-1329.7,84.147L-1329.7,75.603L-1306.49,75.603ZM-1321.16,101.237L-1306.49,101.237L-1306.49,109.782L-1329.7,109.782L-1329.7,87.81L-1306.49,87.81L-1306.49,96.355L-1321.16,96.355L-1321.16,101.237ZM-1277.19,86.589L-1277.19,109.782L-1285.73,109.782L-1285.73,86.589C-1285.73,85.922 -1285.98,85.352 -1286.46,84.88C-1286.93,84.392 -1287.51,84.147 -1288.17,84.147L-1293.06,84.147L-1293.06,109.782L-1301.6,109.782L-1301.6,75.603L-1288.17,75.627L-1288.17,75.603C-1285.14,75.603 -1282.56,76.677 -1280.41,78.825C-1278.26,80.974 -1277.19,83.562 -1277.19,86.589ZM-1492.72,123.097C-1491.83,123.097 -1491.07,122.783 -1490.44,122.155C-1489.8,121.521 -1489.49,120.758 -1489.49,119.865C-1489.49,118.972 -1489.8,118.212 -1490.44,117.584C-1491.07,116.95 -1491.83,116.632 -1492.72,116.632L-1495.95,116.632L-1495.95,113.4L-1492.72,113.4C-1490.93,113.4 -1489.41,114.031 -1488.15,115.293C-1486.88,116.555 -1486.25,118.079 -1486.25,119.865C-1486.25,121.65 -1486.88,123.174 -1488.15,124.436C-1489.41,125.699 -1490.93,126.33 -1492.72,126.33L-1495.95,126.33L-1495.95,118.018L-1492.72,118.018L-1492.72,123.097ZM-1478.9,113.4C-1477.12,113.4 -1475.59,114.031 -1474.33,115.293C-1473.07,116.555 -1472.43,118.079 -1472.43,119.865C-1472.43,121.65 -1473.07,123.174 -1474.33,124.436C-1475.59,125.699 -1477.12,126.33 -1478.9,126.33C-1480.69,126.33 -1482.21,125.699 -1483.47,124.436C-1484.73,123.174 -1485.37,121.65 -1485.37,119.865C-1485.37,118.079 -1484.73,116.555 -1483.47,115.293C-1482.21,114.031 -1480.69,113.4 -1478.9,113.4ZM-1478.9,123.097C-1478.01,123.097 -1477.25,122.783 -1476.62,122.155C-1475.99,121.521 -1475.67,120.758 -1475.67,119.865C-1475.67,118.972 -1475.99,118.212 -1476.62,117.584C-1477.25,116.95 -1478.01,116.632 -1478.9,116.632C-1479.79,116.632 -1480.56,116.95 -1481.19,117.584C-1481.82,118.212 -1482.13,118.972 -1482.13,119.865C-1482.13,120.758 -1481.82,121.521 -1481.19,122.155C-1480.56,122.783 -1479.79,123.097 -1478.9,123.097ZM-1454.65,119.717C-1454.18,120.425 -1453.94,121.244 -1453.94,122.174C-1453.94,123.319 -1454.3,124.298 -1455.02,125.111C-1455.74,125.923 -1456.62,126.33 -1457.64,126.33L-1462.72,126.33L-1462.72,123.097L-1458.1,123.097C-1457.85,123.097 -1457.63,123.008 -1457.45,122.829C-1457.27,122.645 -1457.17,122.426 -1457.17,122.174C-1457.17,121.921 -1457.27,121.706 -1457.45,121.527C-1457.63,121.342 -1457.85,121.25 -1458.1,121.25L-1462.73,121.25L-1462.72,118.018L-1457.87,118.018C-1457.68,118.018 -1457.51,117.95 -1457.38,117.815C-1457.24,117.679 -1457.17,117.516 -1457.17,117.325C-1457.17,117.134 -1457.24,116.971 -1457.38,116.836C-1457.51,116.7 -1457.68,116.632 -1457.87,116.632L-1462.72,116.632L-1462.72,113.4L-1457.41,113.4C-1456.45,113.4 -1455.64,113.785 -1454.96,114.554C-1454.28,115.318 -1453.94,116.241 -1453.94,117.325C-1453.94,118.23 -1454.18,119.027 -1454.65,119.717ZM-1448.3,121.712L-1452.91,121.712L-1452.92,118.48L-1448.3,118.48C-1448.05,118.48 -1447.83,118.39 -1447.65,118.212C-1447.47,118.027 -1447.37,117.808 -1447.37,117.556C-1447.37,117.304 -1447.47,117.088 -1447.65,116.909C-1447.83,116.725 -1448.05,116.632 -1448.3,116.632L-1452.91,116.632L-1452.91,113.4L-1447.84,113.4C-1446.81,113.4 -1445.94,113.806 -1445.22,114.619C-1444.5,115.432 -1444.14,116.411 -1444.14,117.556C-1444.14,118.516 -1444.4,119.36 -1444.91,120.086C-1444.39,120.819 -1444.13,121.669 -1444.13,122.635L-1444.14,126.33L-1447.37,126.33L-1447.37,122.635C-1447.37,122.383 -1447.47,122.168 -1447.65,121.989C-1447.83,121.804 -1448.05,121.712 -1448.3,121.712ZM-1436.2,123.097L-1438.63,113.4L-1435.39,113.4L-1431.7,126.33L-1443.24,126.33L-1441.04,118.018L-1437.64,118.018L-1438.8,123.097L-1436.2,123.097ZM-1430.35,113.4L-1427.12,113.4L-1427.12,114.324C-1427.12,115.617 -1426.53,116.817 -1425.36,117.925L-1423.13,120.04C-1422.42,120.755 -1422.07,121.62 -1422.07,122.635C-1422.07,123.658 -1422.43,124.529 -1423.15,125.249C-1423.87,125.969 -1424.74,126.33 -1425.76,126.33L-1430.81,126.33L-1430.81,123.097L-1425.76,123.097C-1425.63,123.097 -1425.52,123.054 -1425.44,122.968C-1425.34,122.876 -1425.3,122.765 -1425.3,122.635C-1425.3,122.512 -1425.34,122.408 -1425.42,122.321L-1427.12,120.696C-1429.27,118.726 -1430.35,116.602 -1430.35,114.324L-1430.35,113.4ZM-1417.94,126.33L-1421.18,126.33L-1421.18,113.4L-1417.94,113.4L-1417.94,126.33ZM-1407.3,123.097L-1407.3,126.33L-1416.09,126.33L-1416.09,113.4L-1412.85,113.4L-1412.85,123.097L-1407.3,123.097Z" style="fill:rgb(0,45,101);"/>
                        </g>
                    </g>
                </g>
            </g>
        </g>
    </g>
</svg>
